<svg width="46" height="45" viewBox="0 0 46 45" fill="none" xmlns="http://www.w3.org/2000/svg">
<path d="M29.0525 6.29707L28.7375 6.60176L28.715 9.33633L28.6925 12.0709L28.4375 12.1166C28.2875 12.1395 28.0701 12.2309 27.9501 12.3223C27.5151 12.6422 27.5001 12.7107 27.5001 15.133V17.342L24.4101 19.452C22.7076 20.6098 21.2301 21.6305 21.1401 21.7219C20.7351 22.0875 20.7501 21.8057 20.7501 28.6764C20.7501 35.3033 20.7726 35.8137 21.0801 37.1924C21.5001 39.0586 22.3626 40.9096 23.5551 42.5244C24.0726 43.2252 25.3926 44.6039 25.7751 44.84L26.0376 45H33.125H40.2125L40.475 44.84C40.8575 44.6039 42.1775 43.2252 42.695 42.5244C44.2175 40.4602 45.1175 38.1979 45.425 35.6309C45.47 35.2424 45.5 32.4926 45.5 28.6154V22.2475L45.335 21.9885C45.1625 21.7371 44.39 21.1963 40.175 18.4008L38.6 17.3496V15.2016C38.6 13.183 38.5925 13.0383 38.4425 12.726C38.3225 12.4746 38.21 12.3604 37.9175 12.2309L37.55 12.0557V11.3168V10.5703H38.285C38.825 10.5703 39.08 10.5398 39.275 10.4332C40.085 10.0219 40.085 8.81836 39.275 8.38418C39.005 8.23945 38.8325 8.20898 38.255 8.20898H37.565L37.535 7.40156L37.5125 6.60176L37.1975 6.29707L36.8825 6H33.125H29.3675L29.0525 6.29707ZM35.225 10.1895V12.0938H33.125H31.025V10.1895V8.28516H33.125H35.225V10.1895ZM36.275 15.6357V16.8164H33.05H29.825V15.6357V14.4551H33.05H36.275V15.6357ZM31.85 22.7578V26.3379H27.4626H23.0751V24.784V23.2301L26.0526 21.2039L29.03 19.1777H30.44H31.85V22.7578ZM40.1225 21.2115L43.175 23.2377V24.7916V26.3379H38.675H34.175V22.7578V19.1777H35.6225H37.0625L40.1225 21.2115ZM31.865 32.843C31.8875 36.8953 31.8875 36.9943 32.045 37.2C32.2925 37.5428 32.57 37.7104 32.9525 37.7408C33.395 37.7789 33.7625 37.6037 34.0025 37.2381L34.175 36.9791V32.843V28.6992H38.6825H43.19L43.1525 32.1803L43.1225 35.6689L42.92 36.5449C42.575 37.9846 42.0275 39.2947 41.2775 40.4297C40.8275 41.1152 39.95 42.1816 39.5825 42.4939L39.3125 42.7148H33.125H26.9376L26.6676 42.4939C26.3001 42.1816 25.4226 41.1152 24.9726 40.4297C24.2226 39.2947 23.6751 37.9846 23.3301 36.5449L23.1276 35.6689L23.0976 32.1803L23.0676 28.6992H27.4551H31.8425L31.865 32.843Z" fill="#B3B3B3"/>
<path fill-rule="evenodd" clip-rule="evenodd" d="M10.3985 0.18457C9.83598 0.544922 9.80961 0.667969 9.78325 3.26953L9.75688 5.60742L8.7725 5.64258C7.6475 5.66895 7.42778 5.76562 7.12895 6.38086C6.97075 6.70605 6.95317 6.9082 6.95317 8.97363V11.2148L6.23246 11.3203C3.97367 11.6455 2.37407 13.4736 2.37407 15.7324C2.37407 16.1455 2.55864 18.4746 2.77836 20.918C3.17387 25.1807 3.19145 25.4443 3.13871 27.4658C3.11235 28.626 3.05082 29.8916 2.99809 30.2783C2.94535 30.665 2.52348 33.0557 2.05766 35.5957C1.27543 39.8936 1.2227 40.2715 1.25785 41.0977C1.29301 41.8623 1.33696 42.0645 1.58305 42.583C1.73246 42.917 1.99614 43.3564 2.16313 43.5586C2.57621 44.0596 3.41996 44.6133 4.1143 44.8242C4.66801 44.9912 4.92289 45 13.9844 45C23.0459 45 23.3008 44.9912 23.8545 44.8242C24.5489 44.6133 25.3926 44.0596 25.8057 43.5586L23.7842 41.6777C23.6875 41.8096 23.4502 42.0029 23.2569 42.1172L22.9053 42.3193H13.9844C5.63481 42.3193 5.04594 42.3105 4.78227 42.1611C4.21098 41.8535 3.94731 41.4404 3.9561 40.8252C3.9561 40.6318 4.30766 38.5137 4.74711 36.123C5.78422 30.4453 5.81059 30.2168 5.86332 27.3779C5.90727 25.0576 5.89848 24.8906 5.4766 20.3906C5.17778 17.1123 5.07231 15.6709 5.12504 15.4248C5.24809 14.8711 5.57328 14.458 6.08305 14.2031L6.54887 13.9746H13.9844H21.42L21.8858 14.2031C22.5274 14.5283 22.7998 14.959 22.8438 15.7236C22.8614 16.04 22.6856 18.2988 22.4659 20.7422L25.283 19.875C25.4597 17.8484 25.5948 16.0859 25.5948 15.7324C25.5948 13.4648 23.9952 11.6455 21.7452 11.3203L21.0157 11.2148V8.96484C21.0157 6.78516 21.0069 6.69727 20.8135 6.32812C20.5147 5.75684 20.1895 5.625 19.1084 5.625H18.212L18.1856 3.26953C18.1592 0.65918 18.1329 0.536133 17.5616 0.18457C17.2715 0.00878906 17.1573 0 13.9756 0C10.7852 0 10.6797 0.00878906 10.3985 0.18457ZM15.4786 4.13086V5.625H13.9844H12.4903V4.13086V2.63672H13.9844H15.4786V4.13086ZM18.2911 9.7998V11.25H13.9844H9.67778V9.7998V8.34961H13.9844H18.2911V9.7998Z" fill="#B3B3B3"/>
</svg>
