<svg width="60" height="60" viewBox="0 0 60 60" fill="none" xmlns="http://www.w3.org/2000/svg">
<path d="M31.1394 3.9047C30.729 3.72441 30.271 3.72441 29.8606 3.9047L9.34562 12.8992L17.6094 16.5203L38.7638 7.247L31.1394 3.9047ZM43.3906 9.27801L22.2362 18.5513L30.5 22.1725L51.6544 12.8992L43.3906 9.27801ZM54.5625 15.6838L32.2188 25.4809V55.3318L54.5625 45.5347V15.6838ZM28.7812 55.3355V25.4771L6.4375 15.6838V45.5385L28.7812 55.3355ZM28.5853 0.404131C29.8144 -0.13471 31.1856 -0.13471 32.4147 0.404131L56.9206 11.1508C57.2392 11.2907 57.5123 11.5321 57.7047 11.8437C57.8971 12.1553 57.9999 12.5229 58 12.8992V45.5385C57.9996 46.2914 57.7934 47.027 57.408 47.6502C57.0226 48.2735 56.4757 48.7559 55.8378 49.0353L31.1394 59.8648C30.729 60.0451 30.271 60.0451 29.8606 59.8648L5.16563 49.0353C4.52711 48.7565 3.97949 48.2743 3.59346 47.651C3.20742 47.0277 3.00071 46.2918 3 45.5385V12.8992C3.00008 12.5229 3.10293 12.1553 3.29531 11.8437C3.48768 11.5321 3.76076 11.2907 4.07938 11.1508L28.5853 0.404131Z" fill="#B3B3B3"/>
</svg>
