<svg width="46" height="45" viewBox="0 0 46 45" fill="none" xmlns="http://www.w3.org/2000/svg">
<path d="M20.1533 1.25506C20.9129 0.496432 21.9292 0.0500399 23.0018 0.00395867C24.0743 -0.0421226 25.1252 0.315453 25.9471 1.00614L26.2217 1.25721L30.2989 5.33228H36.0626C37.145 5.33248 38.1874 5.74166 38.9808 6.47784C39.7743 7.21403 40.2603 8.22285 40.3415 9.3022L40.3544 9.62409V15.388L44.4315 19.4652C45.1907 20.2249 45.6375 21.2417 45.6835 22.3148C45.7296 23.3879 45.3717 24.4393 44.6804 25.2613L44.4293 25.5338L40.3522 29.611V35.3749C40.3526 36.4577 39.9436 37.5006 39.2074 38.2945C38.4712 39.0885 37.4621 39.5748 36.3824 39.656L36.0626 39.6667H30.301L26.2239 43.744C25.4642 44.5032 24.4474 44.95 23.3743 44.996C22.3013 45.0421 21.2499 44.6842 20.4279 43.9929L20.1554 43.744L16.0783 39.6667H10.3124C9.22961 39.6671 8.18675 39.2581 7.39282 38.5219C6.59889 37.7857 6.11258 36.7765 6.03137 35.6968L6.02065 35.3749V29.611L1.94352 25.5338C1.1843 24.7741 0.73754 23.7573 0.691456 22.6842C0.645371 21.6111 1.00331 20.5598 1.6946 19.7377L1.94352 19.4652L6.02065 15.388V9.62409C6.02084 8.54169 6.43001 7.49933 7.16618 6.70584C7.90235 5.91235 8.91115 5.42634 9.99048 5.34516L10.3124 5.33228H16.0761L20.1533 1.25506ZM23.1875 4.29366L19.1104 8.37088C18.3976 9.08257 17.4572 9.52088 16.4538 9.60907L16.0761 9.62409H10.3124V15.388C10.3126 16.3963 9.95784 17.3726 9.31024 18.1455L9.05489 18.4244L4.97776 22.5017L9.05489 26.5767C9.76735 27.2892 10.2064 28.2297 10.2952 29.2334L10.3124 29.611V35.3749H16.0761C17.0845 35.3747 18.0607 35.7295 18.8336 36.3771L19.1125 36.6324L23.1875 40.7096L27.2646 36.6324C27.9771 35.92 28.9175 35.4809 29.9212 35.3921L30.2989 35.3749H36.0626V29.611C36.0624 28.6027 36.4172 27.6264 37.0648 26.8535L37.3201 26.5746L41.3972 22.4995L37.3201 18.4223C36.6077 17.7098 36.1686 16.7694 36.0798 15.7657L36.0626 15.388V9.62409H30.2989C29.2905 9.62435 28.3143 9.26956 27.5414 8.62195L27.2625 8.36659L23.1854 4.28937L23.1875 4.29366ZM29.7967 16.0275C30.1829 15.6426 30.7011 15.4192 31.246 15.4025C31.791 15.3859 32.3218 15.5773 32.7307 15.9379C33.1397 16.2985 33.396 16.8012 33.4477 17.3439C33.4994 17.8867 33.3426 18.4287 33.0091 18.8601L32.8288 19.0618L22.3571 29.5338C21.9482 29.9432 21.4033 30.1881 20.8257 30.2221C20.2481 30.2562 19.6782 30.0769 19.2241 29.7183L19.0181 29.5359L13.8595 24.3772C13.4705 23.9919 13.2435 23.4725 13.225 22.9254C13.2064 22.3782 13.3977 21.8447 13.7596 21.4339C14.1215 21.0231 14.6268 20.7663 15.1719 20.7158C15.7171 20.6654 16.2608 20.8252 16.692 21.1626L16.8937 21.3407L20.6876 25.1347L29.7967 16.0275Z" fill="#B3B3B3"/>
</svg>
