<svg width="81" height="80" viewBox="0 0 81 80" fill="none" xmlns="http://www.w3.org/2000/svg">
<g clip-path="url(#clip0_512_515)">
<rect x="0.5" width="80" height="80" rx="40" fill="#E6E6E6"/>
<path d="M16.7737 18.2268C16.5778 18.3402 16.3232 18.6186 16.2057 18.8247C16 19.2165 16 19.2577 16 28C16 36.7629 16 36.7835 16.2057 37.1753C16.3232 37.3918 16.5778 37.6598 16.7835 37.7835C17.1557 38 17.1753 38 25.5098 38H33.8737L34.2557 37.7629C34.4613 37.6392 34.716 37.3711 34.8139 37.1753C34.9902 36.8351 35 36.3918 35 28C35 19.6082 34.9902 19.1649 34.8139 18.8247C34.716 18.6289 34.4613 18.3608 34.2557 18.2371L33.8737 18H25.5C17.1557 18 17.1263 18.0103 16.7737 18.2268Z" fill="#B3B3B3"/>
<path d="M39.9366 16.2722C39.6995 16.4082 39.3912 16.7423 39.249 16.9897C39 17.4598 39 17.5093 39 27.9505C39 38.1814 39 38.4536 39.2371 38.9485C39.3912 39.2701 39.6402 39.5546 39.9366 39.7278L40.399 40H50.5119H60.6366L61.099 39.7155C61.3479 39.567 61.6562 39.2454 61.7747 39.0103C61.9881 38.6021 62 38.0701 62 28C62 17.9299 61.9881 17.3979 61.7747 16.9897C61.6562 16.7546 61.3479 16.433 61.099 16.2845L60.6366 16H50.5C40.399 16 40.3634 16.0124 39.9366 16.2722ZM54.2938 23.9423C55.1356 24.4 55.5031 25.5258 55.0763 26.367C54.9814 26.5526 53.9263 27.7155 52.7289 28.9402C50.7845 30.9567 50.5119 31.2041 50.0613 31.2784C49.267 31.4144 48.7216 31.0557 47.2753 29.5216C46.5758 28.7794 45.9474 28.0247 45.8881 27.8268C45.3191 26.2928 46.718 24.8206 48.1881 25.4021C48.3541 25.4639 48.7928 25.8103 49.1485 26.1691L49.8005 26.8124L51.1876 25.3649C52.883 23.5959 53.2861 23.4103 54.2938 23.9423Z" fill="#B3B3B3"/>
<path d="M49.3642 42.12C48.4439 42.41 47.9972 42.6749 47.3611 43.3432C46.2107 44.5413 46.2783 43.7342 46.2107 56.2821C46.1565 66.9509 46.1565 67.4175 45.8994 67.7958C45.2824 68.2521 44.7651 68.2521 44.0418 67.7706C43.7441 67.2283 43.7305 65.5413 43.7305 61.8211V58L41.5006 58.3279C40.675 58.8702 39.6329 59.9421 39.1321 60.7492C37.6568 63.1453 37.5889 72.041 39.1319 76.3666C39.9846 78.75 41.3245 81.9028 41.6628 82.3063C42.2584 83.0125 42.0418 82.9999 52.3416 82.9999C62.7362 82.9999 62.4249 83.0251 63.0069 82.2559C63.1422 82.0793 63.8054 80.5912 64.4686 78.9644C66.8507 73.1634 67.2163 67.4175 66.905 65.8537C66.5396 64.0252 65.1861 62.3605 63.4537 61.566C62.7093 61.2255 61.6265 60.9481 58.676 60.3428L53.7416 59.5609L53.701 52.2466C53.6604 44.9323 53.6604 44.9196 53.3491 44.3395C52.5911 42.9019 52.4366 42.0822 50.8124 42.0065C50.2846 41.9813 49.6755 42.0317 49.3642 42.12Z" fill="#B3B3B3"/>
<path d="M16.7737 42.2155C16.5778 42.3232 16.3232 42.5876 16.2057 42.7835C16 43.1557 16 43.1948 16 51.5C16 59.8247 16 59.8443 16.2057 60.2165C16.3232 60.4222 16.5778 60.6768 16.7835 60.7943C17.1557 61 17.1753 61 25.5098 61H33.8737L34.2557 60.7747C34.4613 60.6572 34.716 60.4026 34.8139 60.2165C34.9902 59.8933 35 59.4722 35 51.5C35 43.5278 34.9902 43.1067 34.8139 42.7835C34.716 42.5974 34.4613 42.3428 34.2557 42.2253L33.8737 42H25.5C17.1557 42 17.1263 42.0098 16.7737 42.2155Z" fill="#B3B3B3"/>
</g>
<defs>
<clipPath id="clip0_512_515">
<rect x="0.5" width="80" height="80" rx="40" fill="white"/>
</clipPath>
</defs>
</svg>
