<svg width="30" height="30" viewBox="0 0 30 30" fill="none" xmlns="http://www.w3.org/2000/svg">
<path d="M7.92976 22.0711C7.53924 21.6806 7.53924 21.0474 7.92976 20.6569L20.6577 7.92899C21.0482 7.53846 21.6814 7.53846 22.0719 7.92899C22.4624 8.31951 22.4624 8.95267 22.0719 9.3432L9.34398 22.0711C8.95345 22.4616 8.32029 22.4616 7.92976 22.0711Z" fill="currentColor"/>
<path d="M22.0702 22.0711C22.4608 21.6806 22.4608 21.0474 22.0702 20.6569L9.34232 7.92899C8.95179 7.53846 8.31863 7.53846 7.9281 7.92899C7.53758 8.31951 7.53758 8.95267 7.9281 9.3432L20.656 22.0711C21.0465 22.4616 21.6797 22.4616 22.0702 22.0711Z" fill="currentColor"/>
</svg>
