<svg width="46" height="45" viewBox="0 0 46 45" fill="none" xmlns="http://www.w3.org/2000/svg">
<g clip-path="url(#clip0_837_4634)">
<path d="M38.4687 35.3437C38.4687 36.7113 37.9254 38.0228 36.9584 38.9897C35.9915 39.9567 34.6799 40.5 33.3124 40.5C31.9449 40.5 30.6334 39.9567 29.6664 38.9897C28.6994 38.0228 28.1562 36.7113 28.1562 35.3437C28.1562 33.9762 28.6994 32.6647 29.6664 31.6977C30.6334 30.7307 31.9449 30.1875 33.3124 30.1875C34.6799 30.1875 35.9915 30.7307 36.9584 31.6977C37.9254 32.6647 38.4687 33.9762 38.4687 35.3437ZM17.8437 35.3437C17.8437 36.7113 17.3005 38.0228 16.3335 38.9897C15.3665 39.9567 14.055 40.5 12.6875 40.5C11.32 40.5 10.0085 39.9567 9.04148 38.9897C8.07449 38.0228 7.53125 36.7113 7.53125 35.3437C7.53125 33.9762 8.07449 32.6647 9.04148 31.6977C10.0085 30.7307 11.32 30.1875 12.6875 30.1875C14.055 30.1875 15.3665 30.7307 16.3335 31.6977C17.3005 32.6647 17.8437 33.9762 17.8437 35.3437Z" stroke="#B3B3B3" stroke-width="3.09374" stroke-linecap="round" stroke-linejoin="round"/>
<path d="M28.1562 35.3437H17.8437M2.375 7.5H22.9999C25.9163 7.5 27.3745 7.5 28.2799 8.4075C29.1874 9.31087 29.1874 10.7691 29.1874 13.6875V31.2187M30.2187 12.6562H33.9332C35.6451 12.6562 36.501 12.6562 37.2105 13.0584C37.92 13.4585 38.3593 14.1928 39.24 15.6613L42.7442 21.4981C43.1814 22.2283 43.4001 22.5954 43.5135 22.9996C43.6249 23.406 43.6249 23.8308 43.6249 24.6826V30.1874C43.6249 32.1159 43.6249 33.0791 43.2103 33.7968C42.9388 34.2671 42.5483 34.6576 42.078 34.9291C41.3603 35.3437 40.3971 35.3437 38.4686 35.3437M2.375 26.0624V30.1874C2.375 32.1159 2.375 33.0791 2.78956 33.7968C3.06108 34.2671 3.4516 34.6576 3.92187 34.9291C4.63962 35.3437 5.6028 35.3437 7.53124 35.3437M2.375 13.6875H14.75M2.375 19.875H10.625" stroke="#B3B3B3" stroke-width="3.09374" stroke-linecap="round" stroke-linejoin="round"/>
</g>
<defs>
<clipPath id="clip0_837_4634">
<rect width="45" height="45" fill="white" transform="translate(0.5)"/>
</clipPath>
</defs>
</svg>
