<svg width="80" height="80" viewBox="0 0 80 80" fill="none" xmlns="http://www.w3.org/2000/svg">
<rect width="80" height="80" rx="40" fill="#E6E6E6"/>
<path d="M14.4676 15.7251C12.8443 16.0304 11.7482 17.3484 11.7344 19.0411C11.7344 20.04 12.0257 20.7615 12.7056 21.4552C14.3566 23.0924 17.1454 22.6207 18.1582 20.5118C18.505 19.818 18.5467 18.4445 18.2553 17.7369C17.6587 16.294 16.0354 15.4338 14.4676 15.7251Z" fill="#B3B3B3"/>
<path d="M37.8516 12.0544C26.1887 12.8058 16.5922 22.3866 15.8095 34.0495C15.4964 38.699 16.3574 42.8788 18.4708 46.9334C19.6763 49.266 20.9913 51.0193 23.0107 52.9762C24.905 54.7922 26.8462 56.1698 29.1005 57.2813C29.9772 57.704 30.8069 58.1423 30.9165 58.2362C31.0887 58.3771 31.1356 58.9407 31.1356 60.5845V62.7605H32.7011H34.2666V47.6222V32.484L36.6461 28.5076C39.057 24.4687 39.464 23.9834 39.9806 24.4061C40.1215 24.5156 41.2956 26.3786 42.6106 28.5389L44.9902 32.4683L45.0371 47.6066L45.0685 62.7605H46.5557H48.0429V60.741C48.0429 59.6295 48.0898 58.5963 48.1368 58.4711C48.1994 58.3302 48.9822 57.8449 49.9058 57.3909C52.0349 56.3263 53.4125 55.434 55.1658 53.9625C59.0169 50.7062 61.8348 46.0098 62.9307 41.0002C65.3572 29.854 59.5805 18.5355 49.1074 13.9486C45.6007 12.4144 41.9375 11.8039 37.8516 12.0544ZM42.4541 16.8135C44.1918 17.0796 46.7279 17.878 48.2307 18.6294C51.8157 20.4454 54.9936 23.639 56.8096 27.2396C58.0307 29.6974 58.8447 32.8284 58.8447 35.1453C58.8447 36.6795 59.0326 36.6169 54.2735 36.6169C50.6886 36.6169 50.1406 36.5856 49.8902 36.3507C49.5457 36.0376 49.5301 35.7089 49.8745 35.3332C50.1093 35.0827 50.4381 35.0514 53.7256 35.0514H57.3262L57.2166 33.9242C56.8253 30.0575 54.9623 26.1907 52.0662 23.2946C49.4831 20.7272 46.18 19.0208 42.5793 18.3946C37.8829 17.5962 32.9046 18.7703 29.0848 21.6038C27.034 23.1224 24.8424 25.7211 23.7152 27.9754C22.8699 29.6504 21.8992 33.2354 21.8992 34.6757V35.0514H25.4529C28.5369 35.0514 29.0379 35.0827 29.2883 35.3175C29.6328 35.6306 29.6484 36.0376 29.3197 36.3664C28.9596 36.7421 20.9443 36.7421 20.5842 36.3664C20.2711 36.0533 20.2555 34.9888 20.5529 33.0162C21.1791 28.8677 23.0107 25.2984 26.0321 22.277C30.4312 17.8623 36.3643 15.8898 42.4541 16.8135Z" fill="#B3B3B3"/>
<path d="M62.3475 19.1796C61.5705 19.4849 61.3346 20.7335 61.9312 21.3301C62.3752 21.7741 62.8886 21.8851 63.4158 21.677C63.9569 21.455 64.2344 21.0388 64.2344 20.4561C64.2344 19.8456 64.0401 19.5126 63.5406 19.249C63.0967 19.0131 62.7914 18.9993 62.3475 19.1796Z" fill="#B3B3B3"/>
<path d="M39.2441 27.1612C39.0249 27.5056 38.1483 28.9771 37.2716 30.433L35.6748 33.0944V34.8634V36.6167H39.5885H43.5022V34.832V33.0317L41.561 29.8068L39.6198 26.5663L39.2441 27.1612Z" fill="#B3B3B3"/>
<path d="M35.6748 50.4714V62.7605H37.2403H38.8058V50.4714V38.1824H37.2403H35.6748V50.4714Z" fill="#B3B3B3"/>
<path d="M40.3711 50.4714V62.7605H41.9366H43.5021V50.4714V38.1824H41.9366H40.3711V50.4714Z" fill="#B3B3B3"/>
<path d="M66.442 56.8207C64.3054 57.6255 63.2093 59.5679 63.7365 61.649C64.1389 63.2029 65.2627 64.3267 66.7472 64.6875C70.0909 65.4922 72.8519 61.982 71.298 58.888C70.6043 57.4728 69.5082 56.7653 67.9127 56.682C67.3161 56.6543 66.7472 56.7098 66.442 56.8207Z" fill="#B3B3B3"/>
<path d="M29.5693 66.6742V69.0225H39.5885H49.6076V66.6742V64.326H39.5885H29.5693V66.6742Z" fill="#B3B3B3"/>
<path d="M11.6241 65.0899C10.6113 65.4923 9.91755 66.1166 9.44583 67.0739C7.89191 70.1818 10.639 73.6781 13.9966 72.8734C15.495 72.5127 16.605 71.3888 17.0073 69.8072C17.2154 69.0163 17.2154 68.8637 17.0073 68.059C16.3969 65.5616 13.9134 64.202 11.6241 65.0899Z" fill="#B3B3B3"/>
<path d="M29.5693 72.2315C29.5693 73.1552 29.6476 74.0318 29.7572 74.2667C30.1486 75.1277 30.0546 75.1277 39.5728 75.1277C46.0383 75.1277 48.4491 75.0807 48.7466 74.9398C49.4354 74.6267 49.6076 74.0632 49.6076 72.2315V70.5878H39.5885H29.5693V72.2315Z" fill="#B3B3B3"/>
<path d="M37.2716 77.9458C37.3499 79.6835 37.4125 79.7461 39.6042 79.7461C41.2323 79.7461 41.3575 79.7304 41.6393 79.3704C41.8741 79.0886 41.9368 78.7598 41.9368 77.8519V76.6934H39.5729H37.209L37.2716 77.9458Z" fill="#B3B3B3"/>
</svg>
