<svg width="80" height="80" viewBox="0 0 80 80" fill="none" xmlns="http://www.w3.org/2000/svg">
<rect width="80" height="80" rx="40" fill="#E6E6E6"/>
<path d="M40.3868 8.10023C38.1604 8.32187 35.4151 9.07743 33.5755 9.97404L33 10.2561L34.4434 13.5202C35.2453 15.3134 35.9151 16.8044 35.9434 16.8245C35.9717 16.8547 36.3019 16.7439 36.6792 16.5727C38.4151 15.807 40.3113 15.4141 42.4151 15.4141C45.7075 15.404 48.5472 16.3309 51.1887 18.2853C51.6321 18.6076 52.1226 18.9804 52.2736 19.1214L52.5566 19.3733L50.8585 21.1866L49.1604 23H55.0849H61V16.6835V10.3569L59.2358 12.2407L57.4623 14.1246L56.6604 13.4194C55.1038 12.0393 53.0283 10.6893 51.283 9.92367C47.7736 8.36216 44.0283 7.73756 40.3868 8.10023Z" fill="#B3B3B3"/>
<path d="M12.2371 19.7642L14.1217 21.5377L13.4061 22.3396C9.49604 26.7264 7.53092 32.6887 8.09526 38.4717C8.32704 40.8679 9.03247 43.5094 9.96969 45.4245L10.2519 46L13.517 44.5566C15.3108 43.7547 16.8023 43.0849 16.8224 43.0566C16.8527 43.0283 16.7418 42.6981 16.5705 42.3208C15.1193 39.0566 15.0085 34.8868 16.2682 31.4906C16.8426 29.9434 18.0519 27.9245 19.1201 26.7264L19.3721 26.4434L21.186 28.1415L23 29.8396V23.9151V18H16.6814H10.3526L12.2371 19.7642Z" fill="#B3B3B3"/>
<path d="M65.4845 32.5888C63.6904 33.4667 62.1987 34.2088 62.1785 34.2402C62.1483 34.2715 62.2592 34.6373 62.4305 35.0554C62.8337 36.0588 63.2167 37.4802 63.4183 38.7553C63.6199 39.9991 63.6501 42.6643 63.4687 43.8662C63.1864 45.758 62.4104 48.2037 61.6141 49.6669C61.2815 50.3045 60.2736 51.8409 59.8805 52.3321L59.6285 52.6457L57.8143 50.7644L56 48.8831V55.4468V62H62.3196H68.6494L66.7646 60.0351L64.8797 58.0806L65.5853 57.1922C71.2095 50.1477 72.5702 40.344 69.113 31.8049C68.9417 31.3764 68.7905 31.0106 68.7703 31.0001C68.7602 30.9897 67.2786 31.7004 65.4845 32.5888Z" fill="#B3B3B3"/>
<path d="M18 62.319V68.648L19.9003 66.7634L21.7904 64.8788L22.6496 65.5944C24.2466 66.9146 26.6523 68.3759 28.5121 69.1318C34.6173 71.6211 41.1065 71.6211 47.1206 69.1418L48 68.779L47.6664 68.0635C47.0701 66.7533 44.8868 62.2182 44.8464 62.1678C44.816 62.1476 44.4623 62.2585 44.058 62.4298C43.0876 62.833 41.7129 63.2159 40.4798 63.4175C39.2668 63.619 36.6894 63.6493 35.5371 63.4679C33.6166 63.1756 31.403 62.4399 29.9272 61.6135C29.3208 61.2809 27.8248 60.2731 27.3497 59.8801L27.0465 59.6281L28.8659 57.8141L30.6853 56H24.3376H18V62.319Z" fill="#B3B3B3"/>
<path d="M37.894 30.5969C34.4331 31.2548 31.7292 33.7965 30.7738 37.2935C30.4854 38.339 30.4854 40.5742 30.7738 41.6377C31.6751 44.9455 33.9914 47.2888 37.2361 48.1901C38.0382 48.4154 38.2816 48.4425 39.5344 48.4425C40.7872 48.4425 41.0305 48.4154 41.8327 48.1901C44.0138 47.5862 45.8254 46.2884 47.0512 44.4497C47.601 43.6206 47.9615 42.8184 48.2589 41.7459C48.4752 40.9707 48.5022 40.7094 48.5022 39.4746C48.5022 38.2218 48.4752 37.9785 48.2499 37.1763C47.3576 33.9497 44.9962 31.6063 41.7425 30.7321C40.7962 30.4797 38.8854 30.4076 37.894 30.5969Z" fill="#B3B3B3"/>
<path d="M37.2037 25.1137C36.6411 27.6167 36.5148 28.0759 36.3196 28.2596C35.9637 28.5926 33.8856 29.4193 33.61 29.3274C33.4722 29.2815 32.5996 28.7763 31.6811 28.1907L29.9933 27.123L28.5581 28.5811L27.1115 30.0278L28.1907 31.7385C28.8567 32.7833 29.2815 33.5756 29.2815 33.7593C29.2815 34.1381 28.5122 36.0441 28.2481 36.3311C28.053 36.5263 27.3411 36.7215 24.8956 37.2611L24 37.4563V41.5437L24.8956 41.7389C27.3411 42.2785 28.053 42.4737 28.2481 42.6689C28.5122 42.9559 29.2815 44.8619 29.2815 45.2407C29.2815 45.4244 28.8567 46.2167 28.1907 47.2615L27.1115 48.9722L28.5581 50.4189L29.9933 51.877L31.6811 50.8093C32.5996 50.2237 33.4722 49.7185 33.61 49.6726C33.8856 49.5807 35.9637 50.4074 36.3196 50.7404C36.5148 50.9241 36.6411 51.3833 37.2037 53.8748L37.4563 55H39.4426C40.5448 55 41.4633 54.9541 41.4978 54.9081C41.5207 54.8622 41.7389 53.9896 41.9685 52.9907C42.1867 51.9804 42.4278 51.0389 42.4967 50.9011C42.5656 50.7748 42.8181 50.5796 43.0478 50.4878C43.2774 50.3844 43.84 50.1433 44.2993 49.9481C44.8159 49.73 45.2293 49.6152 45.367 49.6611C45.4933 49.707 46.3659 50.2237 47.2844 50.8093L48.9722 51.8885L50.3844 50.4878C51.1537 49.7185 51.7852 49.0411 51.7852 48.9837C51.7852 48.9263 51.3144 48.1341 50.7404 47.227C50.1663 46.3085 49.6726 45.4704 49.6381 45.3556C49.5922 45.1719 50.0859 43.8056 50.5452 42.8641C50.7059 42.5311 50.947 42.4507 53.0367 41.9685C54.0011 41.7504 54.8393 41.5322 54.8967 41.4978C55.0344 41.4174 55.0344 37.5826 54.8967 37.5022C54.8393 37.4678 54.0011 37.2496 53.0367 37.0315C50.947 36.5493 50.7059 36.4689 50.5452 36.1359C50.0859 35.1944 49.5922 33.8281 49.6381 33.6444C49.6726 33.5296 50.1663 32.6915 50.7404 31.773C51.3144 30.8659 51.7852 30.0737 51.7852 30.0163C51.7852 29.9589 51.1537 29.2815 50.3844 28.5122L48.9722 27.1115L47.2844 28.1907C46.3659 28.7763 45.5048 29.293 45.3785 29.3274C45.0456 29.4307 42.6574 28.4089 42.4967 28.0874C42.4278 27.9611 42.1867 27.0196 41.9685 26.0093C41.7389 25.0104 41.5207 24.1378 41.4978 24.0919C41.4633 24.0459 40.5448 24 39.4426 24H37.4563L37.2037 25.1137ZM38.5815 31.3941C38.5815 31.8878 38.88 32.2437 39.3507 32.3356C39.6607 32.393 39.7756 32.347 40.0741 32.06C40.3037 31.8189 40.4185 31.6007 40.4185 31.3481C40.4185 31.0037 40.43 30.9922 40.8548 31.0726C42.1293 31.3022 43.0478 31.6926 44.6552 32.7144C44.7815 32.7948 44.77 32.8637 44.5748 33.1393C44.2074 33.6444 44.1959 34.0922 44.5519 34.4481C44.8504 34.7467 45.4704 34.7467 45.8607 34.4367C46.1593 34.1956 46.1822 34.1956 46.3315 34.4022C47.0319 35.3552 47.7667 37.0889 47.9159 38.1452C47.9848 38.5815 47.9733 38.5815 47.583 38.5815C47.0663 38.5815 46.6185 39.0063 46.6185 39.5C46.6185 39.9937 47.0663 40.4185 47.583 40.4185C47.9733 40.4185 47.9848 40.4185 47.9159 40.8433C47.7667 41.9111 47.0319 43.6448 46.3315 44.5978C46.1822 44.8044 46.1593 44.8044 45.8607 44.5633C44.8733 43.7941 43.7367 44.9881 44.5863 45.9067C44.8159 46.1593 44.8159 46.1593 44.5978 46.3315C43.7596 46.9859 42.0489 47.7093 40.8548 47.9274C40.43 48.0078 40.4185 47.9963 40.4185 47.6519C40.4185 47.4107 40.3152 47.1811 40.0856 46.9515C39.7067 46.5726 39.5115 46.5496 39.0522 46.7907C38.6848 46.9744 38.5815 47.1696 38.5815 47.6633C38.5815 47.847 38.5585 47.9963 38.5126 47.9963C37.7663 47.9963 35.1944 46.9974 34.4596 46.4119L34.1841 46.1822L34.4252 45.8722C35.1715 44.9193 34.0807 43.8285 33.1278 44.5748L32.8178 44.8159L32.5996 44.5404C32.1519 43.9548 31.4515 42.4507 31.2333 41.6126C30.9348 40.453 30.9348 40.4185 31.3596 40.4185C31.773 40.4185 32.3815 39.8789 32.3815 39.5C32.3815 39.1211 31.773 38.5815 31.3596 38.5815C30.9348 38.5815 30.9348 38.547 31.2333 37.3874C31.4515 36.5493 32.1519 35.0452 32.5996 34.4596L32.8178 34.1841L33.1278 34.4252C34.0807 35.1715 35.1715 34.0807 34.4252 33.1278L34.1841 32.8178L34.4596 32.5996C34.9878 32.1748 36.6181 31.4285 37.4563 31.2219C38.593 30.9463 38.5815 30.9463 38.5815 31.3941Z" fill="#B3B3B3"/>
</svg>
