<svg width="46" height="45" viewBox="0 0 46 45" fill="none" xmlns="http://www.w3.org/2000/svg">
<path d="M37.6182 5.90957L37.625 10.6854V29.2442H35.375V5.06149C35.375 3.7191 34.8416 2.43169 33.8922 1.48248C32.9428 0.533262 31.6552 0 30.3125 0H10.0625C8.71984 0 7.43217 0.533262 6.48277 1.48248C5.53337 2.43169 5 3.7191 5 5.06149V14.3499C3.64325 15.2587 2.75 16.8019 2.75 18.5588V37.68C2.75 38.6401 2.93914 39.5908 3.30663 40.4778C3.67412 41.3648 4.21275 42.1708 4.89178 42.8496C5.57081 43.5285 6.37693 44.0671 7.26413 44.4345C8.15132 44.8019 9.10221 44.991 10.0625 44.991H15.3882C15.4917 44.997 15.596 45 15.701 45H30.3125C30.4655 45 30.617 44.997 30.767 44.991H35.9375C36.8978 44.991 37.8487 44.8019 38.7359 44.4345C39.6231 44.0671 40.4292 43.5285 41.1082 42.8496C41.7872 42.1708 42.3259 41.3648 42.6934 40.4778C43.0609 39.5908 43.25 38.6401 43.25 37.68V34.3056C43.25 32.551 42.3568 31.0056 41 30.0967V10.6854C41.0003 9.63722 40.6751 8.61483 40.0693 7.75936C39.4636 6.9039 38.6071 6.25755 37.6182 5.90957ZM8.375 13.4973V5.06149C8.375 4.61402 8.55279 4.18489 8.86926 3.86848C9.18572 3.55208 9.61495 3.37433 10.0625 3.37433H30.3125C30.76 3.37433 31.1893 3.55208 31.5057 3.86848C31.8222 4.18489 32 4.61402 32 5.06149V29.2442H31.784C31.5517 29.2442 31.3218 29.1962 31.1089 29.1033C30.8959 29.0104 30.7045 28.8746 30.5465 28.7043L17.924 15.117C17.4508 14.6069 16.8775 14.1998 16.2399 13.9211C15.6023 13.6424 14.9141 13.4981 14.2183 13.4973H8.375ZM6.125 18.5588C6.125 18.1113 6.30279 17.6822 6.61926 17.3658C6.93572 17.0494 7.36495 16.8716 7.8125 16.8716H14.216C14.4483 16.8716 14.6782 16.9195 14.8911 17.0124C15.1041 17.1053 15.2955 17.2412 15.4535 17.4115L28.076 31.001C28.5496 31.511 29.1234 31.9179 29.7614 32.1962C30.3994 32.4745 31.0879 32.6182 31.784 32.6185H38.1875C38.6351 32.6185 39.0643 32.7962 39.3807 33.1126C39.6972 33.429 39.875 33.8582 39.875 34.3056V37.68C39.875 38.724 39.4602 39.7254 38.7217 40.4636C37.9833 41.2019 36.9818 41.6167 35.9375 41.6167H10.0625C9.01821 41.6167 8.01669 41.2019 7.27827 40.4636C6.53984 39.7254 6.125 38.724 6.125 37.68V18.5588Z" fill="#B3B3B3"/>
<path d="M29 13.4973H20.375L23.375 16.5H29L29 13.4973Z" fill="#B3B3B3"/>
<path d="M29 7.75936H11V10.6854H29V7.75936Z" fill="#B3B3B3"/>
</svg>
