<svg width="198" height="43" viewBox="0 0 198 43" fill="none" xmlns="http://www.w3.org/2000/svg">
<path d="M26.8984 5.14136H35.0511C39.0004 5.14136 40.7456 7.09963 40.7456 9.40204C40.7456 11.1514 39.828 12.3968 38.5129 12.9376C39.7419 13.3718 41.1963 14.523 41.1963 16.6411C41.1963 19.3286 39.193 21.5245 35.1043 21.5245H26.8984V5.14136ZM34.2399 11.4586C35.5632 11.4586 36.0958 10.7786 36.0958 9.88956C36.0958 8.87355 35.3583 8.37374 34.203 8.37374H31.5606V11.4586H34.2399ZM31.5606 18.2962H34.0146C35.5919 18.2962 36.2637 17.612 36.2637 16.4363C36.2637 15.408 35.6287 14.6787 34.1006 14.6787H31.5606V18.2962Z" fill="black"/>
<path d="M54.687 14.8918H47.2226V17.9644H55.5555L55.0188 21.5245H42.6055V5.14136H55.0024V8.69739H47.2226V11.3357H54.687V14.8918Z" fill="black"/>
<path d="M61.4425 18.3372L60.492 21.5245H55.8135L60.9918 5.14136H67.2067L72.5899 21.5245H67.5754L66.5799 18.3372H61.4425ZM65.7441 14.777C64.9739 12.2043 64.343 9.91414 63.9743 8.31638H63.9088C63.5319 10.0821 62.905 12.4214 62.2373 14.777H65.7441Z" fill="black"/>
<path d="M77.67 5.14136V15.2113C77.67 17.5588 78.8253 18.3618 80.2797 18.3618C81.8569 18.3618 82.7705 17.399 82.7705 15.2113V5.14136H87.5925V14.732C87.5925 20.1766 84.3724 21.8318 80.1977 21.8318C75.8715 21.8318 72.8604 20.0783 72.8604 14.7566V5.14136H77.67Z" fill="black"/>
<path d="M93.3526 8.69739H88.6699V5.14136H102.8V8.69739H98.1581V21.5245H93.3526V8.69739Z" fill="black"/>
<path d="M108.769 21.5245V15.8504C108.769 15.6333 108.753 15.4776 108.601 15.2277L102.997 5.14136H108.421C109.466 7.45196 110.642 10.1108 111.4 11.983C112.063 10.1886 113.444 7.24712 114.411 5.14136H119.417L113.739 15.2072C113.657 15.3424 113.587 15.4899 113.587 15.8217V21.5245H108.769Z" fill="black"/>
<path d="M124.107 5.14136H131.699C135.394 5.14136 137.881 7.19795 137.881 10.3976C137.881 14.0806 135.054 15.7726 131.584 15.7726H128.843V21.5245H124.107V5.14136ZM128.847 12.3886H130.806C132.162 12.3886 133.124 11.8232 133.124 10.4549C133.124 9.05381 132.154 8.50893 130.818 8.50893H128.847V12.3886Z" fill="black"/>
<path d="M139.217 5.14136H144.031V17.9644H151.753L151.233 21.5245H139.217V5.14136Z" fill="black"/>
<path d="M157.558 18.3372L156.607 21.5245H151.929L157.107 5.14136H163.322L168.705 21.5245H163.691L162.695 18.3372H157.558ZM161.855 14.777C161.085 12.2043 160.454 9.91414 160.085 8.31638H160.02C159.643 10.0821 159.016 12.4214 158.348 14.777H161.855Z" fill="black"/>
<path d="M173.334 16.559C173.609 17.9888 174.608 18.587 176.157 18.587C177.611 18.587 178.279 18.079 178.279 17.1285C178.279 16.051 177.554 15.6455 174.965 15.0268C170.131 13.8552 169.168 12.0935 169.168 9.88535C169.168 7.13639 171.188 4.83398 175.747 4.83398C180.487 4.83398 182.425 7.23881 182.654 9.8239H178.017C177.89 8.94308 177.439 8.04998 175.739 8.04998C174.641 8.04998 173.965 8.46376 173.965 9.35276C173.965 10.2418 174.563 10.5859 177.091 11.2045C182.142 12.4663 183.142 14.2853 183.142 16.6123C183.142 19.689 180.77 21.8275 175.96 21.8275C171.429 21.8275 169.028 19.7136 168.668 16.559H173.334Z" fill="black"/>
<path d="M187.756 8.69739H183.073V5.14136H197.203V8.69739H192.561V21.5245H187.756V8.69739Z" fill="black"/>
<path d="M26.8984 25.6582H196.977" stroke="#1D1D1B" stroke-width="0.699735" stroke-miterlimit="10"/>
<path d="M26.8984 28.989H30.6552C32.7159 28.989 33.8261 30.0829 33.8261 31.6356C33.8261 32.9138 33.0559 33.7454 32.1628 33.9912C32.933 34.2083 34.2112 34.9622 34.2112 36.6541C34.2112 38.8091 32.593 39.7636 30.7167 39.7636H26.8984V28.989ZM30.3807 33.6266C32.2448 33.6266 32.9494 32.9342 32.9494 31.6847C32.9494 30.6236 32.212 29.7592 30.7044 29.7592H27.7178V33.6225H30.3807V33.6266ZM27.7178 38.9975H30.7494C32.1669 38.9975 33.3509 38.2888 33.3509 36.7033C33.3509 35.335 32.4742 34.3927 30.3029 34.3927H27.7178V38.9975Z" fill="black"/>
<path d="M36.5835 36.0109C36.5998 37.9979 37.5995 39.2269 39.0784 39.2269C40.5246 39.2269 41.0162 38.4117 41.2948 37.7808H42.0814C41.7577 38.7968 40.9425 39.9521 39.0456 39.9521C36.7064 39.9521 35.7969 37.9364 35.7969 35.9782C35.7969 33.7782 36.8907 31.8813 39.1399 31.8813C41.5119 31.8813 42.2657 33.9298 42.2657 35.3759C42.2657 35.5931 42.2657 35.8061 42.2493 36.0068H36.5835V36.0109ZM41.4628 35.335C41.4464 33.8109 40.6147 32.6106 39.1071 32.6106C37.5216 32.6106 36.7965 33.7208 36.6285 35.335H41.4628Z" fill="black"/>
<path d="M49.4225 38.3051C49.4225 38.9811 49.484 39.5219 49.529 39.7677H48.7916C48.7301 39.5833 48.6851 39.2433 48.6523 38.5837C48.3901 39.1532 47.71 39.9521 46.1287 39.9521C44.3425 39.9521 43.5723 38.7968 43.5723 37.6415C43.5723 35.9495 44.8832 35.1793 47.1897 35.1793C47.837 35.1793 48.345 35.1793 48.6523 35.1793V34.3927C48.6523 33.6225 48.4229 32.5901 46.6654 32.5901C45.1127 32.5901 44.8791 33.4054 44.7112 34.0363H43.941C44.0352 33.1882 44.5555 31.8813 46.6817 31.8813C48.4352 31.8813 49.4225 32.6188 49.4225 34.3148V38.3051ZM48.6687 35.843C48.3778 35.843 47.6691 35.843 47.1611 35.843C45.4527 35.843 44.3875 36.2895 44.3875 37.6128C44.3875 38.5837 45.0799 39.2433 46.1573 39.2433C48.3573 39.2433 48.6646 37.7807 48.6646 36.1174V35.843H48.6687Z" fill="black"/>
<path d="M57.6287 37.5186C57.6287 38.2724 57.645 39.4728 57.645 39.7677H56.9076C56.8748 39.567 56.8625 39.059 56.8625 38.4281C56.5389 39.3376 55.7523 39.9521 54.384 39.9521C53.2737 39.9521 51.8604 39.5219 51.8604 37.1663V32.0698H52.6142V36.9819C52.6142 38.1044 52.9665 39.1983 54.4905 39.1983C56.2153 39.1983 56.8625 38.2273 56.8625 36.0273V32.0698H57.6328V37.5186H57.6287Z" fill="black"/>
<path d="M59.1816 32.0699H60.6155V29.6692H61.3857V32.0699H63.217V32.7951H61.3857V37.7973C61.3857 38.6576 61.5701 39.1533 62.3116 39.1533C62.541 39.1533 62.8647 39.1369 63.1105 39.0591V39.735C62.8483 39.8416 62.4796 39.8743 62.1559 39.8743C61.1686 39.8743 60.6155 39.3827 60.6155 38.1496V32.7951H59.1816V32.0699Z" fill="black"/>
<path d="M65.0435 32.0698C66.6003 36.4738 67.2763 38.2887 67.5385 39.1204H67.5549C67.8621 38.1822 68.4808 36.396 69.972 32.0698H70.7709L67.8744 40.2142C67.0592 42.492 66.5061 43.0001 65.1173 43.0001C64.8387 43.0001 64.6543 42.9837 64.4085 42.955V42.1848C64.638 42.2176 64.8551 42.2299 65.1009 42.2299C66.2111 42.2299 66.5635 41.6932 67.1329 40.1036L64.1914 32.0657H65.0435V32.0698Z" fill="black"/>
<path d="M76.2529 28.4197H77.0231V29.915H76.2529V28.4197ZM76.2529 32.0699H77.0231V39.7678H76.2529V32.0699Z" fill="black"/>
<path d="M79.4692 37.6456C79.7314 38.6452 80.4401 39.2475 81.6528 39.2475C83.0252 39.2475 83.5783 38.6166 83.5783 37.7521C83.5783 36.8754 83.2096 36.4452 81.4848 36.0274C79.4979 35.548 79.0063 34.9499 79.0063 33.9339C79.0063 32.8728 79.8051 31.8855 81.5463 31.8855C83.2874 31.8855 84.115 32.9466 84.242 34.0404H83.4718C83.3325 33.3931 82.8245 32.5942 81.5176 32.5942C80.178 32.5942 79.7928 33.2579 79.7928 33.8724C79.7928 34.5812 80.1616 34.9335 81.6856 35.3022C83.8569 35.8266 84.3977 36.5354 84.3977 37.6866C84.3977 39.0877 83.2587 39.948 81.6405 39.948C79.8871 39.948 78.8997 39.0262 78.6826 37.6374H79.4692V37.6456Z" fill="black"/>
<path d="M90.3086 28.4197H91.0788V29.915H90.3086V28.4197ZM90.3086 32.0699H91.0788V39.7678H90.3086V32.0699Z" fill="black"/>
<path d="M93.6033 34.0117C93.6033 33.3358 93.6033 32.6885 93.5869 32.0699H94.3407C94.3694 32.3157 94.3858 33.3153 94.3694 33.5324C94.7094 32.7458 95.3403 31.8855 96.9258 31.8855C98.2982 31.8855 99.5109 32.6557 99.5109 34.7819V39.7719H98.7407V34.9048C98.7407 33.5365 98.1712 32.6434 96.8316 32.6434C95.0003 32.6434 94.3694 34.1674 94.3694 35.8471V39.7719H93.5992V34.0117H93.6033Z" fill="black"/>
<path d="M106.208 36.0109C106.225 37.9979 107.224 39.2269 108.703 39.2269C110.15 39.2269 110.641 38.4117 110.92 37.7808H111.706C111.383 38.7968 110.567 39.9521 108.671 39.9521C106.331 39.9521 105.422 37.9364 105.422 35.9782C105.422 33.7782 106.516 31.8813 108.765 31.8813C111.137 31.8813 111.891 33.9298 111.891 35.3759C111.891 35.5931 111.891 35.8061 111.874 36.0068H106.208V36.0109ZM111.092 35.335C111.075 33.8109 110.244 32.6106 108.736 32.6106C107.151 32.6106 106.426 33.7208 106.258 35.335H111.092Z" fill="black"/>
<path d="M113.8 32.0698C115.049 35.5972 115.91 37.9979 116.201 38.9811H116.217C116.385 38.4117 117.249 36.1175 118.741 32.0698H119.556L116.643 39.7677H115.721L112.98 32.0698H113.8Z" fill="black"/>
<path d="M121.235 36.0109C121.251 37.9979 122.251 39.2269 123.73 39.2269C125.176 39.2269 125.668 38.4117 125.946 37.7808H126.733C126.409 38.7968 125.594 39.9521 123.697 39.9521C121.358 39.9521 120.448 37.9364 120.448 35.9782C120.448 33.7782 121.542 31.8813 123.791 31.8813C126.163 31.8813 126.917 33.9298 126.917 35.3759C126.917 35.5931 126.917 35.8061 126.901 36.0068H121.235V36.0109ZM126.114 35.335C126.098 33.8109 125.266 32.6106 123.758 32.6106C122.173 32.6106 121.448 33.7208 121.28 35.335H126.114Z" fill="black"/>
<path d="M128.795 34.1633C128.795 32.8687 128.778 32.3157 128.778 32.0699H129.532C129.549 32.3157 129.561 32.8073 129.561 33.7946C130.007 32.6393 130.995 31.947 132.24 31.8855V32.7171C130.638 32.8237 129.561 33.9339 129.561 35.7652V39.7678H128.791V34.1633H128.795Z" fill="black"/>
<path d="M134.058 32.0698C135.615 36.4738 136.291 38.2887 136.553 39.1204H136.57C136.877 38.1822 137.495 36.396 138.987 32.0698H139.786L136.889 40.2142C136.074 42.492 135.521 43.0001 134.132 43.0001C133.853 43.0001 133.669 42.9837 133.423 42.955V42.1848C133.653 42.2176 133.87 42.2299 134.116 42.2299C135.226 42.2299 135.578 41.6932 136.148 40.1036L133.206 32.0657H134.058V32.0698Z" fill="black"/>
<path d="M145.263 28.4197H146.033V33.3604C146.402 32.5902 147.156 31.8815 148.668 31.8815C150.487 31.8815 151.826 33.3768 151.826 35.7448C151.826 38.1783 150.626 39.9481 148.471 39.9481C147.176 39.9481 146.439 39.4237 146.037 38.547C146.037 39.0386 146.021 39.5466 146.009 39.7637H145.255C145.271 38.887 145.271 38.0062 145.271 37.1295V28.4197H145.263ZM151.007 35.7653C151.007 33.8398 150.052 32.6107 148.59 32.6107C146.664 32.6107 145.988 33.9176 145.988 35.9373C145.988 37.7522 146.59 39.2312 148.5 39.2312C150.052 39.2312 151.007 37.9366 151.007 35.7653Z" fill="black"/>
<path d="M160.057 35.9044C160.057 38.0429 158.873 39.9521 156.579 39.9521C154.502 39.9521 153.207 38.2437 153.207 35.9167C153.207 33.7167 154.424 31.8813 156.657 31.8813C158.705 31.8854 160.057 33.4873 160.057 35.9044ZM154.022 35.9208C154.022 37.7521 155.01 39.231 156.64 39.231C158.303 39.231 159.242 37.8627 159.242 35.9208C159.242 34.1059 158.316 32.6106 156.607 32.6106C154.854 32.6106 154.022 34.0731 154.022 35.9208Z" fill="black"/>
<path d="M160.812 32.0699H162.245V29.6692H163.016V32.0699H164.847V32.7951H163.016V37.7973C163.016 38.6576 163.2 39.1533 163.941 39.1533C164.171 39.1533 164.495 39.1369 164.74 39.0591V39.735C164.478 39.8416 164.109 39.8743 163.786 39.8743C162.798 39.8743 162.245 39.3827 162.245 38.1496V32.7951H160.812V32.0699Z" fill="black"/>
<path d="M165.321 32.0699H166.755V29.6692H167.525V32.0699H169.357V32.7951H167.525V37.7973C167.525 38.6576 167.71 39.1533 168.451 39.1533C168.681 39.1533 169.004 39.1369 169.25 39.0591V39.735C168.988 39.8416 168.619 39.8743 168.296 39.8743C167.308 39.8743 166.755 39.3827 166.755 38.1496V32.7951H165.321V32.0699Z" fill="black"/>
<path d="M170.88 39.7678V28.4197H171.65V39.7678H170.88Z" fill="black"/>
<path d="M174.343 36.0109C174.36 37.9979 175.359 39.2269 176.838 39.2269C178.284 39.2269 178.776 38.4117 179.055 37.7808H179.841C179.517 38.7968 178.702 39.9521 176.805 39.9521C174.466 39.9521 173.557 37.9364 173.557 35.9782C173.557 33.7782 174.65 31.8813 176.9 31.8813C179.272 31.8813 180.026 33.9298 180.026 35.3759C180.026 35.5931 180.025 35.8061 180.009 36.0068H174.343V36.0109ZM179.227 35.335C179.21 33.8109 178.379 32.6106 176.871 32.6106C175.285 32.6106 174.56 33.7208 174.392 35.335H179.227Z" fill="black"/>
<path d="M19.0407 27.8419H16.5868V32.9916H12.3466V18.3291H19.1391C19.5815 18.3291 20.0076 18.366 20.4091 18.4274V15.6949C20.4091 12.7452 18.0084 10.2666 14.7473 9.53327V5.87072C14.7473 5.58805 14.4728 5.35862 14.1369 5.35862H12.9119V3.40035C12.9119 3.2119 12.789 3.04802 12.6047 2.96199V1.26591C12.8177 1.27411 13.0266 1.2782 13.2151 1.2782C14.1041 1.2782 14.4769 1.17988 14.6326 1.09794C14.7063 1.06107 14.7473 0.991427 14.7473 0.921782V0.766103C14.7473 0.766103 14.7473 0.512101 14.44 0.254002C14.1328 3.41864e-07 11.9901 0 11.0725 0C10.1548 0 5.25909 0 4.03414 0C3.07549 0 1.36712 0.471133 0.670662 0.671876C0.514984 0.716941 0.449434 0.87262 0.543661 0.991427L0.838632 1.36014C0.908277 1.44617 1.04757 1.48304 1.16228 1.43388C1.3958 1.33556 1.88741 1.17988 2.87884 1.0201C4.4766 0.766103 5.87361 0.766103 6.17677 0.766103C6.41848 0.766103 8.20879 0.925878 8.92983 0.991427V2.89235C8.58979 2.89235 8.3194 3.12177 8.3194 3.40445V5.36272H7.09446C6.75442 5.36272 6.48403 5.59214 6.48403 5.87482V9.57424C3.30081 10.3485 0.973825 12.7943 0.973825 15.699V18.3291H5.4967C9.03225 18.3291 10.5931 20.0825 10.5931 22.1432C10.5931 23.7082 9.76967 24.8226 8.59389 25.306C9.69183 25.6952 10.9946 26.7235 10.9946 28.6203C10.9946 31.0251 9.20022 32.9875 5.54177 32.9875H0.977923V40.1938C0.977923 41.7424 2.48555 43.0001 4.3455 43.0001H17.0456C18.9056 43.0001 20.4132 41.7424 20.4132 40.1938V27.7354C19.9707 27.805 19.5119 27.8419 19.0407 27.8419Z" fill="black"/>
<path d="M18.3524 21.3445H16.5908V24.8186H18.3443C19.5118 24.8186 20.3558 24.3474 20.4131 23.2167V22.9586C20.3517 21.8033 19.5036 21.3445 18.3524 21.3445Z" fill="black"/>
<path d="M6.43475 22.5775C6.43475 21.668 5.77516 21.2214 4.74276 21.2214H2.37891V23.9786H4.77554C5.95952 23.9827 6.43475 23.3723 6.43475 22.5775Z" fill="black"/>
<path d="M2.375 30.1034H4.57089C5.98429 30.1034 6.58242 29.4889 6.58242 28.4401C6.58242 27.5183 6.01296 26.8669 4.64873 26.8669H2.375V30.1034Z" fill="black"/>
</svg>
