<svg width="93" height="25" viewBox="0 0 93 25" fill="none" xmlns="http://www.w3.org/2000/svg">
<g clip-path="url(#clip0_160_1779)">
<path fill-rule="evenodd" clip-rule="evenodd" d="M3.11682 -0.369141C1.49037 -0.369141 0.171875 0.949355 0.171875 2.5758V21.9283C0.171875 23.5548 1.49037 24.8733 3.11682 24.8733H89.6654C91.2918 24.8733 92.6103 23.5548 92.6103 21.9283V2.57581C92.6103 0.949358 91.2918 -0.369141 89.6654 -0.369141H3.11682ZM3.9437 1.58927C3.09836 1.58927 2.41308 2.27456 2.41308 3.11989V21.5258C2.41308 22.3712 3.09836 23.0565 3.9437 23.0565H13.2963C13.8256 23.0565 14.3174 22.783 14.5966 22.3333L22.9017 8.95826C23.4536 8.06941 23.7461 7.04397 23.7461 5.9977V3.11989C23.7461 2.27456 23.0608 1.58927 22.2155 1.58927H3.9437Z" fill="white"/>
<path d="M83.9302 2.049H84.4454V5.02783H83.9302V2.049ZM82.564 1.87542H85.8116V2.29537H82.564V1.87542ZM86.3014 5.02783V1.87542H87.0629L88.5635 4.81506H88.2947L89.7897 1.87542H90.5512V5.02783H90.0641V2.021H90.2377L88.6811 5.02783H88.1715L86.6149 2.0266H86.7885V5.02783H86.3014Z" fill="black"/>
<path d="M1.633 5.47042H6.84603C7.59808 5.47042 8.19059 5.2995 8.62359 4.95766C9.06798 4.61583 9.29017 4.14865 9.29017 3.55613C9.29017 2.95222 9.06798 2.48504 8.62359 2.15459C8.19059 1.81276 7.59808 1.64184 6.84603 1.64184H1.30826L2.31668 0.377036V12.5123H0.0605469V-0.306641H7.05113C7.95131 -0.306641 8.73754 -0.141419 9.40982 0.189025C10.0935 0.508074 10.6233 0.958161 10.9994 1.53929C11.3868 2.10902 11.5805 2.7813 11.5805 3.55613C11.5805 4.30817 11.3868 4.97476 10.9994 5.55588C10.6233 6.12561 10.0935 6.5757 9.40982 6.90614C8.73754 7.22519 7.95131 7.38471 7.05113 7.38471H1.633V5.47042ZM4.1626 6.51303H6.81185L11.9052 12.5123H9.20471L4.1626 6.51303Z" fill="white"/>
<path d="M17.9926 12.7516C16.8646 12.7516 15.8618 12.5408 14.9844 12.1192C14.1071 11.6862 13.4177 11.088 12.9163 10.3245C12.415 9.56108 12.1643 8.6723 12.1643 7.65819C12.1643 6.65546 12.3979 5.77808 12.8651 5.02603C13.3436 4.26259 13.9988 3.67008 14.8306 3.24847C15.6738 2.81548 16.6367 2.59898 17.7192 2.59898C18.8016 2.59898 19.5511 2.84397 20.3373 3.33393C21.1349 3.81251 21.6377 4.49745 22.0707 5.37484C22.3742 5.98992 22.4923 6.67717 22.5357 7.44139C22.5677 8.00404 22.1024 8.4615 21.5388 8.4615H13.9077V6.76941H21.7217L20.6108 7.40181C20.5766 6.76371 20.4228 6.21677 20.1493 5.76098C19.8872 5.3052 19.5677 4.90289 19.1119 4.6636C18.6675 4.41292 18.2832 4.34236 17.6679 4.34236C17.0184 4.34236 16.4487 4.47339 15.9587 4.73547C15.4801 4.99755 15.1041 5.36787 14.8306 5.84644C14.5571 6.31362 14.4204 6.87196 14.4204 7.52145C14.4204 8.23931 14.5799 8.86031 14.899 9.38447C15.2294 9.90862 15.6909 10.3131 16.2834 10.598C16.8873 10.8715 17.5995 11.0082 18.4199 11.0082C19.1606 11.0082 19.9183 10.8943 20.6931 10.6664C21.468 10.4271 21.9191 10.0923 22.5116 9.6707L22.7442 11.2817C22.1517 11.7375 21.4281 12.0964 20.5735 12.3585C19.7303 12.6205 18.87 12.7516 17.9926 12.7516Z" fill="white"/>
<circle cx="17.7553" cy="21.7279" r="1.26212" fill="black"/>
<circle cx="23.1459" cy="12.828" r="1.26212" fill="black"/>
<path d="M26.8163 20.3673V18.699H34.8368V20.3673H26.8163ZM32.1429 11.5204L37.6531 23H35.4949L30.4898 12.2857H31.2704L26.2653 23H24.1071L29.6174 11.5204H32.1429ZM47.2686 19.5867C47.1666 20.301 46.886 20.9337 46.4268 21.4847C45.9676 22.0255 45.3809 22.449 44.6666 22.7551C43.9523 23.0612 43.1564 23.2143 42.2788 23.2143C41.2788 23.2143 40.3961 23.0255 39.6308 22.648C38.8757 22.2602 38.2839 21.7245 37.8553 21.0408C37.4267 20.3571 37.2125 19.5663 37.2125 18.6684C37.2125 17.7704 37.4267 16.9796 37.8553 16.2959C38.2839 15.6122 38.8757 15.0816 39.6308 14.704C40.3961 14.3163 41.2788 14.1224 42.2788 14.1224C43.1564 14.1224 43.9523 14.2755 44.6666 14.5816C45.3809 14.8877 45.9676 15.3163 46.4268 15.8673C46.886 16.4081 47.1666 17.0408 47.2686 17.7653H45.2635C45.1207 17.1122 44.7788 16.602 44.238 16.2347C43.6972 15.8673 43.0441 15.6836 42.2788 15.6836C41.6666 15.6836 41.1308 15.8061 40.6717 16.051C40.2125 16.2857 39.8553 16.6275 39.6002 17.0765C39.3553 17.5153 39.2329 18.0459 39.2329 18.6684C39.2329 19.2806 39.3553 19.8112 39.6002 20.2602C39.8553 20.7092 40.2125 21.0561 40.6717 21.301C41.1308 21.5357 41.6666 21.6531 42.2788 21.6531C43.0543 21.6531 43.7125 21.4643 44.2533 21.0867C44.7941 20.7092 45.1309 20.2092 45.2635 19.5867H47.2686ZM47.0968 15.8673V14.9643L48.9488 14.4898L49.7754 12.0714H50.9386V14.3367H54.9642V15.8673H50.9386V19.6173C50.9386 20.3418 51.0917 20.852 51.3978 21.148C51.7142 21.4337 52.2244 21.5765 52.9284 21.5765C53.3774 21.5765 53.7754 21.5306 54.1223 21.4388C54.4693 21.3367 54.8009 21.1939 55.1172 21.0102V22.648C54.8519 22.7806 54.4744 22.9082 53.9846 23.0306C53.505 23.1531 53.0101 23.2143 52.4999 23.2143C51.6529 23.2143 50.9693 23.0765 50.4488 22.801C49.9284 22.5153 49.5458 22.1275 49.3009 21.6377C49.0662 21.1377 48.9488 20.5663 48.9488 19.9235V15.8673H47.0968ZM55.9543 14.2755L56.9492 14.4592L57.9441 14.2755V23H55.9543V14.2755ZM56.9492 13.1887C56.5716 13.1887 56.2604 13.0867 56.0155 12.8826C55.7706 12.6683 55.6482 12.3928 55.6482 12.0561C55.6482 11.7193 55.7706 11.4489 56.0155 11.2449C56.2604 11.0306 56.5716 10.9234 56.9492 10.9234C57.3369 10.9234 57.6482 11.0306 57.8829 11.2449C58.1278 11.4489 58.2502 11.7193 58.2502 12.0561C58.2502 12.3928 58.1278 12.6683 57.8829 12.8826C57.6482 13.0867 57.3369 13.1887 56.9492 13.1887ZM64.2744 22.1122H63.5091L67.0601 14.3367H69.1877L64.9632 23H62.7285L58.504 14.3367H60.6927L64.2744 22.1122ZM69.3387 14.3367H71.3285L71.8489 17.4592V23H69.8591V17.1683L69.3387 14.3367ZM75.2928 14.1224C76.1091 14.1224 76.803 14.2857 77.3744 14.6122C77.9459 14.9387 78.3795 15.4081 78.6755 16.0204C78.9816 16.6224 79.1347 17.352 79.1347 18.2092V23H77.1449V18.5306C77.1449 17.6224 76.9306 16.9388 76.502 16.4796C76.0836 16.0102 75.4663 15.7755 74.6499 15.7755C74.0887 15.7755 73.5938 15.903 73.1652 16.1581C72.7469 16.403 72.4203 16.75 72.1856 17.199C71.9612 17.6479 71.8489 18.1735 71.8489 18.7755L71.1448 18.3928C71.2367 17.4949 71.4714 16.7296 71.8489 16.0969C72.2265 15.4643 72.7112 14.9796 73.303 14.6428C73.8948 14.2959 74.5581 14.1224 75.2928 14.1224ZM85.3056 23.2143C84.2545 23.2143 83.3311 23.0255 82.5351 22.648C81.7494 22.2602 81.1321 21.7245 80.6831 21.0408C80.2443 20.3571 80.0249 19.5663 80.0249 18.6684C80.0249 17.7602 80.2443 16.9694 80.6831 16.2959C81.1321 15.6122 81.7494 15.0816 82.5351 14.704C83.3311 14.3163 84.2545 14.1224 85.3056 14.1224C86.3566 14.1224 87.275 14.3163 88.0607 14.704C88.8566 15.0816 89.4739 15.6122 89.9127 16.2959C90.3617 16.9694 90.5862 17.7602 90.5862 18.6684C90.5862 19.5663 90.3617 20.3571 89.9127 21.0408C89.4739 21.7245 88.8566 22.2602 88.0607 22.648C87.275 23.0255 86.3566 23.2143 85.3056 23.2143ZM85.3056 21.6531C85.979 21.6531 86.5556 21.5306 87.0352 21.2857C87.525 21.0408 87.9025 20.699 88.1678 20.2602C88.4331 19.8112 88.5658 19.2806 88.5658 18.6684C88.5658 18.0561 88.4331 17.5306 88.1678 17.0918C87.9025 16.6428 87.525 16.2959 87.0352 16.051C86.5556 15.8061 85.979 15.6836 85.3056 15.6836C84.6423 15.6836 84.0658 15.8061 83.576 16.051C83.0862 16.2959 82.7086 16.6428 82.4433 17.0918C82.178 17.5306 82.0453 18.0561 82.0453 18.6684C82.0453 19.2806 82.178 19.8112 82.4433 20.2602C82.7086 20.699 83.0862 21.0408 83.576 21.2857C84.0658 21.5306 84.6423 21.6531 85.3056 21.6531Z" fill="black"/>
</g>
<defs>
<clipPath id="clip0_160_1779">
<rect x="0.152344" width="92.3473" height="25.0001" rx="2.94389" fill="white"/>
</clipPath>
</defs>
</svg>
