<svg width="33" height="32" viewBox="0 0 33 32" fill="none" xmlns="http://www.w3.org/2000/svg">
<path d="M27.75 14.125C27.75 15.8486 27.4105 17.5553 26.7509 19.1477C26.0913 20.7401 25.1245 22.187 23.9058 23.4058C22.687 24.6245 21.2401 25.5913 19.6477 26.2509C18.0553 26.9105 16.3486 27.25 14.625 27.25C12.9014 27.25 11.1947 26.9105 9.60228 26.2509C8.00988 25.5913 6.56299 24.6245 5.34422 23.4058C4.12545 22.187 3.15867 20.7401 2.49908 19.1477C1.83949 17.5553 1.5 15.8486 1.5 14.125C1.5 10.644 2.88281 7.30564 5.34422 4.84422C7.80564 2.38281 11.144 1 14.625 1C18.106 1 21.4444 2.38281 23.9058 4.84422C26.3672 7.30564 27.75 10.644 27.75 14.125Z" stroke="#003A69" stroke-width="2"/>
<path d="M31.5 31L27.75 27.25" stroke="#003A69" stroke-width="2" stroke-linecap="round"/>
</svg>
