<svg width="46" height="45" viewBox="0 0 46 45" fill="none" xmlns="http://www.w3.org/2000/svg">
<path d="M21.1104 0.136592C20.7588 0.30462 20.4688 0.659345 20.3633 1.04208C20.3105 1.21944 20.2754 2.72235 20.2754 4.4493V7.54848L19.9678 7.60449C19.5547 7.68851 19.0713 8.15525 18.957 8.57532C18.834 9.0514 18.8428 19.9172 18.9658 20.7293C19.2119 22.3723 20.3721 23.7071 21.9014 24.1366C22.6397 24.3419 25.8477 24.3326 26.6914 24.1272C27.8076 23.8565 28.8447 22.9417 29.3545 21.7748C29.583 21.2334 29.627 21 29.6709 20.1039L29.7236 19.0584L30.9365 19.7772L32.1406 20.496V30.9043H25.6631C19.6602 30.9043 19.1504 30.9137 18.8691 31.0724C17.9199 31.5765 17.9199 33.126 18.8691 33.6301C19.1504 33.7888 19.625 33.7981 24.7842 33.7981H30.3828V36.5053H25.0039C20.5127 36.5053 19.5195 36.5333 19.0537 36.6453C17.6035 37.0093 16.417 38.1482 15.916 39.6698C15.7227 40.2392 15.7051 40.4352 15.7051 42.1622C15.7051 43.9638 15.7139 44.0478 15.9072 44.3559C16.0127 44.5333 16.2412 44.748 16.4082 44.832C16.6982 44.9907 17.5596 45 30.6025 45C43.6455 45 44.5068 44.9907 44.7969 44.832C44.9639 44.748 45.1924 44.5333 45.2979 44.3559C45.5 44.0385 45.5 44.0105 45.5 40.762C45.5 37.6815 45.4912 37.4668 45.3242 37.1867C45.1045 36.804 44.8057 36.5986 44.3574 36.5333L44.0059 36.4773V34.1715C44.0059 31.9312 43.9971 31.8565 43.8037 31.5484C43.5576 31.147 43.1006 30.9043 42.626 30.9043H42.2481V23.1751C42.2481 15.6978 42.2393 15.4458 42.0723 15.1564C41.9844 14.9977 41.8174 14.8017 41.7031 14.7363C41.5889 14.671 38.8555 13.4575 35.6123 12.0386L29.7236 9.46213L29.6797 8.95805C29.6533 8.678 29.583 8.36062 29.5215 8.2486C29.3545 7.93121 28.9766 7.6605 28.6074 7.60449L28.2734 7.53915V4.25327C28.2734 -0.339487 28.5986 0.00590392 24.3184 0.00590392C22.0596 0.0152388 21.3125 0.0432434 21.1104 0.136592ZM25.5488 7.56715H23V2.89972H25.5488V7.56715ZM26.9551 15.7818H21.5938V10.461H26.9551V15.7818ZM34.6016 14.7363L39.4795 16.874L39.5059 23.8845L39.5234 30.9043H34.8652V19.1704L34.6631 18.853C34.5137 18.6103 33.916 18.2089 32.0703 17.1074L29.6797 15.6698V14.1389C29.6797 13.2988 29.6885 12.608 29.7061 12.608C29.7148 12.608 31.9209 13.5695 34.6016 14.7363ZM26.9551 19.5531C26.9551 20.2999 26.9287 20.4679 26.7529 20.7387C26.375 21.3361 26.1641 21.3921 24.2129 21.3641C22.6221 21.3361 22.4639 21.3174 22.2441 21.1401C21.7432 20.748 21.6465 20.5146 21.6113 19.5625L21.5762 18.6757H26.9551V19.5531ZM41.3691 36.5053H33.1074V33.7981H41.3691V36.5053ZM42.8633 42.1062H18.3154L18.377 41.4621C18.4033 41.098 18.4736 40.6966 18.5264 40.5473C18.6582 40.1739 19.0273 39.7818 19.4404 39.5764C19.7744 39.4084 20.2842 39.3991 31.332 39.3991H42.8633V42.1062Z" fill="#B3B3B3"/>
<path d="M1.20312 17.0701C1.03613 17.1541 0.807617 17.3688 0.702148 17.5461C0.5 17.8635 0.5 17.8822 0.5 21.1867C0.5 24.3139 0.508789 24.5286 0.675781 24.8087C0.763672 24.9767 0.96582 25.1727 1.10645 25.2567L1.37012 25.3968L1.40527 32.6593C1.43164 39.1844 1.44922 39.9778 1.58105 40.5193C2.12598 42.6569 3.62012 44.2439 5.59766 44.776C6.34473 44.9813 7.75098 44.9813 8.49805 44.776C10.4756 44.2439 11.9697 42.6569 12.5146 40.5193C12.6465 39.9778 12.6641 39.1844 12.6904 32.6593L12.7256 25.3968L12.9893 25.2567C13.1299 25.1727 13.332 24.9767 13.4199 24.8087C13.5869 24.5286 13.5957 24.3139 13.5957 21.1867C13.5957 17.8822 13.5957 17.8635 13.3936 17.5461C12.9717 16.874 13.2178 16.902 7.04785 16.902C1.9502 16.902 1.48438 16.9114 1.20312 17.0701ZM10.959 22.5963H3.13672V19.7958H10.959V22.5963ZM9.99219 28.944H4.10352V25.4901H9.99219V28.944ZM9.97461 35.7305C9.93945 40.1925 9.94824 40.1552 9.18359 41.0327C8.55078 41.7701 7.94434 42.0595 7.04785 42.0595C6.15137 42.0595 5.54492 41.7701 4.91211 41.0327C4.14746 40.1552 4.15625 40.1925 4.12109 35.7305L4.09473 31.8378H10.001L9.97461 35.7305Z" fill="#B3B3B3"/>
</svg>
