<svg width="80" height="80" viewBox="0 0 80 80" fill="none" xmlns="http://www.w3.org/2000/svg">
<g clip-path="url(#clip0_512_561)">
<rect width="80" height="80" rx="40" fill="#E6E6E6"/>
<path d="M37 4.60938C32.5156 5.53125 28.7344 8.54688 26.8438 12.7031C26.3906 13.7188 25.8594 15.5938 25.6875 16.8281L25.5938 17.5H26.8281H28.0625L28.25 16.9688C28.5 16.1875 29.4375 15.2031 30.3438 14.7344C32.4062 13.6719 35.125 14.6562 36.0938 16.8281L36.3906 17.5H37.5312H38.6875L38.7344 15.6562C38.7969 13.5781 38.9062 13.3438 39.7969 13.2031C41.1875 12.9844 42 12.1406 42 10.9219C42 9.67188 41.3438 9 39.7031 8.59375C38.875 8.39062 38.7188 7.96875 38.7188 5.92188C38.7188 4.14062 38.8438 4.23438 37 4.60938Z" fill="#B3B3B3"/>
<path d="M40.7498 5.6249C40.7498 6.71865 40.781 6.8749 41.031 6.8749C41.4529 6.8749 42.6873 7.71865 43.156 8.32802C44.8591 10.5468 43.8904 13.9218 41.281 14.8749L40.7498 15.0624V16.2811V17.4999H42.531C44.6404 17.4999 45.031 17.6874 45.1716 18.7655C45.281 19.578 45.6716 20.1405 46.3904 20.4999C47.3591 20.9999 48.5779 20.7186 49.2341 19.828C49.3904 19.6093 49.5623 19.1249 49.6091 18.7655C49.7498 17.6874 50.1404 17.4999 52.2029 17.4999H53.9216L53.8123 16.4843C53.5154 13.5624 51.8591 10.4374 49.406 8.14052C47.4685 6.32802 45.2029 5.15615 42.5935 4.6249C40.656 4.21865 40.7498 4.17177 40.7498 5.6249Z" fill="#B3B3B3"/>
<path d="M31.2188 16.5312C30.5781 16.8438 29.9688 17.7031 29.9688 18.2812C29.9688 18.5156 29.8281 18.8906 29.6406 19.125C29.3281 19.5156 29.2812 19.5312 27.4531 19.5312H25.5938L25.7031 20.2656C26.5312 26.625 31.625 31.7812 37.9062 32.5938L38.7188 32.7031V31.4531V30.2188L38.1406 30.0156C37.3125 29.7188 36.3125 28.7031 35.9062 27.7812C35.625 27.1094 35.5625 26.7656 35.625 25.8438C35.7344 24.125 36.5625 22.9219 38.0938 22.25L38.7188 21.9688V20.75V19.5312H36.9219C35.3281 19.5312 35.0938 19.5 34.8125 19.2188C34.6406 19.0469 34.5 18.75 34.5 18.5625C34.5 17.8906 33.875 16.875 33.2344 16.5625C32.5 16.1719 31.9219 16.1719 31.2188 16.5312Z" fill="#B3B3B3"/>
<path d="M40.7498 21.3437C40.7498 22.3281 40.6717 23.2812 40.5935 23.4375C40.4998 23.6094 40.1873 23.7812 39.8435 23.8281C38.5154 24.0469 37.9217 24.5156 37.6248 25.5937C37.281 26.8437 38.1717 28.1406 39.531 28.3594C40.6873 28.5469 40.7498 28.6875 40.7498 30.8281V32.7031L41.7185 32.5937C43.7029 32.3594 46.2029 31.3594 48.0154 30.0781C49.0935 29.3125 50.781 27.5937 51.5154 26.5312C52.7185 24.75 53.8748 21.625 53.8748 20.125V19.5312H52.7498H51.6092L51.156 20.3906C50.3592 21.9375 49.0935 22.7187 47.3904 22.7187C45.6873 22.7187 44.281 21.8281 43.5623 20.3281L43.2029 19.5312H41.9685H40.7498V21.3437Z" fill="#B3B3B3"/>
<path d="M16.9688 34.7188C16.5938 35.0156 7.46875 52.2969 7.46875 52.7188C7.46875 52.9062 7.5625 53.1719 7.67188 53.3125C7.96875 53.6875 13.4844 56.5625 13.9219 56.5625C14.125 56.5625 14.4062 56.4375 14.5469 56.2812C15.0781 55.6875 23.9062 38.8125 23.9219 38.375C23.9219 38.0938 23.7969 37.8125 23.6094 37.6562C23.0625 37.2188 17.8438 34.5312 17.5156 34.5312C17.3594 34.5312 17.1094 34.625 16.9688 34.7188Z" fill="#B3B3B3"/>
<path d="M61.6875 35.9531C58.8438 36.8749 58.25 37.1874 58.25 37.7812C58.25 38.0624 64.25 56.4062 64.5 56.8593C64.8281 57.4843 65.2969 57.4218 68.5312 56.3437C71.5625 55.3281 72.1562 55.0312 72.1562 54.4843C72.1562 54.0156 66.0312 35.5468 65.7812 35.2656C65.4062 34.8437 64.7969 34.9531 61.6875 35.9531Z" fill="#B3B3B3"/>
<path d="M39.0938 39.5937C38.375 39.9219 32.3125 44.9531 31.4531 45.9219C31.1562 46.2656 31.1406 46.5469 31.0938 50.6719C31.0469 54.7031 31.0781 55.0937 31.3125 55.2656C32.8281 56.375 35.375 52.9062 35.4844 49.6094C35.5156 48.4062 35.5625 48.25 36 47.7187C36.9688 46.5156 38.5625 46.0937 39.8438 46.6875C40.1719 46.8281 43.9844 49.9687 48.3438 53.6719C52.7031 57.3594 56.3594 60.4531 56.4844 60.5156C56.5938 60.5937 56.8281 60.5937 57 60.5469C57.7031 60.3281 59.2344 59 59.9844 57.9687C60.4531 57.3125 61.0469 56.7187 61.4531 56.4844L62.125 56.0781L61.1406 53.0781C57.3906 41.5 56.9688 40.2969 56.7031 40.4062C54.7969 41.2031 54.2656 41.3281 52.3906 41.3125C50.6406 41.3125 50.2031 41.2344 46 40.2656C43.5312 39.6875 41.1406 39.2187 40.6875 39.2187C40.1719 39.2187 39.6094 39.3594 39.0938 39.5937Z" fill="#B3B3B3"/>
<path d="M21.1409 48.1406C18.9847 52.1875 17.2191 55.5312 17.2034 55.5937C17.1722 55.6562 17.4691 55.9062 17.8441 56.1406C18.5941 56.6094 19.0472 57.1406 19.7659 58.3906L20.2347 59.2187L20.6878 58.7344C22.3284 57.0156 24.9847 57.2031 26.2503 59.1406L26.5941 59.6406L27.3753 59.2812C28.6878 58.6719 29.9378 58.8281 31.0159 59.7656C31.7659 60.4062 32.1097 61.0781 32.2659 62.1875C32.3909 62.9531 32.4222 63.0156 32.9847 63.2031C34.4378 63.7031 35.2816 64.8906 35.2816 66.4687C35.2816 66.9687 35.1722 67.5625 35.0472 67.8281C34.7816 68.3281 34.8441 68.5937 35.2191 68.5937C35.3441 68.5937 35.7972 68.9375 36.2034 69.3437C37.3128 70.4531 37.5941 71.9844 36.9222 73.2812C36.7191 73.6875 36.7347 73.7187 37.8753 74.6719C39.1722 75.7812 39.8753 76 40.7034 75.5781C41.3284 75.25 41.7503 74.3594 41.6253 73.6562C41.5472 73.2656 41.2347 72.8906 40.3128 72.0781C37.9066 69.9375 37.7503 69.7187 38.4066 69.0625C38.9691 68.5 39.3284 68.6719 41.3753 70.4062C44.6253 73.1719 44.7816 73.2812 45.3753 73.2812C46.1566 73.2812 46.7659 72.9062 47.0784 72.25C47.3128 71.7656 47.3128 71.5781 47.1722 71.0625C47.0159 70.5625 46.5472 70.0937 44.2972 68.1719C42.8128 66.9062 41.5628 65.7969 41.5003 65.7187C41.1097 65.1562 41.6253 64.2187 42.3441 64.2187C42.4847 64.2187 44.1409 65.5156 46.0159 67.1094C48.1878 68.9531 49.6253 70.0625 50.0003 70.1719C51.6097 70.6719 53.0316 68.875 52.2034 67.3906C52.0472 67.125 50.3284 65.5625 48.3753 63.9062C45.0316 61.0937 44.8128 60.8594 44.8128 60.375C44.8128 59.6875 45.4066 59.2344 45.9691 59.5C46.1722 59.5937 48.1878 61.2344 50.4691 63.1562C52.7347 65.0937 54.7191 66.7031 54.8753 66.7656C55.6878 67.0781 56.7503 66.7344 57.2347 66C57.5628 65.4844 57.6097 64.5469 57.3284 64.0156C57.0941 63.5781 39.7191 48.7812 39.0472 48.4687C38.6878 48.2812 38.5316 48.2812 38.0472 48.5C37.4847 48.7344 37.4691 48.75 37.4691 49.5781C37.4691 52.3281 35.6253 55.8125 33.5784 56.9375C32.2191 57.6719 30.9066 57.5156 29.6722 56.4687L29.1878 56.0625V51.125C29.1878 45.2969 29.1878 45.375 30.8597 43.8125L31.8753 42.8594L29.8753 42.75L27.8597 42.6562L26.4847 41.7187C25.7347 41.2031 25.0941 40.7812 25.0784 40.7812C25.0472 40.7812 23.2816 44.0937 21.1409 48.1406Z" fill="#B3B3B3"/>
<path d="M21.8126 60.422C21.3282 60.922 20.8594 61.4845 20.7657 61.672C20.2032 62.7813 21.2188 64.1095 22.4376 63.8438C22.8751 63.7345 24.0313 62.672 24.5626 61.8751C24.9532 61.297 24.8907 60.3751 24.4219 59.922C24.1407 59.6251 23.8751 59.5313 23.3751 59.5313C22.7501 59.5313 22.6251 59.6095 21.8126 60.422Z" fill="#B3B3B3"/>
<path d="M28.453 60.9063C27.9686 60.9845 24.453 64.7032 24.1717 65.4532C23.953 66.0157 24.1561 66.6563 24.6874 67.1095C25.6092 67.8907 26.203 67.6251 28.0155 65.5938C30.0311 63.3595 30.2811 63.0001 30.2811 62.3438C30.2811 61.3907 29.4686 60.7345 28.453 60.9063Z" fill="#B3B3B3"/>
<path d="M30.8439 65.3439C30.0314 66.0783 28.2033 68.2189 28.0002 68.6877C27.6252 69.5627 28.1721 70.5314 29.1096 70.7189C29.8439 70.8596 30.2346 70.5783 31.8439 68.7971C33.5471 66.8908 33.7346 66.3596 33.0158 65.5002C32.6564 65.0783 32.4846 65.0002 31.9221 65.0002C31.4377 65.0002 31.1252 65.0939 30.8439 65.3439Z" fill="#B3B3B3"/>
<path d="M32.5156 70.9688C32.1562 71.3438 31.8125 71.8281 31.7656 72.0781C31.5469 72.9531 32.3281 73.9062 33.25 73.9062C34.1719 73.9062 35.2812 72.6875 35.2812 71.6719C35.2812 70.8281 34.7344 70.3125 33.8437 70.3125C33.25 70.3125 33.0781 70.3906 32.5156 70.9688Z" fill="#B3B3B3"/>
</g>
<defs>
<clipPath id="clip0_512_561">
<rect width="80" height="80" rx="40" fill="white"/>
</clipPath>
</defs>
</svg>
