<svg width="80" height="80" viewBox="0 0 80 80" fill="none" xmlns="http://www.w3.org/2000/svg">
<g clip-path="url(#clip0_512_570)">
<rect width="80" height="80" rx="40" fill="#E6E6E6"/>
<path d="M46.7915 13.0729C45.4032 13.185 43.1455 13.5915 41.603 13.984C32.6142 16.2968 27.4958 22.2399 29.3889 28.1971C30.0059 30.1174 31.3381 31.9256 33.2593 33.4534C40.4671 39.1442 53.3121 40.0834 62.3289 35.598C66.8584 33.3413 69.6489 29.9632 69.9574 26.3609C70.5744 19.0721 60.9126 12.8486 49.1894 13.0028C48.1797 13.0168 47.1 13.0449 46.7915 13.0729ZM52.5409 16.3388C59.6646 17.1518 64.825 20.5299 65.5402 24.805C66.1572 28.5195 62.988 32.1638 57.5611 33.986C52.5269 35.6681 46.1885 35.626 41.1823 33.9019C37.6625 32.6825 35.0402 30.65 33.9043 28.2531C33.4977 27.3981 33.4696 27.2439 33.4696 25.7161C33.4696 24.1322 33.4836 24.0901 34.0025 23.0249C35.6712 19.6468 40.0464 17.2079 45.88 16.4089C47.5207 16.1846 50.8581 16.1566 52.5409 16.3388Z" fill="#B3B3B3"/>
<path d="M46.0061 18.6516C42.2339 19.1842 39.0928 20.4878 37.2558 22.296C36.1479 23.3753 35.7413 24.2303 35.6712 25.5479C35.6151 26.445 35.6571 26.6692 36.0217 27.4402C37.2137 29.9912 41.07 32.0517 45.9781 32.7666C47.6889 33.0189 51.7836 32.9768 53.4523 32.6965C58.2622 31.8835 61.782 29.9352 62.9739 27.4121C63.4647 26.3749 63.4647 24.9872 62.9879 23.992C61.824 21.5671 58.5427 19.6888 53.873 18.7918C52.2323 18.4694 47.787 18.3853 46.0061 18.6516Z" fill="#B3B3B3"/>
<path d="M69.5087 32.7666C68.8356 33.6777 67.1248 35.2055 65.7505 36.1166C61.9223 38.6677 57.0142 40.2235 51.6013 40.588C47.4926 40.8543 42.7388 40.2656 39.2331 39.0461C38.7703 38.8919 38.4197 38.7938 38.4618 38.8218C38.4898 38.8499 38.8965 39.1723 39.3593 39.5367C41.2804 41.0645 43.4961 43.4895 44.6039 45.2976C45.1227 46.1527 45.1227 46.1527 48.4742 46.2928C52.1623 46.433 55.9344 45.9004 59.2579 44.779C66.059 42.4662 70.1537 38.079 69.9714 33.2712L69.9294 32.2059L69.5087 32.7666Z" fill="#B3B3B3"/>
<path d="M28.9402 33.6777L28.9822 35.0513L30.3845 35.3597C31.1558 35.5279 32.0673 35.7662 32.4179 35.8783L33.0489 36.1026L32.6983 35.8082C31.0296 34.4486 30.3004 33.7758 29.7535 33.103C29.4029 32.6825 29.0664 32.332 29.0103 32.318C28.9542 32.318 28.9261 32.9348 28.9402 33.6777Z" fill="#B3B3B3"/>
<path d="M23.7657 37.0838C21.2556 37.294 19.0399 37.8967 16.7121 38.9901C10.7383 41.8215 6.60154 47.1759 5.25534 53.8339C4.89074 55.7122 4.91879 59.6509 5.32545 61.5151C7.17649 69.9393 13.4868 76.1207 21.8305 77.6766C23.8638 78.055 27.4818 78.027 29.4169 77.6205C32.2356 77.0178 34.6054 76.0226 36.9192 74.4948C38.616 73.3594 41.1682 70.8223 42.3602 69.0702C49.2595 58.88 45.8379 45.1435 34.942 39.3405C31.7027 37.6304 27.5379 36.7894 23.7657 37.0838ZM28.253 40.6581C31.7027 41.2608 34.6756 42.7466 37.1716 45.1294C44.1411 51.7874 44.3374 62.6926 37.6064 69.4627C31.8149 75.3077 22.9664 76.2609 16.0811 71.7895C14.4404 70.7242 12.2248 68.5236 11.173 66.8836C6.72775 60.0574 7.63924 51.2128 13.3466 45.4939C15.9128 42.9288 19.0259 41.3028 22.5317 40.6721C24.0321 40.4058 26.7666 40.3917 28.253 40.6581Z" fill="#B3B3B3"/>
<path d="M22.728 42.9008C17.2731 43.938 12.7296 48.059 11.1871 53.3994C9.68663 58.5576 11.145 64.1643 14.9593 67.9909C20.891 73.9061 30.4967 73.7659 36.2321 67.6685C38.9105 64.8231 40.2708 61.375 40.2708 57.4503C40.2708 50.7642 35.6993 44.8771 29.1225 43.111C27.6501 42.7045 24.2986 42.6064 22.728 42.9008ZM30.5388 47.9188C32.1655 48.6757 33.4135 50.3577 33.6239 52.0958C33.8763 54.2264 32.6002 56.4551 30.6229 57.3802C29.8377 57.7586 29.7675 57.7586 26.1777 57.8287L22.5317 57.8988L22.4475 59.0762L30.062 59.1603L30.3285 59.4967C30.665 59.9172 30.665 60.5059 30.3285 60.9264C30.062 61.2628 30.048 61.2628 26.2898 61.3329L22.5317 61.403L22.4616 64.1643C22.3774 67.248 22.3073 67.5003 21.4659 67.5003C20.3721 67.5003 20.2179 67.0658 20.2179 63.8419V61.3329H19.096C18.0724 61.3329 17.9321 61.2909 17.6236 60.9825C17.3993 60.7723 17.2731 60.4779 17.2731 60.2116C17.2731 59.9453 17.3993 59.6509 17.6236 59.4407C17.9321 59.1323 18.0724 59.0902 19.096 59.0902H20.2179V57.8287H19.068C18.0864 57.8287 17.876 57.7867 17.5956 57.5203C17.2731 57.226 17.1749 56.6933 17.3572 56.2168C17.5115 55.8243 18.1986 55.586 19.2223 55.586H20.2039L20.288 48.129L20.6947 47.7786L21.1013 47.4422L29.6834 47.5263L30.5388 47.9188Z" fill="#B3B3B3"/>
<path d="M22.4615 55.586H25.799C29.5571 55.586 29.8937 55.5019 30.693 54.5348C32.0252 52.9228 31.338 50.5259 29.3468 49.8531C29.0523 49.755 27.6921 49.6989 25.6728 49.6989H22.4615V55.586Z" fill="#B3B3B3"/>
<path d="M68.3868 41.7654C66.7321 43.4474 65.6243 44.2604 63.3666 45.4238C61.5436 46.3769 59.6505 47.0638 57.4909 47.5964C54.504 48.3253 52.9895 48.4935 49.5118 48.5075H46.3567L46.8896 50.0213C47.184 50.8483 47.5346 52.1098 47.6748 52.8247L47.9413 54.1142L48.5583 54.2264C49.3155 54.3525 53.1438 54.1142 54.8125 53.8199C60.9546 52.7686 66.0029 50.0213 68.3728 46.419C69.4525 44.793 69.8732 43.5455 69.9574 41.6673C69.9994 40.8403 70.0135 40.1815 69.9854 40.1815C69.9574 40.1955 69.2422 40.9104 68.3868 41.7654Z" fill="#B3B3B3"/>
<path d="M69.5087 48.6056C68.8496 49.4887 67.1107 51.0445 65.7224 51.9697C61.5716 54.759 56.0185 56.371 50.2551 56.4691L48.1657 56.4971L48.1516 58.039C48.1376 59.4266 47.9413 61.2768 47.759 61.9216C47.6889 62.1459 47.8291 62.1739 49.3576 62.1739C55.8362 62.1739 62.0344 60.2676 65.8487 57.0998C68.6392 54.773 70.0836 51.9556 69.9714 49.0682L69.9293 48.0449L69.5087 48.6056Z" fill="#B3B3B3"/>
<path d="M68.3868 57.6185C66.2553 59.749 64.208 61.0666 61.0388 62.3141C57.6312 63.6597 54.0133 64.3185 49.9326 64.3325L47.1701 64.3465L46.5951 65.8183C46.2866 66.6313 45.7257 67.8227 45.3471 68.4815L44.66 69.673L45.1648 69.7711C46.525 70.0234 49.6942 70.1495 51.5593 70.0234C58.136 69.5608 63.5209 67.4443 66.9144 64.0101C69.074 61.8235 70.0836 59.5107 69.9714 57.0297L69.9294 56.0766L68.3868 57.6185Z" fill="#B3B3B3"/>
<path d="M69.5087 64.4447C68.8355 65.3558 67.0967 66.8976 65.6523 67.8508C62.4551 69.9953 58.4305 71.4251 53.8029 72.0558C51.5172 72.3782 47.1139 72.3502 44.8562 72.0138L43.1875 71.7615L42.234 72.8268C41.7151 73.4014 40.7054 74.3546 40.0043 74.9293C39.3031 75.504 38.7843 76.0086 38.8404 76.0646C38.9806 76.2048 40.9999 76.8356 42.3461 77.172C45.2208 77.8868 49.2454 78.1812 52.3305 77.8868C62.7776 76.8916 70.2238 71.411 69.9714 64.9072L69.9293 63.884L69.5087 64.4447Z" fill="#B3B3B3"/>
</g>
<defs>
<clipPath id="clip0_512_570">
<rect width="80" height="80" rx="40" fill="white"/>
</clipPath>
</defs>
</svg>
