<svg width="80" height="80" viewBox="0 0 80 80" fill="none" xmlns="http://www.w3.org/2000/svg">
<g clip-path="url(#clip0_512_535)">
<rect width="80" height="80" rx="40" fill="#E6E6E6"/>
<path d="M36.4712 6.17018C30.3099 6.86352 24.2274 9.33748 19.1377 13.2139C17.7352 14.2697 14.6152 17.3739 13.3861 18.9024C11.0855 21.7861 9.11574 25.3001 7.87088 28.6722C7.06723 30.8941 7.01996 31.4141 7.61875 31.9183C8.64301 32.8165 9.3521 32.2335 10.14 29.8698C12.9921 21.4552 19.8152 14.3169 28.3402 10.8502C31.996 9.369 35.2893 8.67566 39.3076 8.5496C48.3683 8.2502 56.7672 11.6381 63.1333 18.1303C65.7018 20.7618 67.4509 23.2201 69.0109 26.3874C74.3213 37.2129 73.1237 50.0555 65.8909 59.6992C64.7091 61.275 61.9987 64.0799 60.4387 65.3405C56.9405 68.1769 52.875 70.2412 48.6677 71.36C44.5707 72.4472 45.8628 72.3842 26.0238 72.4788L7.99694 72.5575L7.61875 72.9988C7.1145 73.5818 7.14602 73.9757 7.69754 74.543L8.15452 75H25.2359C44.2397 75 44.5549 74.9842 48.6677 73.96C62.8654 70.4303 73.2498 58.3598 74.668 43.7366C75.2825 37.5123 74.0692 30.8941 71.2958 25.2843C66.6 15.7824 57.6653 8.81748 47.4228 6.69018C44.3185 6.04412 39.5755 5.80775 36.4712 6.17018Z" fill="#B3B3B3"/>
<path d="M35.6106 10.2107C25.34 11.8133 16.7925 18.0236 12.316 27.1218C11.0153 29.7762 10.8464 30.3271 11.0998 30.9615C11.3532 31.5291 12.0626 31.8797 12.6877 31.7294C13.2789 31.5792 13.3465 31.479 14.0728 29.7261C17.0797 22.4642 23.7015 16.4376 31.3706 13.9502C34.6139 12.9152 35.9991 12.7148 40.087 12.6981C43.3641 12.6981 44.0229 12.7482 45.6615 13.0988C55.78 15.2356 63.7701 22.2138 66.9289 31.646C68.0607 35.0015 68.2803 36.4706 68.2803 40.4938C68.2803 43.5989 68.2297 44.3168 67.8918 45.836C65.4255 57.1713 57.1145 65.4516 45.6953 67.9056C44.1919 68.2228 43.4824 68.2729 40.1715 68.2729C36.0835 68.2729 34.6477 68.0892 31.5902 67.121C29.8672 66.5701 29.3097 66.5868 28.8705 67.1377C28.1104 68.1059 28.6509 68.974 30.357 69.5416C33.8706 70.6935 37.0633 71.1276 41.2526 70.994C44.5804 70.8771 46.4723 70.5767 49.3609 69.6919C58.2294 66.9707 65.4931 60.2764 68.9391 51.6789C70.4763 47.8393 71 45.0179 71 40.4938C71 35.9697 70.4763 33.1484 68.9391 29.3088C66.5911 23.4491 62.4694 18.4409 57.0638 14.8851C53.9894 12.8651 49.8677 11.2124 45.9824 10.4444C43.55 9.9436 38.0262 9.82674 35.6106 10.2107Z" fill="#B3B3B3"/>
<path d="M37.18 20.746C36.4079 24.1812 36.2345 24.8115 35.9667 25.0636C35.4782 25.5206 32.626 26.6552 32.2478 26.5291C32.0587 26.4661 30.8611 25.7727 29.6005 24.9691L27.2841 23.5036L25.3144 25.5049L23.3289 27.4903L24.8102 29.8382C25.7241 31.2722 26.3072 32.3595 26.3072 32.6116C26.3072 33.1316 25.2514 35.7474 24.889 36.1413C24.6211 36.4092 23.6441 36.6771 20.2877 37.4177L19.0586 37.6856V40.4905V43.2954L20.2877 43.5632C23.6441 44.3039 24.6211 44.5717 24.889 44.8396C25.2514 45.2336 26.3072 47.8493 26.3072 48.3693C26.3072 48.6215 25.7241 49.7088 24.8102 51.1427L23.3289 53.4906L25.3144 55.4761L27.2841 57.4773L29.6005 56.0119C30.8611 55.2082 32.0587 54.5149 32.2478 54.4518C32.626 54.3258 35.4782 55.4603 35.9667 55.9173C36.2345 56.1694 36.4079 56.7997 37.18 60.2192L37.5267 61.7634H40.2528C41.7655 61.7634 43.0261 61.7004 43.0734 61.6374C43.1049 61.5743 43.4043 60.3767 43.7195 59.0058C44.0189 57.6191 44.3498 56.327 44.4443 56.1379C44.5389 55.9646 44.8855 55.6967 45.2007 55.5706C45.5158 55.4288 46.288 55.0979 46.9183 54.83C47.6274 54.5306 48.1947 54.373 48.3838 54.4361C48.5571 54.4991 49.7547 55.2082 51.0153 56.0119L53.3317 57.4931L55.2699 55.5706C56.3257 54.5149 57.1923 53.5852 57.1923 53.5064C57.1923 53.4276 56.5463 52.3403 55.7584 51.0954C54.9705 49.8348 54.2929 48.6845 54.2456 48.5269C54.1826 48.2748 54.8602 46.3996 55.4905 45.1075C55.7111 44.6505 56.042 44.5402 58.9099 43.8784C60.2336 43.579 61.3839 43.2796 61.4627 43.2323C61.6518 43.122 61.6518 37.8589 61.4627 37.7486C61.3839 37.7014 60.2336 37.402 58.9099 37.1026C56.042 36.4407 55.7111 36.3304 55.4905 35.8735C54.8602 34.5813 54.1826 32.7062 54.2456 32.454C54.2929 32.2965 54.9705 31.1461 55.7584 29.8855C56.5463 28.6407 57.1923 27.5534 57.1923 27.4746C57.1923 27.3958 56.3257 26.4661 55.2699 25.4103L53.3317 23.4879L51.0153 24.9691C49.7547 25.7727 48.5728 26.4818 48.3995 26.5291C47.9425 26.6709 44.6649 25.2685 44.4443 24.8273C44.3498 24.6539 44.0189 23.3618 43.7195 21.9751C43.4043 20.6042 43.1049 19.4066 43.0734 19.3436C43.0261 19.2806 41.7655 19.2175 40.2528 19.2175H37.5267L37.18 20.746ZM39.0709 29.3655C39.0709 30.0431 39.4806 30.5316 40.1267 30.6576C40.5522 30.7364 40.7097 30.6734 41.1194 30.2795C41.4346 29.9485 41.5922 29.6492 41.5922 29.3025C41.5922 28.8297 41.6079 28.814 42.191 28.9243C43.9401 29.2394 45.2007 29.7752 47.4068 31.1777C47.5801 31.288 47.5643 31.3825 47.2965 31.7607C46.7922 32.454 46.7765 33.0686 47.265 33.5571C47.6747 33.9668 48.5256 33.9668 49.0613 33.5413C49.471 33.2104 49.5026 33.2104 49.7074 33.494C50.6686 34.8019 51.6771 37.1814 51.882 38.6311C51.9765 39.2299 51.9608 39.2299 51.425 39.2299C50.7159 39.2299 50.1013 39.8129 50.1013 40.4905C50.1013 41.1681 50.7159 41.7511 51.425 41.7511C51.9608 41.7511 51.9765 41.7511 51.882 42.3341C51.6771 43.7996 50.6686 46.179 49.7074 47.4869C49.5026 47.7706 49.471 47.7706 49.0613 47.4396C47.7062 46.3839 46.1462 48.0227 47.3122 49.2833C47.6274 49.63 47.6274 49.63 47.328 49.8663C46.1777 50.7645 43.8298 51.7573 42.191 52.0567C41.6079 52.167 41.5922 52.1512 41.5922 51.6785C41.5922 51.3476 41.4503 51.0324 41.1352 50.7173C40.6152 50.1972 40.3473 50.1657 39.717 50.4966C39.2127 50.7488 39.0709 51.0166 39.0709 51.6942C39.0709 51.9464 39.0394 52.1512 38.9764 52.1512C37.9521 52.1512 34.4224 50.7803 33.4139 49.9766L33.0357 49.6615L33.3666 49.236C34.3909 47.9281 32.8939 46.4311 31.586 47.4554L31.1605 47.7863L30.8611 47.4081C30.2466 46.6045 29.2854 44.5402 28.986 43.3899C28.5763 41.7984 28.5763 41.7511 29.1593 41.7511C29.7266 41.7511 30.5617 41.0105 30.5617 40.4905C30.5617 39.9705 29.7266 39.2299 29.1593 39.2299C28.5763 39.2299 28.5763 39.1826 28.986 37.5911C29.2854 36.4407 30.2466 34.3765 30.8611 33.5728L31.1605 33.1946L31.586 33.5256C32.8939 34.5498 34.3909 33.0528 33.3666 31.7449L33.0357 31.3195L33.4139 31.0201C34.1388 30.437 36.3764 29.4128 37.5267 29.1291C39.0867 28.751 39.0709 28.751 39.0709 29.3655Z" fill="#B3B3B3"/>
<path d="M39.7805 32.9583C39.1344 33.305 39.0714 33.5571 39.0714 35.5268V37.4335L38.3465 38.0323C37.4168 38.8202 37.1332 39.4663 37.212 40.7426L37.2592 41.7354L35.7938 43.2166C34.1707 44.8869 33.9974 45.3597 34.738 46.0845C35.4629 46.8251 35.9041 46.6518 37.5902 45.0287L39.1029 43.5633L40.0011 43.6105C41.4981 43.7051 42.6169 43.0748 43.1842 41.8299C43.7672 40.5693 43.4205 38.9463 42.3963 38.0796C42.1126 37.8432 41.8132 37.6541 41.7344 37.6541C41.6556 37.6541 41.5926 36.7717 41.5926 35.6686C41.5926 33.6989 41.5926 33.6832 41.1356 33.2262C40.6472 32.7377 40.3005 32.6747 39.7805 32.9583Z" fill="#B3B3B3"/>
<path d="M-4.18367 34.3766C-4.98732 34.8021 -5.12913 35.7002 -4.49883 36.3148L-4.12064 36.7087H4.62491C9.43102 36.7087 13.4808 36.6615 13.6226 36.6142C14.0008 36.4566 14.3474 35.6687 14.2371 35.2118C14.1899 34.9911 13.9535 34.676 13.7486 34.5027C13.3547 34.2033 13.0868 34.1875 4.73521 34.1875C-1.1897 34.2033 -3.96306 34.2505 -4.18367 34.3766Z" fill="#B3B3B3"/>
<path d="M4.36588 45.3939C3.75133 45.9927 3.94042 47.0012 4.71255 47.3479C5.24832 47.5842 12.7902 47.5842 13.326 47.3479C13.8933 47.08 14.1454 46.3866 13.8933 45.7879C13.783 45.52 13.5624 45.2363 13.4048 45.1575C13.2472 45.063 10.7733 45 7.43261 45H4.74407L4.36588 45.3939Z" fill="#B3B3B3"/>
<path d="M8.31383 51.4096C7.87262 51.9612 7.90413 52.4654 8.36111 53.0012L8.73929 53.4424H9.76971H16.8001L17.2098 53.0642C17.7141 52.5915 17.7456 51.9769 17.2886 51.4096L16.9735 50.9999H9.80123H8.62899L8.31383 51.4096Z" fill="#B3B3B3"/>
<path d="M2.10385 63.0243C1.66263 63.1976 1.25293 63.7806 1.25293 64.2534C1.25293 64.4425 1.42626 64.7891 1.64687 64.994L2.02506 65.3879H14.1428C25.4568 65.3879 26.292 65.3722 26.6071 65.1043C27.1429 64.6631 27.1902 63.954 26.7332 63.4025L26.3393 62.9455L14.3791 62.914C7.80815 62.8982 2.27718 62.9455 2.10385 63.0243Z" fill="#B3B3B3"/>
</g>
<defs>
<clipPath id="clip0_512_535">
<rect width="80" height="80" rx="40" fill="white"/>
</clipPath>
</defs>
</svg>
