<svg width="46" height="45" viewBox="0 0 46 45" fill="none" xmlns="http://www.w3.org/2000/svg">
<path d="M19.0667 6.7936C15.3558 7.06034 11.8551 8.36171 8.89611 10.5684C7.78851 11.3928 5.85626 13.3247 5.03162 14.4321C3.0347 17.1156 1.81391 20.1306 1.35308 23.5497C1.21564 24.5358 1.21564 27.2517 1.35308 28.2378C1.95943 32.6997 3.86742 36.5229 7.04471 39.6026C10.0765 42.5529 13.7308 44.315 18.0157 44.8969C19.002 45.0344 21.7185 45.0344 22.7048 44.8969C26.1327 44.4362 29.1321 43.2238 31.8324 41.2192C32.9158 40.4028 34.8561 38.4709 35.6646 37.3878C39.8363 31.8025 40.669 24.4873 37.8474 18.1017C35.7697 13.3813 31.4929 9.461 26.6259 7.80398C24.2409 6.9876 21.4517 6.61578 19.0667 6.7936ZM22.535 10.1804C28.9866 11.118 34.1851 15.7981 35.7616 22.0948C36.1254 23.5416 36.2305 24.5682 36.182 26.2979C36.1416 27.866 36.0526 28.5612 35.7292 29.8302C34.2902 35.4317 29.8112 39.8774 24.16 41.2919C21.7589 41.8981 18.9616 41.8981 16.5604 41.2919C10.2705 39.7157 5.58138 34.5183 4.64356 28.0681C4.47378 26.9446 4.47378 24.843 4.64356 23.7194C4.9912 21.3026 5.84009 19.096 7.17407 17.1156C9.71267 13.3247 13.6014 10.8674 18.1369 10.1804C19.1556 10.0187 21.4678 10.0187 22.535 10.1804Z" fill="#B3B3B3"/>
<path d="M16.3179 14.5048C15.9136 14.626 15.5337 14.9413 15.3477 15.305C15.1941 15.6122 15.186 15.79 15.186 20.0336V24.4388H14.4018C13.5206 24.4388 13.1244 24.5682 12.7444 24.9723C12.4534 25.2875 12.3564 25.5704 12.3564 26.1282C12.3564 26.5 12.4049 26.6617 12.5908 26.9607C12.9465 27.5104 13.3346 27.672 14.3614 27.672H15.186V29.0577H14.4018C13.5206 29.0577 13.1244 29.187 12.7444 29.5912C12.4534 29.9064 12.3564 30.1893 12.3564 30.7309C12.3564 31.3129 12.6312 31.8059 13.1163 32.0888C13.4235 32.2666 13.5448 32.2909 14.3209 32.2909H15.186V34.9467C15.186 36.0056 15.2103 36.2077 15.3477 36.4825C15.8409 37.4525 17.191 37.6303 17.951 36.8301C18.3471 36.4179 18.4199 36.1107 18.4199 34.8659V32.2909H20.6028C22.9069 32.2909 23.0363 32.2747 23.4648 31.8948C24.0469 31.3856 24.0954 30.1893 23.5456 29.6073C23.0605 29.09 22.8907 29.0577 20.5462 29.0577H18.4199V27.6882L20.7483 27.6559L23.0686 27.6316L23.8366 27.3649C24.8391 27.0173 25.5749 26.5727 26.3106 25.8695C27.305 24.9319 27.9033 23.9053 28.2186 22.5878C28.4368 21.6502 28.3964 20.0012 28.1215 19.1444C27.5556 17.3743 26.3672 15.9678 24.7664 15.1757C23.4082 14.5048 23.1818 14.4725 19.673 14.4482C17.7084 14.4321 16.4957 14.4563 16.3179 14.5048ZM23.1252 18.029C24.6775 18.7645 25.4536 20.4216 24.9847 21.9816C24.6775 23 23.9256 23.8245 22.9473 24.2125C22.535 24.3822 22.341 24.3984 20.4653 24.4227L18.4199 24.455V17.7218L22.5835 17.7703L23.1252 18.029Z" fill="#B3B3B3"/>
<path fill-rule="evenodd" clip-rule="evenodd" d="M25.868 0.0418945C22.3026 0.298174 18.9392 1.54851 16.0963 3.66863C15.0321 4.46077 13.1756 6.31685 12.3833 7.3808C11.2334 8.92613 10.3513 10.5859 9.7338 12.375L14.4418 9.95912C16.8808 6.31685 20.617 3.95598 24.9747 3.29586C25.9534 3.14054 28.175 3.14054 29.2003 3.29586C35.3989 4.19672 40.3935 8.69326 41.9082 14.743C42.2577 16.1331 42.3587 17.1194 42.3121 18.7813C42.2733 20.2879 42.1878 20.9558 41.8771 22.1751C41.1557 24.9831 39.6392 27.4889 37.5825 29.4363L36.125 34.4235C36.8138 34.0356 37.4825 33.6004 38.1331 33.1174C39.174 32.3331 41.0382 30.477 41.815 29.4363C45.8231 24.07 46.6232 17.0417 43.9123 10.9066C41.916 6.37121 37.8069 2.60469 33.1307 1.01265C30.8393 0.228279 28.1594 -0.128958 25.868 0.0418945Z" fill="#B3B3B3"/>
</svg>
