<svg width="26" height="25" viewBox="0 0 26 25" fill="none" xmlns="http://www.w3.org/2000/svg">
<path d="M13 0C6.1 0 0.5 5.6 0.5 12.5C0.5 19.4 6.1 25 13 25C19.9 25 25.5 19.4 25.5 12.5C25.5 5.6 19.9 0 13 0ZM18.8 8.5C18.6125 10.475 17.8 15.275 17.3875 17.4875C17.2125 18.425 16.8625 18.7375 16.5375 18.775C15.8125 18.8375 15.2625 18.3 14.5625 17.8375C13.4625 17.1125 12.8375 16.6625 11.775 15.9625C10.5375 15.15 11.3375 14.7 12.05 13.975C12.2375 13.7875 15.4375 10.875 15.5 10.6125C15.5087 10.5727 15.5075 10.5315 15.4966 10.4923C15.4857 10.453 15.4654 10.4171 15.4375 10.3875C15.3625 10.325 15.2625 10.35 15.175 10.3625C15.0625 10.3875 13.3125 11.55 9.9 13.85C9.4 14.1875 8.95 14.3625 8.55 14.35C8.1 14.3375 7.25 14.1 6.6125 13.8875C5.825 13.6375 5.2125 13.5 5.2625 13.0625C5.2875 12.8375 5.6 12.6125 6.1875 12.375C9.8375 10.7875 12.2625 9.7375 13.475 9.2375C16.95 7.7875 17.6625 7.5375 18.1375 7.5375C18.2375 7.5375 18.475 7.5625 18.625 7.6875C18.75 7.7875 18.7875 7.925 18.8 8.025C18.7875 8.1 18.8125 8.325 18.8 8.5Z" fill="#003A69"/>
</svg>
