<svg width="61" height="60" viewBox="0 0 61 60" fill="none" xmlns="http://www.w3.org/2000/svg">
<path fill-rule="evenodd" clip-rule="evenodd" d="M39 19.5C39 30.2696 30.2696 39 19.5 39C8.73045 39 0 30.2696 0 19.5C0 8.73045 8.73045 0 19.5 0C30.2696 0 39 8.73045 39 19.5ZM19.5 35C28.0604 35 35 28.0604 35 19.5C35 10.9396 28.0604 4 19.5 4C10.9396 4 4 10.9396 4 19.5C4 28.0604 10.9396 35 19.5 35Z" fill="#B3B3B3"/>
<path fill-rule="evenodd" clip-rule="evenodd" d="M61 19.5C61 30.2696 52.2696 39 41.5 39C30.7304 39 22 30.2696 22 19.5C22 8.73045 30.7304 0 41.5 0C52.2696 0 61 8.73045 61 19.5ZM41.5 35C50.0604 35 57 28.0604 57 19.5C57 10.9396 50.0604 4 41.5 4C32.9396 4 26 10.9396 26 19.5C26 28.0604 32.9396 35 41.5 35Z" fill="#B3B3B3"/>
<path fill-rule="evenodd" clip-rule="evenodd" d="M50 40.5C50 51.2696 41.2696 60 30.5 60C19.7304 60 11 51.2696 11 40.5C11 29.7304 19.7304 21 30.5 21C41.2696 21 50 29.7304 50 40.5ZM30.5 56C39.0604 56 46 49.0604 46 40.5C46 31.9396 39.0604 25 30.5 25C21.9396 25 15 31.9396 15 40.5C15 49.0604 21.9396 56 30.5 56Z" fill="#B3B3B3"/>
</svg>
