<svg width="26" height="25" viewBox="0 0 26 25" fill="none" xmlns="http://www.w3.org/2000/svg">
<path d="M13 0C6.09635 0 0.5 5.59635 0.5 12.5C0.5 19.4036 6.09635 25 13 25C19.9036 25 25.5 19.4036 25.5 12.5C25.5 5.59635 19.9036 0 13 0ZM17.8073 14.1029C17.8073 14.1029 18.9128 15.194 19.1849 15.7005C19.1927 15.7118 19.1975 15.7205 19.1992 15.7266C19.3095 15.9115 19.3368 16.0577 19.2812 16.1654C19.1901 16.3451 18.8776 16.4336 18.7708 16.4414H16.8177C16.6823 16.4414 16.3984 16.4062 16.0547 16.1693C15.7904 15.9844 15.5299 15.681 15.276 15.3854C14.8971 14.9453 14.569 14.5651 14.2383 14.5651C14.1963 14.5649 14.1545 14.5715 14.1146 14.5846C13.8646 14.6654 13.5443 15.0221 13.5443 15.9727C13.5443 16.2695 13.3099 16.4401 13.1445 16.4401H12.25C11.9453 16.4401 10.3581 16.3333 8.95182 14.8503C7.23047 13.0339 5.68099 9.39062 5.66797 9.35677C5.57031 9.12109 5.77213 8.99479 5.99219 8.99479H7.96484C8.22786 8.99479 8.3138 9.15495 8.3737 9.29687C8.44401 9.46224 8.70182 10.1198 9.125 10.8594C9.8112 12.0651 10.2318 12.5547 10.569 12.5547C10.6322 12.5539 10.6944 12.5379 10.75 12.5078C11.1901 12.263 11.1081 10.694 11.0885 10.3685C11.0885 10.3073 11.0872 9.66667 10.862 9.35937C10.7005 9.13672 10.4258 9.05208 10.2591 9.02083C10.3266 8.92775 10.4154 8.85227 10.5182 8.80078C10.8203 8.64974 11.3646 8.6276 11.9049 8.6276H12.2057C12.7917 8.63542 12.9427 8.67318 13.1549 8.72656C13.5846 8.82943 13.5938 9.10677 13.556 10.056C13.5443 10.3255 13.5326 10.6302 13.5326 10.9896L13.5286 11.2396C13.5156 11.7227 13.5 12.2708 13.8411 12.4961C13.8851 12.5251 13.9369 12.5401 13.9896 12.5391C14.1081 12.5391 14.4648 12.5391 15.431 10.8815C15.7278 10.3474 15.9867 9.7931 16.2057 9.22266C16.2253 9.1888 16.2826 9.08463 16.3503 9.04427C16.4008 9.02027 16.4558 9.0074 16.5117 9.00651H18.8307C19.0833 9.00651 19.2565 9.04427 19.2891 9.14193C19.3464 9.29687 19.2786 9.76953 18.2201 11.2031L17.7474 11.8268C16.7878 13.0846 16.7878 13.1484 17.8073 14.1029Z" fill="#003A69"/>
</svg>
