<svg width="26" height="25" viewBox="0 0 26 25" fill="none" xmlns="http://www.w3.org/2000/svg">
<path d="M21.8568 3.63756C20.7049 2.48019 19.3329 1.56252 17.821 0.938018C16.309 0.313515 14.6873 -0.00532895 13.0502 6.73687e-05C6.19095 6.73687e-05 0.600503 5.56255 0.600503 12.3875C0.600503 14.4344 1.10649 16.4266 2.05671 18.2104C2.18214 18.4459 2.21917 18.7198 2.14873 18.9771L0.5 25L6.71322 23.375C6.95882 23.3108 7.21887 23.3439 7.44575 23.4578C9.17772 24.3272 11.0975 24.7875 13.0502 24.7875C19.9095 24.7875 25.5 19.225 25.5 12.4C25.5 9.08754 24.206 5.97505 21.8568 3.63756ZM13.0502 22.6875C11.191 22.6875 9.36935 22.1875 7.77387 21.25L7.75697 21.2399C7.52669 21.1024 7.25084 21.0632 6.99137 21.1311L3.47739 22.05L4.40144 18.6824C4.47693 18.4074 4.43134 18.1131 4.27614 17.8738L4.26884 17.8625C3.23561 16.2213 2.68709 14.3241 2.68593 12.3875C2.68593 6.71255 7.33417 2.08756 13.0377 2.08756C15.8015 2.08756 18.402 3.16256 20.3492 5.11255C21.3136 6.06738 22.0778 7.20323 22.5975 8.45421C23.1172 9.70518 23.3822 11.0464 23.3769 12.4C23.402 18.075 18.7538 22.6875 13.0502 22.6875ZM18.7286 14.9875C18.4146 14.8375 16.8819 14.0875 16.6055 13.975C16.3166 13.875 16.1156 13.825 15.902 14.125C15.6884 14.4375 15.098 15.1375 14.9221 15.3375C14.7462 15.55 14.5578 15.575 14.2437 15.4125C13.9296 15.2625 12.9246 14.925 11.7437 13.875C10.8141 13.05 10.1985 12.0375 10.01 11.725C9.83417 11.4125 9.98492 11.25 10.1482 11.0875C10.2864 10.95 10.4623 10.725 10.6131 10.55C10.7638 10.375 10.8266 10.2375 10.9271 10.0375C11.0276 9.82504 10.9774 9.65004 10.902 9.50004C10.8266 9.35004 10.1985 7.82505 9.94723 7.20005C9.69598 6.60005 9.43216 6.67505 9.24372 6.66255H8.6407C8.42713 6.66255 8.1005 6.73755 7.81156 7.05005C7.53518 7.36255 6.73116 8.11255 6.73116 9.63754C6.73116 11.1625 7.84925 12.6375 8 12.8375C8.15075 13.05 10.1985 16.175 13.3141 17.5125C14.0553 17.8375 14.6332 18.025 15.0854 18.1625C15.8266 18.4 16.505 18.3625 17.0452 18.2875C17.6482 18.2 18.892 17.5375 19.1432 16.8125C19.407 16.0875 19.407 15.475 19.3191 15.3375C19.2312 15.2 19.0427 15.1375 18.7286 14.9875Z" fill="#003A69"/>
</svg>
