<?xml version="1.0" encoding="utf-8"?><svg viewBox="0 0 198 130" xmlns="http://www.w3.org/2000/svg" xmlns:xlink="http://www.w3.org/1999/xlink"><style>:root>svg{display:none}:root>svg:target{display:block}</style><svg fill="none" viewBox="0 0 18 8" id="arrow-dropdown" xmlns="http://www.w3.org/2000/svg"><path d="m1.5 1.5 7.5 5 7.5-5" stroke="currentColor" stroke-width="2" stroke-linecap="round" stroke-linejoin="round"/></svg><svg fill="none" viewBox="0 0 16 22" id="arrow-up" xmlns="http://www.w3.org/2000/svg"><path d="M9.031.585a1.444 1.444 0 0 0-.477-.303 1.358 1.358 0 0 0-1.097 0c-.178.069-.34.172-.477.303L1.202 6.363a1.45 1.45 0 0 0 2.051 2.051l3.308-3.322v15.297a1.444 1.444 0 1 0 2.889 0V5.092l3.308 3.322a1.45 1.45 0 0 0 2.05-2.051L9.032.585Z" fill="currentColor"/></svg><svg fill="none" viewBox="0 0 46 45" id="bottle" xmlns="http://www.w3.org/2000/svg"><path d="m29.052 6.297-.314.305-.023 2.734-.023 2.735-.255.046c-.15.022-.367.114-.487.205-.435.32-.45.389-.45 2.811v2.209l-3.09 2.11c-1.702 1.158-3.18 2.178-3.27 2.27-.405.365-.39.084-.39 6.954 0 6.627.023 7.138.33 8.516.42 1.867 1.283 3.718 2.475 5.332.518.701 1.838 2.08 2.22 2.316l.263.16h14.174l.263-.16c.383-.236 1.703-1.615 2.22-2.316a14.184 14.184 0 0 0 2.73-6.893c.045-.389.075-3.138.075-7.016v-6.367l-.165-.26c-.172-.25-.945-.792-5.16-3.587L38.6 17.35v-2.148c0-2.019-.008-2.164-.157-2.476-.12-.251-.233-.366-.526-.495l-.367-.175V10.57h.735c.54 0 .795-.03.99-.137.81-.411.81-1.615 0-2.049-.27-.145-.442-.175-1.02-.175h-.69l-.03-.807-.022-.8-.316-.305L36.883 6h-7.516l-.315.297Zm6.173 3.893v1.904h-4.2V8.285h4.2v1.905Zm1.05 5.446v1.18h-6.45v-2.36h6.45v1.18Zm-4.425 7.122v3.58h-8.775V23.23l2.978-2.026 2.977-2.026h2.82v3.58Zm8.273-1.546 3.052 2.026v3.1h-9v-7.16h2.888l3.06 2.034Zm-8.258 11.631c.023 4.052.023 4.151.18 4.357.247.343.525.51.907.54.443.039.81-.136 1.05-.502l.173-.259V28.7h9.015l-.037 3.481-.03 3.489-.203.876c-.345 1.44-.892 2.75-1.642 3.885-.45.685-1.328 1.752-1.695 2.064l-.27.22H26.938l-.27-.22c-.368-.312-1.245-1.379-1.695-2.064-.75-1.135-1.298-2.445-1.643-3.885l-.202-.876-.03-3.489-.03-3.48h8.775l.022 4.143Z" fill="#B3B3B3"/><path fill-rule="evenodd" clip-rule="evenodd" d="M10.399.185c-.563.36-.59.483-.616 3.085l-.026 2.337-.984.036c-1.125.026-1.345.123-1.644.738-.158.325-.176.527-.176 2.593v2.24l-.72.106c-2.26.325-3.859 2.154-3.859 4.412 0 .413.185 2.743.404 5.186.396 4.263.413 4.526.36 6.548-.026 1.16-.087 2.426-.14 2.812-.053.387-.475 2.778-.94 5.318-.783 4.298-.835 4.676-.8 5.502.035.764.079.967.325 1.485.15.334.413.773.58.976.413.5 1.257 1.054 1.951 1.265.554.167.809.176 9.87.176 9.062 0 9.317-.009 9.87-.176.695-.21 1.539-.764 1.952-1.265l-2.022-1.881c-.096.132-.334.325-.527.44l-.352.201h-8.92c-8.35 0-8.94-.009-9.203-.158-.571-.308-.835-.72-.826-1.336 0-.193.352-2.311.791-4.702 1.037-5.678 1.064-5.906 1.116-8.745.044-2.32.035-2.487-.386-6.987-.3-3.279-.405-4.72-.352-4.966.123-.554.448-.967.958-1.222l.466-.228H21.42l.466.228c.641.325.914.756.958 1.52.017.317-.158 2.576-.378 5.02l2.817-.868c.177-2.027.312-3.79.312-4.143 0-2.267-1.6-4.086-3.85-4.412l-.73-.105v-2.25c0-2.18-.008-2.268-.201-2.637-.3-.571-.625-.703-1.706-.703h-.896l-.026-2.355C18.159.66 18.133.536 17.562.185 17.272.009 17.157 0 13.976 0c-3.19 0-3.296.009-3.578.185Zm5.08 3.946v1.494H12.49V2.637h2.989V4.13ZM18.29 9.8v1.45H9.678v-2.9h8.613V9.8Z" fill="#B3B3B3"/></svg><svg fill="none" viewBox="0 0 60 60" id="box" xmlns="http://www.w3.org/2000/svg"><path d="M31.14 3.905a1.58 1.58 0 0 0-1.28 0L9.347 12.899l8.263 3.621 21.155-9.273-7.625-3.342Zm12.25 5.373-21.154 9.273 8.264 3.622 21.154-9.274-8.263-3.621Zm11.172 6.406L32.22 25.48v29.85l22.343-9.796v-29.85Zm-25.78 39.652V25.477L6.436 15.684v29.855l22.344 9.797ZM28.584.404a4.738 4.738 0 0 1 3.83 0L56.92 11.151c.318.14.591.381.784.693.192.311.295.679.295 1.055v32.64c0 .752-.207 1.488-.592 2.111a3.518 3.518 0 0 1-1.57 1.385l-24.699 10.83c-.41.18-.868.18-1.278 0L5.166 49.035a3.517 3.517 0 0 1-1.573-1.384A4.028 4.028 0 0 1 3 45.538V12.9c0-.376.103-.744.295-1.055.193-.312.466-.553.784-.693L28.585.404Z" fill="#B3B3B3"/></svg><svg fill="none" viewBox="0 0 24 24" id="bracket-gt" xmlns="http://www.w3.org/2000/svg"><path d="M8.4 1.2 6.72 3l8.88 9-8.88 9 1.68 1.8L19.2 12 8.4 1.2Z" fill="currentColor"/></svg><svg fill="none" viewBox="0 0 24 24" id="bracket-lt" xmlns="http://www.w3.org/2000/svg"><path d="m15.6 22.8 1.68-1.8-8.88-9 8.88-9-1.68-1.8L4.8 12l10.8 10.8Z" fill="currentColor"/></svg><svg fill="none" viewBox="0 0 46 45" id="certification" xmlns="http://www.w3.org/2000/svg"><path d="M20.153 1.255a4.292 4.292 0 0 1 5.794-.249l.275.251 4.077 4.075h5.764a4.292 4.292 0 0 1 4.279 3.97l.012.322v5.764l4.078 4.077a4.291 4.291 0 0 1 .248 5.796l-.25.273-4.078 4.077v5.764a4.292 4.292 0 0 1-3.97 4.281l-.32.01h-5.761l-4.077 4.078a4.291 4.291 0 0 1-5.796.249l-.273-.249-4.077-4.077h-5.766a4.292 4.292 0 0 1-4.28-3.97l-.011-.322V29.61l-4.077-4.077a4.292 4.292 0 0 1-.25-5.796l.25-.273 4.077-4.077V9.624a4.292 4.292 0 0 1 3.97-4.279l.321-.013h5.764l4.077-4.077Zm3.035 3.039L19.11 8.37a4.292 4.292 0 0 1-2.656 1.238l-.378.015h-5.764v5.764a4.292 4.292 0 0 1-1.002 2.757l-.255.28-4.077 4.077 4.077 4.075a4.292 4.292 0 0 1 1.24 2.656l.017.378v5.764h5.764c1.008 0 1.985.355 2.758 1.002l.279.255 4.075 4.078 4.077-4.078a4.292 4.292 0 0 1 2.656-1.24l.378-.017h5.764V29.61c0-1.008.354-1.985 1.002-2.758l.255-.278 4.077-4.075-4.077-4.078a4.292 4.292 0 0 1-1.24-2.656l-.017-.378V9.624h-5.764a4.292 4.292 0 0 1-2.758-1.002l-.279-.255-4.077-4.078.003.005Zm6.609 11.734a2.146 2.146 0 0 1 3.212 2.832l-.18.202-10.472 10.472a2.36 2.36 0 0 1-3.133.184l-.206-.182-5.159-5.159a2.146 2.146 0 0 1 2.833-3.214l.202.178 3.794 3.794 9.109-9.108Z" fill="#B3B3B3"/></svg><svg fill="none" viewBox="0 0 81 80" id="choice" xmlns="http://www.w3.org/2000/svg"><g clip-path="url(#aha)"><rect x=".5" width="80" height="80" rx="40" fill="#E6E6E6"/><path d="M16.774 18.227c-.196.113-.45.392-.568.598C16 19.217 16 19.258 16 28c0 8.763 0 8.783.206 9.175.117.217.372.485.578.608.372.217.391.217 8.726.217h8.364l.382-.237c.205-.124.46-.392.558-.588.176-.34.186-.783.186-9.175 0-8.392-.01-8.835-.186-9.175a1.737 1.737 0 0 0-.558-.588L33.874 18H25.5c-8.344 0-8.374.01-8.726.227Zm23.163-1.955c-.237.136-.546.47-.688.718-.249.47-.249.52-.249 10.96 0 10.231 0 10.504.237 10.999.154.321.403.606.7.779l.462.272h20.238l.462-.285c.249-.148.557-.47.676-.705.213-.408.225-.94.225-11.01s-.012-10.602-.225-11.01c-.119-.235-.427-.557-.676-.705L60.637 16H50.5c-10.101 0-10.137.012-10.563.272Zm14.357 7.67c.842.458 1.21 1.584.782 2.425-.095.186-1.15 1.348-2.347 2.573-1.944 2.017-2.217 2.264-2.668 2.338-.794.136-1.34-.222-2.786-1.756-.7-.743-1.328-1.497-1.387-1.695-.569-1.534.83-3.006 2.3-2.425.166.062.605.408.96.767l.652.643 1.388-1.447c1.695-1.77 2.098-1.955 3.106-1.423Zm-4.93 18.178c-.92.29-1.367.555-2.003 1.223-1.15 1.198-1.083.391-1.15 12.94-.054 10.668-.054 11.135-.312 11.513-.617.456-1.134.456-1.857-.025-.298-.543-.312-2.23-.312-5.95V58l-2.23.328c-.825.542-1.867 1.614-2.368 2.421-1.475 2.396-1.543 11.292 0 15.618.853 2.383 2.193 5.536 2.53 5.94.596.706.38.693 10.68.693 10.394 0 10.083.025 10.665-.744.135-.177.798-1.665 1.462-3.292 2.382-5.8 2.747-11.546 2.436-13.11-.365-1.829-1.719-3.493-3.451-4.288-.745-.34-1.828-.618-4.778-1.223l-4.934-.782-.041-7.314c-.04-7.315-.04-7.327-.352-7.907-.758-1.438-.912-2.258-2.537-2.334-.527-.025-1.136.026-1.448.114Zm-32.59.095c-.196.108-.45.373-.568.568C16 43.156 16 43.195 16 51.5c0 8.325 0 8.344.206 8.717a1.8 1.8 0 0 0 .578.577c.372.206.391.206 8.726.206h8.364l.382-.225c.205-.118.46-.372.558-.558.176-.324.186-.745.186-8.717s-.01-8.393-.186-8.717c-.098-.186-.353-.44-.558-.558L33.874 42H25.5c-8.344 0-8.374.01-8.726.215Z" fill="#B3B3B3"/></g><defs><clipPath id="aha"><rect x=".5" width="80" height="80" rx="40" fill="#fff"/></clipPath></defs></svg><svg fill="none" viewBox="0 0 30 30" id="cross" xmlns="http://www.w3.org/2000/svg"><path d="M7.93 22.071a1 1 0 0 1 0-1.414L20.658 7.929a1 1 0 1 1 1.414 1.414L9.344 22.071a1 1 0 0 1-1.414 0Z" fill="currentColor"/><path d="M22.07 22.071a1 1 0 0 0 0-1.414L9.342 7.929a1 1 0 1 0-1.414 1.414l12.728 12.728a1 1 0 0 0 1.414 0Z" fill="currentColor"/></svg><svg fill="none" viewBox="0 0 46 45" id="delivery-truck" xmlns="http://www.w3.org/2000/svg"><g clip-path="url(#aja)" stroke="#B3B3B3" stroke-width="3.094" stroke-linecap="round" stroke-linejoin="round"><path d="M38.469 35.344a5.156 5.156 0 1 1-10.312 0 5.156 5.156 0 0 1 10.312 0Zm-20.625 0a5.156 5.156 0 1 1-10.312 0 5.156 5.156 0 0 1 10.312 0Z"/><path d="M28.156 35.344H17.844M2.375 7.5H23c2.916 0 4.375 0 5.28.908.907.903.907 2.361.907 5.28v17.53m1.032-18.562h3.714c1.712 0 2.568 0 3.278.402.709.4 1.148 1.135 2.029 2.603l3.504 5.837c.437.73.656 1.097.77 1.502.11.406.11.83.11 1.683v5.504c0 1.929 0 2.892-.414 3.61-.271.47-.662.86-1.132 1.132-.718.415-1.68.415-3.61.415M2.376 26.062v4.125c0 1.929 0 2.892.415 3.61.271.47.662.86 1.132 1.132.718.415 1.68.415 3.61.415M2.374 13.687H14.75M2.375 19.875h8.25"/></g><defs><clipPath id="aja"><path fill="#fff" transform="translate(.5)" d="M0 0h45v45H0z"/></clipPath></defs></svg><svg fill="none" viewBox="0 0 80 80" id="design" xmlns="http://www.w3.org/2000/svg"><rect width="80" height="80" rx="40" fill="#E6E6E6"/><path d="M14.468 15.725c-1.624.305-2.72 1.623-2.734 3.316 0 .999.292 1.72.972 2.414 1.65 1.637 4.44 1.166 5.452-.943.347-.694.389-2.067.097-2.775-.596-1.443-2.22-2.303-3.787-2.012Zm23.384-3.671c-11.663.752-21.26 10.333-22.042 21.995-.314 4.65.547 8.83 2.66 12.884 1.206 2.333 2.521 4.086 4.54 6.043 1.895 1.816 3.836 3.194 6.09 4.305.877.423 1.707.861 1.816.955.173.141.22.705.22 2.349v2.175h3.131V32.484l2.38-3.976c2.41-4.04 2.817-4.525 3.334-4.102.14.11 1.315 1.973 2.63 4.133l2.38 3.93.046 15.138.032 15.154h2.974v-2.02c0-1.111.047-2.145.094-2.27.062-.14.845-.626 1.769-1.08 2.129-1.065 3.507-1.957 5.26-3.428 3.85-3.257 6.669-7.953 7.765-12.963 2.426-11.146-3.35-22.465-13.824-27.051-3.506-1.535-7.17-2.145-11.255-1.895Zm4.602 4.76c1.738.266 4.274 1.064 5.777 1.815 3.585 1.816 6.763 5.01 8.579 8.61 1.22 2.458 2.035 5.59 2.035 7.906 0 1.534.188 1.472-4.572 1.472-3.584 0-4.132-.031-4.383-.266-.344-.313-.36-.642-.016-1.018.235-.25.564-.282 3.852-.282h3.6l-.11-1.127c-.39-3.866-2.254-7.733-5.15-10.63a17.75 17.75 0 0 0-9.487-4.9c-4.696-.798-9.674.376-13.494 3.21-2.051 1.518-4.243 4.117-5.37 6.371-.845 1.675-1.816 5.26-1.816 6.7v.376h3.554c3.084 0 3.585.032 3.835.267.345.313.36.72.032 1.048-.36.376-8.376.376-8.736 0-.313-.313-.328-1.377-.031-3.35.626-4.148 2.458-7.718 5.48-10.739 4.398-4.415 10.331-6.387 16.421-5.463Zm19.893 2.366c-.776.305-1.012 1.553-.416 2.15.444.444.958.555 1.485.347.54-.222.818-.638.818-1.22 0-.611-.194-.944-.693-1.208-.444-.236-.75-.25-1.194-.07Z" fill="#B3B3B3"/><path d="M39.244 27.161c-.22.345-1.096 1.816-1.972 3.272l-1.597 2.661v3.523h7.827v-3.585l-1.941-3.225-1.941-3.24-.376.594Zm-3.569 23.31v12.29h3.131v-24.58h-3.131v12.29Zm4.696 0v12.29h3.131v-24.58h-3.131v12.29Zm26.071 6.349c-2.137.806-3.233 2.748-2.705 4.829.402 1.554 1.526 2.678 3.01 3.038 3.344.805 6.105-2.705 4.551-5.799-.694-1.415-1.79-2.123-3.385-2.206-.597-.028-1.166.028-1.471.139ZM29.57 66.674v2.348h20.038v-4.696H29.569v2.348ZM11.624 65.09c-1.013.402-1.706 1.027-2.178 1.984-1.554 3.108 1.193 6.604 4.55 5.8 1.499-.361 2.609-1.485 3.011-3.067.208-.79.208-.943 0-1.748-.61-2.497-3.094-3.857-5.383-2.97Zm17.946 7.141c0 .924.078 1.8.187 2.036.392.86.298.86 9.816.86 6.465 0 8.876-.046 9.174-.187.688-.313.86-.877.86-2.709v-1.643H29.57v1.644Zm7.702 5.715c.078 1.737.14 1.8 2.332 1.8 1.628 0 1.754-.016 2.035-.376.235-.281.298-.61.298-1.518v-1.159h-4.728l.063 1.253Z" fill="#B3B3B3"/></svg><svg fill="none" viewBox="0 0 80 80" id="development" xmlns="http://www.w3.org/2000/svg"><rect width="80" height="80" rx="40" fill="#E6E6E6"/><path d="M40.387 8.1c-2.227.222-4.972.977-6.812 1.874l-.575.282 1.443 3.264c.802 1.793 1.472 3.284 1.5 3.305.029.03.359-.081.736-.252 1.736-.766 3.632-1.159 5.736-1.159 3.293-.01 6.132.917 8.774 2.871.443.323.934.695 1.085.836l.283.252-1.699 1.814L49.16 23H61V10.357l-1.764 1.884-1.774 1.884-.802-.706c-1.556-1.38-3.632-2.73-5.377-3.495-3.51-1.562-7.255-2.186-10.896-1.824Zm-28.15 11.664 1.885 1.774-.716.802c-3.91 4.386-5.875 10.349-5.31 16.132.231 2.396.936 5.037 1.874 6.953l.282.575 3.265-1.443c1.794-.802 3.285-1.472 3.305-1.5.03-.029-.08-.359-.252-.736-1.45-3.264-1.562-7.434-.302-10.83.575-1.548 1.784-3.567 2.852-4.765l.252-.283 1.814 1.698L23 29.84V18H10.353l1.884 1.764Zm53.247 12.825c-1.794.878-3.285 1.62-3.305 1.651-.03.032.08.397.252.815.403 1.004.786 2.425.987 3.7.202 1.244.232 3.91.05 5.111-.282 1.892-1.058 4.338-1.854 5.8-.332.639-1.34 2.175-1.733 2.666l-.252.314-1.815-1.882L56 48.884V62h12.65l-1.885-1.965-1.885-1.954.705-.889c5.625-7.044 6.985-16.848 3.528-25.387-.171-.429-.323-.794-.343-.805-.01-.01-1.491.7-3.285 1.589ZM18 62.319v6.329l1.9-1.885 1.89-1.884.86.715c1.597 1.32 4.002 2.782 5.862 3.538 6.105 2.49 12.594 2.49 18.609.01l.879-.363-.334-.715c-.596-1.31-2.78-5.846-2.82-5.896-.03-.02-.384.09-.788.262-.97.403-2.345.786-3.578.987-1.213.202-3.79.232-4.943.05-1.92-.291-4.134-1.027-5.61-1.853-.606-.333-2.102-1.34-2.577-1.734l-.303-.252 1.819-1.814L30.686 56H18v6.319Zm19.894-31.722c-3.46.658-6.165 3.2-7.12 6.697-.289 1.045-.289 3.28 0 4.344.901 3.308 3.217 5.65 6.462 6.552.802.225 1.046.253 2.298.253 1.253 0 1.497-.028 2.299-.253 2.18-.604 3.992-1.902 5.218-3.74.55-.83.91-1.632 1.208-2.704.216-.775.243-1.037.243-2.271 0-1.253-.027-1.497-.252-2.299-.892-3.226-3.254-5.57-6.508-6.444-.946-.252-2.857-.324-3.848-.135Z" fill="#B3B3B3"/><path d="M37.204 25.114c-.563 2.503-.69 2.962-.884 3.146-.356.333-2.434 1.16-2.71 1.067-.138-.046-1.01-.55-1.929-1.136l-1.688-1.068-1.435 1.458-1.447 1.447 1.08 1.71c.666 1.045 1.09 1.838 1.09 2.021 0 .38-.769 2.285-1.033 2.572-.195.195-.907.39-3.352.93l-.896.195v4.088l.896.195c2.445.54 3.157.735 3.352.93.264.287 1.034 2.193 1.034 2.572 0 .183-.425.976-1.091 2.02l-1.08 1.711 1.447 1.447 1.435 1.458 1.688-1.068c.919-.585 1.791-1.09 1.929-1.136.276-.092 2.354.734 2.71 1.067.195.184.321.643.884 3.135L37.456 55h1.987c1.102 0 2.02-.046 2.055-.092.023-.046.24-.918.47-1.917.219-1.01.46-1.952.529-2.09.069-.126.321-.321.55-.413.23-.104.793-.345 1.252-.54.517-.218.93-.333 1.068-.287.126.046.999.563 1.917 1.148l1.688 1.08 1.412-1.401c.77-.77 1.401-1.447 1.401-1.504 0-.058-.47-.85-1.045-1.757-.574-.918-1.067-1.757-1.102-1.871-.046-.184.448-1.55.907-2.492.16-.333.402-.413 2.492-.895.964-.219 1.802-.437 1.86-.471.137-.08.137-3.915 0-3.996-.058-.034-.896-.252-1.86-.47-2.09-.483-2.331-.563-2.492-.896-.46-.942-.953-2.308-.907-2.492.035-.114.528-.953 1.102-1.871.574-.907 1.045-1.7 1.045-1.757 0-.057-.631-.734-1.4-1.504l-1.413-1.4-1.688 1.079c-.918.585-1.78 1.102-1.905 1.136-.333.104-2.722-.918-2.882-1.24-.07-.126-.31-1.067-.529-2.078-.23-.999-.447-1.871-.47-1.917-.035-.046-.953-.092-2.055-.092h-1.987l-.252 1.114Zm1.377 6.28c0 .494.299.85.77.942.31.057.425.011.723-.276.23-.241.345-.46.345-.712 0-.344.011-.356.436-.275 1.274.23 2.193.62 3.8 1.641.127.08.115.15-.08.425-.368.505-.38.953-.023 1.31.298.298.918.298 1.309-.012.298-.241.321-.241.47-.035.7.953 1.436 2.687 1.585 3.743.069.436.057.436-.333.436-.517 0-.965.425-.965.919 0 .494.448.919.965.919.39 0 .402 0 .333.424-.15 1.068-.884 2.802-1.584 3.755-.15.206-.173.206-.471-.035-.988-.769-2.124.425-1.275 1.344.23.252.23.252.012.425-.838.654-2.55 1.377-3.743 1.595-.425.08-.436.07-.436-.275 0-.241-.104-.47-.333-.7-.38-.38-.575-.402-1.034-.161-.367.183-.47.379-.47.872 0 .184-.023.333-.07.333-.746 0-3.318-.999-4.052-1.584l-.276-.23.241-.31c.747-.953-.344-2.044-1.297-1.297l-.31.24-.218-.275c-.448-.585-1.149-2.09-1.367-2.927-.298-1.16-.298-1.194.127-1.194.413 0 1.022-.54 1.022-.919s-.609-.919-1.022-.919c-.425 0-.425-.034-.127-1.194.218-.838.919-2.342 1.367-2.927l.218-.276.31.241c.953.747 2.044-.344 1.297-1.297l-.24-.31.275-.218c.528-.425 2.158-1.172 2.996-1.378 1.137-.276 1.125-.276 1.125.172Z" fill="#B3B3B3"/></svg><svg fill="none" viewBox="0 0 46 45" id="documentation" xmlns="http://www.w3.org/2000/svg"><path d="m37.618 5.91.007 4.775v18.56h-2.25V5.06A5.061 5.061 0 0 0 30.312 0h-20.25A5.063 5.063 0 0 0 5 5.061v9.289a5.054 5.054 0 0 0-2.25 4.209V37.68a7.31 7.31 0 0 0 7.313 7.311h5.325c.104.006.208.009.313.009h14.611c.153 0 .305-.003.455-.009h5.17a7.314 7.314 0 0 0 7.313-7.311v-3.374a5.06 5.06 0 0 0-2.25-4.21v-19.41a5.06 5.06 0 0 0-3.382-4.776ZM8.375 13.497V5.061a1.687 1.687 0 0 1 1.688-1.687h20.25A1.688 1.688 0 0 1 32 5.061v24.183h-.216a1.688 1.688 0 0 1-1.237-.54L17.924 15.117a5.063 5.063 0 0 0-3.706-1.62H8.375Zm-2.25 5.062a1.687 1.687 0 0 1 1.688-1.687h6.403a1.688 1.688 0 0 1 1.238.54L28.075 31a5.062 5.062 0 0 0 3.708 1.617h6.404a1.687 1.687 0 0 1 1.687 1.688v3.374a3.936 3.936 0 0 1-3.938 3.937H10.064a3.938 3.938 0 0 1-3.938-3.937v-19.12Z" fill="#B3B3B3"/><path d="M29 13.497h-8.625l3 3.003H29v-3.003Zm0-5.737H11v2.925h18V7.76Z" fill="#B3B3B3"/></svg><svg fill="none" viewBox="0 0 24 25" id="filter" xmlns="http://www.w3.org/2000/svg"><path d="M5 12.5v-8m14 16v-3m-14 3v-4m14-3v-9m-7 3v-3m0 16v-9m-7 5a2 2 0 1 0 0-4 2 2 0 0 0 0 4Zm7-5a2 2 0 1 0 0-4 2 2 0 0 0 0 4Zm7 6a2 2 0 1 0 0-4 2 2 0 0 0 0 4Z" stroke="currentColor" stroke-linecap="round"/></svg><svg fill="none" viewBox="0 0 23 18" id="icon-arrow-left" xmlns="http://www.w3.org/2000/svg"><path d="M6.487 1.5 1.5 9m0 0 4.987 7.5M1.5 9h20" stroke="currentColor" stroke-width="2" stroke-linecap="round" stroke-linejoin="round"/></svg><svg fill="none" viewBox="0 0 22 18" id="icon-arrow-right" xmlns="http://www.w3.org/2000/svg"><path d="M16.013 1.5 21 9m0 0-4.987 7.5M21 9H1" stroke="currentColor" stroke-width="2" stroke-linecap="round" stroke-linejoin="round"/></svg><svg fill="none" viewBox="0 0 198 43" id="logo" xmlns="http://www.w3.org/2000/svg"><path d="M26.898 5.141h8.153c3.95 0 5.695 1.959 5.695 4.261 0 1.75-.918 2.995-2.233 3.536 1.229.434 2.683 1.585 2.683 3.703 0 2.688-2.003 4.884-6.092 4.884h-8.206V5.14Zm7.342 6.318c1.323 0 1.856-.68 1.856-1.57 0-1.015-.738-1.515-1.893-1.515h-2.642v3.085h2.679Zm-2.68 6.837h2.455c1.577 0 2.249-.684 2.249-1.86 0-1.028-.635-1.757-2.163-1.757h-2.54v3.617Zm23.127-3.404h-7.464v3.072h8.333l-.537 3.56H42.606V5.142h12.396v3.556h-7.78v2.639h7.465v3.556Zm6.756 3.445-.951 3.188h-4.678L60.991 5.14h6.215l5.383 16.383h-5.015l-.995-3.187h-5.137Zm4.301-3.56c-.77-2.573-1.401-4.863-1.77-6.46h-.065c-.377 1.765-1.004 4.104-1.672 6.46h3.507ZM77.67 5.141v10.07c0 2.348 1.155 3.15 2.61 3.15 1.577 0 2.49-.962 2.49-3.15V5.141h4.823v9.591c0 5.445-3.22 7.1-7.395 7.1-4.326 0-7.338-1.754-7.338-7.075V5.14h4.81Zm15.683 3.556H88.67V5.141h14.13v3.556h-4.642v12.828h-4.805V8.697Zm15.416 12.827V15.85c0-.217-.016-.372-.168-.622L102.997 5.14h5.424c1.045 2.311 2.221 4.97 2.979 6.842.663-1.794 2.044-4.736 3.011-6.842h5.006l-5.678 10.066c-.082.135-.152.283-.152.615v5.703h-4.818Zm15.338-16.383h7.592c3.695 0 6.182 2.057 6.182 5.257 0 3.683-2.827 5.375-6.297 5.375h-2.741v5.752h-4.736V5.14Zm4.74 7.248h1.959c1.356 0 2.318-.566 2.318-1.934 0-1.401-.97-1.946-2.306-1.946h-1.971v3.88Zm10.37-7.248h4.814v12.823h7.722l-.52 3.56h-12.016V5.142Zm18.341 13.196-.951 3.188h-4.678l5.178-16.384h6.215l5.383 16.383h-5.014l-.996-3.187h-5.137Zm4.297-3.56c-.77-2.573-1.401-4.863-1.77-6.46h-.065c-.377 1.765-1.004 4.104-1.672 6.46h3.507Zm11.479 1.782c.275 1.43 1.274 2.028 2.823 2.028 1.454 0 2.122-.508 2.122-1.459 0-1.077-.725-1.482-3.314-2.101-4.834-1.172-5.797-2.933-5.797-5.142 0-2.749 2.02-5.051 6.579-5.051 4.74 0 6.678 2.405 6.907 4.99h-4.637c-.127-.88-.578-1.774-2.278-1.774-1.098 0-1.774.414-1.774 1.303s.598 1.233 3.126 1.851c5.051 1.262 6.051 3.081 6.051 5.408 0 3.077-2.372 5.216-7.182 5.216-4.531 0-6.932-2.114-7.292-5.269h4.666Zm14.422-7.862h-4.683V5.141h14.13v3.556h-4.642v12.828h-4.805V8.697Z" fill="#000"/><path d="M26.898 25.658h170.079" stroke="#1D1D1B" stroke-width=".7" stroke-miterlimit="10"/><path d="M26.898 28.989h3.757c2.06 0 3.171 1.094 3.171 2.647 0 1.278-.77 2.11-1.663 2.355.77.217 2.048.971 2.048 2.663 0 2.155-1.618 3.11-3.494 3.11h-3.819V28.989Zm3.483 4.638c1.864 0 2.568-.693 2.568-1.942 0-1.061-.737-1.926-2.245-1.926h-2.986v3.864h2.663v.004Zm-2.663 5.37h3.031c1.418 0 2.602-.708 2.602-2.294 0-1.368-.877-2.31-3.048-2.31h-2.585v4.605Zm8.866-2.987c.016 1.988 1.015 3.217 2.494 3.217 1.447 0 1.938-.815 2.217-1.446h.786c-.323 1.016-1.139 2.171-3.035 2.171-2.34 0-3.25-2.016-3.25-3.974 0-2.2 1.095-4.097 3.344-4.097 2.372 0 3.126 2.049 3.126 3.495 0 .217 0 .43-.017.63h-5.666v.005Zm4.879-.675c-.017-1.524-.848-2.724-2.356-2.724-1.585 0-2.31 1.11-2.478 2.724h4.834Zm7.959 2.97c0 .676.062 1.217.107 1.463h-.737c-.062-.185-.107-.525-.14-1.184-.262.57-.942 1.368-2.523 1.368-1.786 0-2.557-1.155-2.557-2.31 0-1.693 1.311-2.463 3.618-2.463h1.462v-.786c0-.77-.23-1.803-1.987-1.803-1.552 0-1.786.815-1.954 1.446h-.77c.094-.848.614-2.155 2.74-2.155 1.754 0 2.742.738 2.742 2.434v3.99Zm-.753-2.462H47.16c-1.708 0-2.773.446-2.773 1.77 0 .97.692 1.63 1.77 1.63 2.2 0 2.507-1.462 2.507-3.126v-.274h.004Zm8.96 1.676c0 .753.016 1.954.016 2.249h-.737c-.033-.201-.046-.709-.046-1.34-.323.91-1.11 1.524-2.478 1.524-1.11 0-2.524-.43-2.524-2.786V32.07h.754v4.912c0 1.122.353 2.216 1.877 2.216 1.724 0 2.371-.97 2.371-3.17V32.07h.77v5.449h-.003Zm1.553-5.449h1.433v-2.4h.77v2.4h1.832v.725h-1.831v5.002c0 .86.184 1.356.926 1.356.229 0 .553-.016.799-.094v.676c-.263.107-.631.14-.955.14-.987 0-1.54-.492-1.54-1.725v-5.355h-1.434v-.725Zm5.861 0c1.557 4.404 2.233 6.219 2.495 7.05h.017c.307-.938.926-2.724 2.417-7.05h.799l-2.897 8.144C67.06 42.492 66.506 43 65.117 43c-.278 0-.463-.016-.709-.045v-.77c.23.033.447.045.693.045 1.11 0 1.463-.537 2.032-2.126l-2.942-8.038h.852v.004Zm11.21-3.65h.77v1.495h-.77V28.42Zm0 3.65h.77v7.698h-.77V32.07Zm3.217 5.576c.261 1 .97 1.602 2.183 1.602 1.372 0 1.925-.631 1.925-1.496 0-.877-.368-1.307-2.093-1.725-1.987-.479-2.479-1.077-2.479-2.093 0-1.061.8-2.048 2.54-2.048 1.741 0 2.569 1.06 2.696 2.154h-.77c-.14-.647-.647-1.446-1.954-1.446-1.34 0-1.725.664-1.725 1.278 0 .71.369 1.062 1.893 1.43 2.17.525 2.712 1.233 2.712 2.385 0 1.4-1.14 2.261-2.757 2.261-1.754 0-2.741-.922-2.958-2.31h.786v.008Zm10.839-9.226h.77v1.495h-.77V28.42Zm0 3.65h.77v7.698h-.77V32.07Zm3.294 1.942c0-.676 0-1.324-.016-1.942h.754c.028.246.045 1.245.028 1.462.34-.786.971-1.646 2.557-1.646 1.372 0 2.585.77 2.585 2.896v4.99h-.77v-4.867c0-1.369-.57-2.262-1.91-2.262-1.83 0-2.462 1.524-2.462 3.204v3.925h-.77v-5.76h.004Zm12.605 1.998c.017 1.988 1.016 3.217 2.495 3.217 1.447 0 1.938-.815 2.217-1.446h.786c-.323 1.016-1.139 2.171-3.035 2.171-2.34 0-3.249-2.016-3.249-3.974 0-2.2 1.094-4.097 3.343-4.097 2.372 0 3.126 2.049 3.126 3.495 0 .217 0 .43-.017.63h-5.666v.005Zm4.884-.675c-.017-1.524-.848-2.724-2.356-2.724-1.585 0-2.31 1.11-2.478 2.724h4.834Zm2.708-3.265c1.249 3.527 2.11 5.928 2.401 6.911h.016c.168-.57 1.032-2.864 2.524-6.911h.815l-2.913 7.698h-.922l-2.741-7.698h.82Zm7.435 3.94c.016 1.988 1.016 3.217 2.495 3.217 1.446 0 1.938-.815 2.216-1.446h.787c-.324 1.016-1.139 2.171-3.036 2.171-2.339 0-3.249-2.016-3.249-3.974 0-2.2 1.094-4.097 3.343-4.097 2.372 0 3.126 2.049 3.126 3.495 0 .217 0 .43-.016.63h-5.666v.005Zm4.879-.675c-.016-1.524-.848-2.724-2.356-2.724-1.585 0-2.31 1.11-2.478 2.724h4.834Zm2.681-1.172c0-1.294-.017-1.847-.017-2.093h.754c.017.246.029.737.029 1.725.446-1.156 1.434-1.848 2.679-1.91v.832c-1.602.107-2.679 1.217-2.679 3.048v4.003h-.77v-5.605h.004Zm5.263-2.093c1.557 4.404 2.233 6.219 2.495 7.05h.017c.307-.938.925-2.724 2.417-7.05h.799l-2.897 8.144c-.815 2.278-1.368 2.786-2.757 2.786-.279 0-.463-.016-.709-.045v-.77c.23.033.447.045.693.045 1.11 0 1.462-.537 2.032-2.126l-2.942-8.038h.852v.004Zm11.205-3.65h.77v4.94c.369-.77 1.123-1.479 2.635-1.479 1.819 0 3.158 1.496 3.158 3.864 0 2.433-1.2 4.203-3.355 4.203-1.295 0-2.032-.524-2.434-1.401 0 .492-.016 1-.028 1.217h-.754c.016-.877.016-1.758.016-2.635v-8.71h-.008Zm5.744 7.345c0-1.925-.955-3.154-2.417-3.154-1.926 0-2.602 1.307-2.602 3.326 0 1.815.602 3.294 2.512 3.294 1.552 0 2.507-1.294 2.507-3.466Zm9.05.139c0 2.139-1.184 4.048-3.478 4.048-2.077 0-3.372-1.708-3.372-4.035 0-2.2 1.217-4.036 3.45-4.036 2.048.004 3.4 1.606 3.4 4.023Zm-6.035.017c0 1.831.988 3.31 2.618 3.31 1.663 0 2.602-1.368 2.602-3.31 0-1.815-.926-3.31-2.635-3.31-1.753 0-2.585 1.462-2.585 3.31Zm6.79-3.851h1.433v-2.4h.771v2.4h1.831v.725h-1.831v5.002c0 .86.184 1.356.925 1.356.23 0 .554-.016.799-.094v.676c-.262.107-.631.14-.954.14-.988 0-1.541-.492-1.541-1.725v-5.355h-1.433v-.725Zm4.509 0h1.434v-2.4h.77v2.4h1.832v.725h-1.832v5.002c0 .86.185 1.356.926 1.356.23 0 .553-.016.799-.094v.676c-.262.107-.631.14-.954.14-.988 0-1.541-.492-1.541-1.725v-5.355h-1.434v-.725Zm5.559 7.698V28.42h.77v11.348h-.77Zm3.463-3.758c.017 1.988 1.016 3.217 2.495 3.217 1.446 0 1.938-.815 2.217-1.446h.786c-.324 1.016-1.139 2.171-3.036 2.171-2.339 0-3.248-2.016-3.248-3.974 0-2.2 1.093-4.097 3.343-4.097 2.372 0 3.126 2.049 3.126 3.495 0 .217-.001.43-.017.63h-5.666v.005Zm4.884-.675c-.017-1.524-.848-2.724-2.356-2.724-1.586 0-2.311 1.11-2.479 2.724h4.835ZM19.04 27.842h-2.453v5.15h-4.24V18.329h6.792c.442 0 .869.037 1.27.098v-2.732c0-2.95-2.4-5.428-5.662-6.162V5.871c0-.283-.274-.512-.61-.512h-1.225V3.4c0-.188-.123-.352-.307-.438V1.266c.213.008.422.012.61.012.89 0 1.262-.098 1.418-.18a.2.2 0 0 0 .114-.176V.766s0-.254-.307-.512C14.133 0 11.99 0 11.073 0H4.034C3.075 0 1.367.471.671.672c-.156.045-.222.2-.127.32l.295.368c.07.086.209.123.323.074.234-.098.725-.254 1.717-.414C4.477.766 5.874.766 6.177.766c.241 0 2.032.16 2.753.225v1.901c-.34 0-.61.23-.61.512v1.959H7.093c-.34 0-.61.23-.61.512v3.7c-3.183.774-5.51 3.22-5.51 6.124v2.63h4.523c3.535 0 5.096 1.753 5.096 3.814 0 1.565-.823 2.68-2 3.163 1.099.39 2.402 1.418 2.402 3.314 0 2.405-1.795 4.367-5.453 4.367H.978v7.207C.978 41.742 2.486 43 4.346 43h12.7c1.86 0 3.367-1.258 3.367-2.806V27.735c-.442.07-.901.107-1.372.107Z" fill="#000"/><path d="M18.352 21.345h-1.761v3.474h1.753c1.168 0 2.012-.472 2.07-1.602v-.258c-.062-1.156-.91-1.614-2.062-1.614ZM6.435 22.578c0-.91-.66-1.357-1.692-1.357H2.379v2.758h2.397c1.184.004 1.659-.607 1.659-1.401Zm-4.06 7.525h2.196c1.413 0 2.011-.614 2.011-1.663 0-.922-.569-1.573-1.933-1.573H2.375v3.236Z" fill="#000"/></svg><svg fill="none" viewBox="0 0 93 25" id="logo-reactivno" xmlns="http://www.w3.org/2000/svg"><g clip-path="url(#aqa)"><path fill-rule="evenodd" clip-rule="evenodd" d="M3.117-.37A2.945 2.945 0 0 0 .172 2.577v19.352a2.945 2.945 0 0 0 2.945 2.945h86.548a2.945 2.945 0 0 0 2.945-2.945V2.576A2.945 2.945 0 0 0 89.665-.37H3.117Zm.827 1.96a1.53 1.53 0 0 0-1.53 1.53v18.406c0 .845.684 1.53 1.53 1.53h9.352a1.53 1.53 0 0 0 1.3-.723l8.306-13.375a5.612 5.612 0 0 0 .844-2.96V3.12a1.53 1.53 0 0 0-1.53-1.53H3.944Z" fill="#fff"/><path d="M83.93 2.049h.515v2.979h-.515V2.049Zm-1.366-.174h3.248v.42h-3.248v-.42Zm3.737 3.153V1.875h.762l1.5 2.94h-.268l1.495-2.94h.761v3.153h-.487V2.02h.174L88.68 5.028h-.51l-1.556-3.001h.174v3H86.3Z" fill="#000"/><path d="M1.633 5.47h5.213c.752 0 1.345-.17 1.778-.512.444-.342.666-.81.666-1.402 0-.604-.222-1.071-.666-1.401-.433-.342-1.026-.513-1.778-.513H1.308L2.317.377v12.135H.06V-.307h6.99c.9 0 1.687.166 2.359.496.684.32 1.213.77 1.59 1.35.387.57.58 1.242.58 2.017 0 .752-.193 1.419-.58 2-.377.57-.906 1.02-1.59 1.35-.672.32-1.459.479-2.359.479H1.633V5.47Zm2.53 1.043h2.649l5.093 6h-2.7l-5.042-6Zm13.83 6.239c-1.128 0-2.131-.211-3.009-.633-.877-.433-1.566-1.031-2.068-1.794-.501-.764-.752-1.653-.752-2.667 0-1.003.234-1.88.701-2.632a4.864 4.864 0 0 1 1.966-1.778c.843-.433 1.806-.649 2.888-.649 1.083 0 1.832.245 2.618.735.798.479 1.3 1.163 1.734 2.04.303.616.421 1.303.465 2.067.032.563-.434 1.02-.997 1.02h-7.631V6.77h7.814l-1.111.633c-.034-.638-.188-1.185-.462-1.641-.262-.456-.581-.858-1.037-1.097-.444-.251-.829-.322-1.444-.322-.65 0-1.22.131-1.71.393a2.858 2.858 0 0 0-1.127 1.111c-.274.468-.41 1.026-.41 1.675 0 .718.159 1.34.478 1.863.33.525.792.93 1.384 1.214.604.273 1.316.41 2.137.41.74 0 1.498-.114 2.273-.342.775-.239 1.226-.574 1.819-.995l.232 1.61c-.592.457-1.316.815-2.17 1.077a8.65 8.65 0 0 1-2.581.394Z" fill="#fff"/><circle cx="17.755" cy="21.728" r="1.262" fill="#000"/><circle cx="23.146" cy="12.828" r="1.262" fill="#000"/><path d="M26.816 20.367V18.7h8.02v1.668h-8.02Zm5.327-8.847L37.653 23h-2.158L30.49 12.286h.78L26.265 23h-2.158l5.51-11.48h2.526Zm15.126 8.067a3.733 3.733 0 0 1-.842 1.898c-.46.54-1.046.964-1.76 1.27-.715.306-1.51.46-2.388.46-1 0-1.883-.19-2.648-.567a4.442 4.442 0 0 1-1.776-1.607c-.428-.684-.642-1.475-.642-2.373 0-.898.214-1.688.642-2.372a4.334 4.334 0 0 1 1.776-1.592c.765-.388 1.648-.582 2.648-.582.877 0 1.673.153 2.388.46a4.611 4.611 0 0 1 1.76 1.285c.459.541.74 1.174.842 1.898h-2.005a2.402 2.402 0 0 0-1.026-1.53c-.54-.368-1.194-.551-1.96-.551-.611 0-1.147.122-1.606.367-.46.235-.817.577-1.072 1.026-.245.438-.367.969-.367 1.591 0 .613.122 1.143.367 1.592.255.45.612.796 1.072 1.041.459.235.995.352 1.607.352.775 0 1.433-.189 1.974-.566.541-.378.878-.878 1.01-1.5h2.006Zm-.172-3.72v-.903l1.852-.474.826-2.419h1.164v2.266h4.025v1.53H50.94v3.75c0 .725.153 1.235.459 1.531.316.286.826.428 1.53.428.45 0 .847-.045 1.194-.137.347-.102.679-.245.995-.429v1.638c-.265.133-.643.26-1.132.383-.48.122-.975.183-1.485.183-.847 0-1.53-.137-2.051-.413-.52-.286-.903-.673-1.148-1.163-.235-.5-.352-1.072-.352-1.715v-4.056h-1.852Zm8.857-1.592.995.184.995-.184V23h-1.99v-8.725Zm.995-1.086c-.377 0-.689-.102-.933-.306a1.048 1.048 0 0 1-.368-.827c0-.337.123-.607.367-.811.245-.214.557-.322.934-.322.388 0 .7.108.934.322.245.204.367.474.367.811 0 .337-.122.612-.367.827-.235.204-.546.306-.934.306Zm7.325 8.923h-.765l3.551-7.775h2.128L64.963 23H62.73l-4.225-8.663h2.189l3.581 7.775Zm5.065-7.775h1.99l.52 3.122V23h-1.99v-5.832l-.52-2.831Zm5.954-.215c.816 0 1.51.164 2.081.49a3.166 3.166 0 0 1 1.302 1.408c.306.602.459 1.332.459 2.19V23h-1.99v-4.47c0-.908-.214-1.591-.643-2.05-.418-.47-1.036-.705-1.852-.705-.561 0-1.056.128-1.485.383a2.54 2.54 0 0 0-.98 1.041c-.224.449-.336.974-.336 1.576l-.704-.382c.092-.898.326-1.663.704-2.296a3.967 3.967 0 0 1 1.454-1.454 3.861 3.861 0 0 1 1.99-.52Zm10.013 9.092c-1.052 0-1.975-.188-2.77-.566-.787-.388-1.404-.924-1.853-1.607-.439-.684-.658-1.475-.658-2.373 0-.908.22-1.699.658-2.372.45-.684 1.066-1.214 1.852-1.592.796-.388 1.72-.582 2.77-.582 1.052 0 1.97.194 2.756.582.796.378 1.413.908 1.852 1.592.449.673.673 1.464.673 2.372 0 .898-.224 1.69-.673 2.373-.44.683-1.056 1.22-1.852 1.607-.786.378-1.704.566-2.755.566Zm0-1.56c.673 0 1.25-.123 1.73-.368a2.7 2.7 0 0 0 1.132-1.026c.265-.449.398-.98.398-1.592 0-.612-.133-1.137-.398-1.576a2.666 2.666 0 0 0-1.133-1.041c-.48-.245-1.056-.367-1.73-.367-.663 0-1.24.122-1.729.367-.49.245-.867.592-1.133 1.04-.265.44-.398.965-.398 1.577 0 .613.133 1.143.398 1.592.266.439.643.78 1.133 1.026.49.245 1.066.367 1.73.367Z" fill="#000"/></g><defs><clipPath id="aqa"><rect x=".152" width="92.347" height="25" rx="2.944" fill="#fff"/></clipPath></defs></svg><svg fill="none" viewBox="0 0 33 32" id="loupe" xmlns="http://www.w3.org/2000/svg"><path d="M27.75 14.125a13.125 13.125 0 1 1-26.25 0 13.125 13.125 0 0 1 26.25 0Z" stroke="#003A69" stroke-width="2"/><path d="m31.5 31-3.75-3.75" stroke="#003A69" stroke-width="2" stroke-linecap="round"/></svg><svg fill="none" viewBox="0 0 46 45" id="microscop" xmlns="http://www.w3.org/2000/svg"><path d="M21.11.137a1.468 1.468 0 0 0-.747.905c-.052.177-.088 1.68-.088 3.407v3.1l-.307.055c-.413.085-.897.551-1.011.971-.123.476-.114 11.342.009 12.154.246 1.643 1.406 2.978 2.935 3.408.739.205 3.947.196 4.79-.01 1.117-.27 2.154-1.185 2.664-2.352.228-.542.272-.775.316-1.671l.053-1.046 1.212.72 1.205.718v10.408h-6.478c-6.003 0-6.513.01-6.794.168-.95.505-.95 2.054 0 2.558.281.159.756.168 5.915.168h5.599v2.707h-5.38c-4.49 0-5.483.028-5.95.14-1.45.364-2.636 1.503-3.137 3.025-.193.57-.21.765-.21 2.492 0 1.802.008 1.886.201 2.194.106.177.334.392.501.476.29.159 1.152.168 14.194.168 13.043 0 13.905-.01 14.195-.168.167-.084.395-.299.5-.476.203-.318.203-.346.203-3.594 0-3.08-.009-3.295-.176-3.575-.22-.383-.518-.588-.967-.654l-.351-.056v-2.305c0-2.24-.009-2.315-.202-2.624a1.387 1.387 0 0 0-1.178-.644h-.378v-7.729c0-7.477-.009-7.73-.176-8.019-.088-.158-.255-.354-.369-.42-.114-.065-2.848-1.279-6.09-2.697l-5.89-2.577-.043-.504c-.027-.28-.097-.597-.159-.71a1.324 1.324 0 0 0-.914-.644l-.334-.065V4.253c0-4.592.326-4.247-3.955-4.247-2.258.01-3.006.037-3.208.13Zm4.439 7.43H23V2.9h2.549v4.667Zm1.406 8.215h-5.361V10.46h5.361v5.32Zm7.647-1.046 4.878 2.138.026 7.01.017 7.02h-4.658V19.17l-.202-.317c-.15-.243-.747-.644-2.593-1.746l-2.39-1.437v-1.531c0-.84.009-1.531.026-1.531.009 0 2.215.961 4.896 2.128Zm-7.647 4.817c0 .747-.026.915-.202 1.186-.378.597-.589.653-2.54.625-1.59-.028-1.75-.047-1.969-.224-.5-.392-.598-.625-.633-1.578l-.035-.886h5.38v.877ZM41.37 36.505h-8.262v-2.707h8.262v2.707Zm1.494 5.601H18.315l.062-.644c.026-.364.097-.765.15-.915.131-.373.5-.765.913-.97.334-.169.844-.178 11.892-.178h11.531v2.707ZM1.203 17.07a1.467 1.467 0 0 0-.5.476C.5 17.863.5 17.882.5 21.186c0 3.128.009 3.343.176 3.623.088.168.29.364.43.448l.264.14.035 7.262c.027 6.525.044 7.319.176 7.86.545 2.138 2.04 3.725 4.017 4.257.747.205 2.153.205 2.9 0 1.978-.532 3.472-2.12 4.017-4.257.131-.541.15-1.335.175-7.86l.036-7.262.263-.14c.14-.084.343-.28.43-.448.168-.28.177-.495.177-3.622 0-3.305 0-3.324-.202-3.64-.422-.673-.176-.645-6.346-.645-5.098 0-5.564.01-5.845.168Zm9.756 5.526H3.137v-2.8h7.822v2.8Zm-.967 6.348H4.104V25.49h5.888v3.454Zm-.017 6.787c-.036 4.462-.027 4.424-.791 5.302-.633.737-1.24 1.026-2.136 1.026-.897 0-1.503-.289-2.136-1.026-.765-.878-.756-.84-.79-5.303l-.027-3.892H10l-.026 3.892Z" fill="#B3B3B3"/></svg><svg fill="none" viewBox="0 0 80 80" id="partnership" xmlns="http://www.w3.org/2000/svg"><g clip-path="url(#aua)"><rect width="80" height="80" rx="40" fill="#E6E6E6"/><path d="M37 4.61a14.337 14.337 0 0 0-10.156 8.093c-.453 1.016-.985 2.89-1.157 4.125l-.093.672h2.469l.187-.531c.25-.782 1.188-1.766 2.094-2.235 2.062-1.062 4.781-.078 5.75 2.094l.297.672h2.297l.046-1.844c.063-2.078.172-2.312 1.063-2.453 1.39-.219 2.203-1.062 2.203-2.281 0-1.25-.656-1.922-2.297-2.328-.828-.203-.984-.625-.984-2.672 0-1.781.125-1.688-1.719-1.313Z" fill="#B3B3B3"/><path d="M40.75 5.625c0 1.094.031 1.25.281 1.25.422 0 1.656.844 2.125 1.453 1.703 2.219.734 5.594-1.875 6.547l-.531.187V17.5h1.781c2.11 0 2.5.187 2.64 1.265.11.813.5 1.375 1.22 1.735.968.5 2.187.219 2.843-.672.156-.219.328-.703.375-1.063.14-1.078.531-1.265 2.594-1.265h1.719l-.11-1.016c-.297-2.922-1.953-6.047-4.406-8.343a13.812 13.812 0 0 0-6.813-3.516c-1.937-.406-1.843-.453-1.843 1Zm-9.531 10.906c-.64.313-1.25 1.172-1.25 1.75 0 .235-.14.61-.328.844-.313.39-.36.406-2.188.406h-1.86l.11.735c.828 6.359 5.922 11.515 12.203 12.328l.813.11v-2.486l-.578-.203c-.828-.297-1.828-1.313-2.235-2.235-.281-.672-.343-1.015-.281-1.937.11-1.719.938-2.922 2.469-3.594l.625-.281V19.53h-1.797c-1.594 0-1.828-.031-2.11-.312-.171-.172-.312-.469-.312-.657 0-.671-.625-1.687-1.266-2-.734-.39-1.312-.39-2.015-.03Z" fill="#B3B3B3"/><path d="M40.75 21.344c0 .984-.078 1.937-.157 2.093-.093.172-.406.344-.75.391-1.328.219-1.921.688-2.218 1.766-.344 1.25.547 2.547 1.906 2.765 1.156.188 1.219.328 1.219 2.47v1.874l.968-.11c1.985-.234 4.485-1.234 6.297-2.515 1.078-.765 2.766-2.484 3.5-3.547 1.203-1.781 2.36-4.906 2.36-6.406v-.594H51.61l-.454.86c-.797 1.547-2.063 2.328-3.766 2.328-1.703 0-3.109-.89-3.828-2.39l-.36-.798H40.75v1.813ZM16.969 34.719c-.375.297-9.5 17.578-9.5 18 0 .187.093.453.203.593.297.376 5.812 3.25 6.25 3.25a.963.963 0 0 0 .625-.28c.531-.594 9.36-17.47 9.375-17.907 0-.281-.125-.563-.313-.719-.547-.437-5.765-3.125-6.093-3.125-.157 0-.407.094-.547.188Zm44.719 1.234c-2.844.922-3.438 1.234-3.438 1.828 0 .281 6 18.625 6.25 19.078.328.625.797.563 4.031-.515 3.031-1.016 3.625-1.313 3.625-1.86 0-.468-6.125-18.937-6.375-19.218-.375-.422-.984-.313-4.094.687Zm-22.594 3.641c-.719.328-6.782 5.36-7.64 6.328-.298.344-.313.625-.36 4.75-.047 4.031-.016 4.422.218 4.594 1.516 1.109 4.063-2.36 4.172-5.657.032-1.203.078-1.359.516-1.89.969-1.203 2.563-1.625 3.844-1.032.328.141 4.14 3.282 8.5 6.985 4.36 3.687 8.015 6.781 8.14 6.844.11.078.344.078.516.03.703-.218 2.234-1.546 2.984-2.577.47-.657 1.063-1.25 1.47-1.485l.671-.406-.984-3c-3.75-11.578-4.172-12.781-4.438-12.672-1.906.797-2.437.922-4.312.907-1.75 0-2.188-.079-6.391-1.047-2.469-.578-4.86-1.047-5.313-1.047-.515 0-1.078.14-1.593.375Z" fill="#B3B3B3"/><path d="M21.14 48.14c-2.155 4.047-3.92 7.391-3.937 7.454-.03.062.266.312.641.547.75.468 1.203 1 1.922 2.25l.469.828.453-.485c1.64-1.718 4.297-1.53 5.562.407l.344.5.781-.36c1.313-.61 2.563-.453 3.64.485.75.64 1.095 1.312 1.25 2.422.126.765.157.828.72 1.015 1.453.5 2.297 1.688 2.297 3.266 0 .5-.11 1.094-.235 1.36-.265.5-.203.765.172.765.125 0 .578.344.984.75 1.11 1.11 1.391 2.64.72 3.937-.204.406-.188.438.952 1.39 1.297 1.11 2 1.329 2.828.907.625-.328 1.047-1.219.922-1.922-.078-.39-.39-.765-1.312-1.578-2.406-2.14-2.563-2.36-1.906-3.016.562-.562.921-.39 2.968 1.344 3.25 2.766 3.407 2.875 4 2.875.782 0 1.39-.375 1.703-1.031.235-.484.235-.672.094-1.188-.156-.5-.625-.968-2.875-2.89-1.484-1.266-2.734-2.375-2.797-2.453-.39-.563.125-1.5.844-1.5.14 0 1.797 1.297 3.672 2.89 2.172 1.844 3.61 2.954 3.984 3.063 1.61.5 3.032-1.297 2.203-2.781-.156-.266-1.875-1.829-3.828-3.485-3.343-2.812-3.562-3.047-3.562-3.531 0-.688.594-1.14 1.156-.875.203.094 2.219 1.734 4.5 3.656 2.266 1.938 4.25 3.547 4.406 3.61.813.312 1.875-.032 2.36-.766.328-.516.375-1.453.093-1.984-.234-.438-17.609-15.235-18.28-15.547-.36-.188-.516-.188-1 .031-.563.234-.579.25-.579 1.078 0 2.75-1.844 6.234-3.89 7.36-1.36.734-2.672.578-3.907-.47l-.484-.406v-4.937c0-5.828 0-5.75 1.672-7.313l1.015-.953-2-.109-2.015-.094-1.375-.937c-.75-.516-1.39-.938-1.407-.938-.03 0-1.796 3.313-3.937 7.36Z" fill="#B3B3B3"/><path d="M21.813 60.422c-.485.5-.954 1.063-1.047 1.25-.563 1.11.453 2.438 1.672 2.172.437-.11 1.593-1.172 2.125-1.969.39-.578.328-1.5-.141-1.953-.281-.297-.547-.39-1.047-.39-.625 0-.75.078-1.562.89Zm6.64.484c-.484.078-4 3.797-4.281 4.547-.219.563-.016 1.203.515 1.656.922.782 1.516.516 3.328-1.515 2.016-2.234 2.266-2.594 2.266-3.25 0-.953-.812-1.61-1.828-1.438Zm2.391 4.438c-.813.734-2.64 2.875-2.844 3.344-.375.875.172 1.843 1.11 2.03.734.142 1.125-.14 2.734-1.92 1.703-1.907 1.89-2.438 1.172-3.298-.36-.422-.531-.5-1.094-.5-.484 0-.797.094-1.078.344Zm1.672 5.625c-.36.375-.703.86-.75 1.11-.22.874.562 1.827 1.484 1.827.922 0 2.031-1.219 2.031-2.234 0-.844-.547-1.36-1.437-1.36-.594 0-.766.079-1.328.657Z" fill="#B3B3B3"/></g><defs><clipPath id="aua"><rect width="80" height="80" rx="40" fill="#fff"/></clipPath></defs></svg><svg fill="none" viewBox="0 0 151 130" id="play" xmlns="http://www.w3.org/2000/svg"><g filter="url(#ava)"><path d="M145.982 57.088c6.024 2.494 6.024 13.33 0 15.824L9.07 129.585C4.841 131.336.5 127.328.5 121.673V8.327C.5 2.672 4.841-1.336 9.07.415l136.912 56.673Z" fill="currentColor"/></g><defs><filter id="ava" x="-9.5" y="-10" width="170" height="150" filterUnits="userSpaceOnUse" color-interpolation-filters="sRGB"><feFlood flood-opacity="0" result="BackgroundImageFix"/><feGaussianBlur in="BackgroundImageFix" stdDeviation="5"/><feComposite in2="SourceAlpha" operator="in" result="effect1_backgroundBlur_106_799"/><feBlend in="SourceGraphic" in2="effect1_backgroundBlur_106_799" result="shape"/></filter></defs></svg><svg fill="none" viewBox="0 0 80 80" id="prices" xmlns="http://www.w3.org/2000/svg"><g clip-path="url(#awa)"><rect width="80" height="80" rx="40" fill="#E6E6E6"/><path d="M46.791 13.073c-1.388.112-3.645.518-5.188.911-8.989 2.313-14.107 8.256-12.214 14.213.617 1.92 1.95 3.729 3.87 5.256 7.208 5.691 20.053 6.63 29.07 2.145 4.53-2.257 7.32-5.635 7.628-9.237.617-7.289-9.044-13.512-20.768-13.358-1.01.014-2.089.042-2.398.07Zm5.75 3.266c7.124.813 12.284 4.19 13 8.466.616 3.715-2.553 7.359-7.98 9.181-5.034 1.682-11.373 1.64-16.379-.084-3.52-1.22-6.142-3.252-7.278-5.649-.406-.855-.434-1.01-.434-2.537 0-1.584.014-1.626.532-2.691 1.67-3.378 6.044-5.817 11.878-6.616 1.64-.224 4.978-.252 6.66-.07Z" fill="#B3B3B3"/><path d="M46.006 18.652c-3.772.532-6.913 1.836-8.75 3.644-1.108 1.08-1.515 1.934-1.585 3.252-.056.897-.014 1.121.35 1.892 1.193 2.551 5.049 4.612 9.957 5.327 1.71.252 5.806.21 7.474-.07 4.81-.814 8.33-2.762 9.522-5.285.49-1.037.49-2.425.014-3.42-1.164-2.425-4.445-4.303-9.115-5.2-1.64-.323-6.086-.407-7.867-.14Zm23.503 14.115c-.673.91-2.384 2.438-3.758 3.35-3.829 2.55-8.737 4.107-14.15 4.471-4.108.266-8.862-.322-12.368-1.542-.463-.154-.813-.252-.771-.224.028.028.434.35.897.715 1.921 1.528 4.137 3.953 5.245 5.76.519.856.519.856 3.87.996 3.688.14 7.46-.393 10.784-1.514 6.801-2.313 10.896-6.7 10.713-11.508l-.042-1.065-.42.56Zm-40.569.911.042 1.373 1.402.309c.772.168 1.683.406 2.034.518l.63.225-.35-.295c-1.668-1.36-2.398-2.032-2.945-2.705-.35-.42-.687-.771-.743-.785-.056 0-.084.617-.07 1.36Zm-5.174 3.406c-2.51.21-4.726.813-7.054 1.906-5.974 2.831-10.11 8.186-11.457 14.844-.364 1.878-.336 5.817.07 7.681 1.851 8.424 8.162 14.606 16.506 16.162 2.033.378 5.65.35 7.586-.056 2.819-.603 5.188-1.598 7.502-3.126 1.697-1.136 4.25-3.673 5.441-5.425 6.9-10.19 3.478-23.926-7.418-29.73-3.24-1.71-7.404-2.55-11.176-2.256Zm4.487 3.574c3.45.603 6.423 2.089 8.919 4.471 6.97 6.658 7.165 17.564.434 24.334-5.791 5.845-14.64 6.798-21.525 2.327-1.64-1.066-3.856-3.266-4.908-4.906-4.445-6.827-3.534-15.671 2.174-21.39 2.566-2.565 5.679-4.191 9.185-4.822 1.5-.266 4.235-.28 5.721-.014Z" fill="#B3B3B3"/><path d="M22.728 42.9c-5.455 1.038-9.998 5.159-11.54 10.5-1.501 5.158-.043 10.764 3.771 14.59 5.932 5.916 15.538 5.776 21.273-.322 2.678-2.845 4.039-6.293 4.039-10.218 0-6.686-4.572-12.573-11.149-14.339-1.472-.406-4.823-.505-6.394-.21Zm7.81 5.019c1.628.757 2.875 2.439 3.086 4.177.252 2.13-1.024 4.36-3.001 5.284-.785.379-.856.379-4.445.449l-3.646.07-.084 1.177 7.614.084.266.337c.337.42.337 1.009 0 1.43-.266.336-.28.336-4.038.406l-3.758.07-.07 2.761c-.085 3.084-.155 3.336-.996 3.336-1.094 0-1.248-.434-1.248-3.658v-2.51h-1.122c-1.024 0-1.164-.041-1.472-.35a1.092 1.092 0 0 1-.35-.77c0-.267.125-.561.35-.771.308-.309.448-.35 1.472-.35h1.122v-1.262h-1.15c-.982 0-1.192-.042-1.472-.309-.323-.294-.421-.827-.239-1.303.155-.393.842-.631 1.865-.631h.982l.084-7.457.407-.35.406-.337 8.582.084.856.393Z" fill="#B3B3B3"/><path d="M22.462 55.586h3.337c3.758 0 4.095-.084 4.894-1.051a2.938 2.938 0 0 0-1.346-4.682c-.295-.098-1.655-.154-3.674-.154h-3.211v5.887Zm45.925-13.821c-1.655 1.682-2.763 2.495-5.02 3.659-1.823.953-3.716 1.64-5.876 2.172-2.987.73-4.502.898-7.98.912h-3.154l.533 1.513c.294.827.645 2.089.785 2.804l.266 1.29.617.111c.758.127 4.586-.112 6.255-.406 6.142-1.051 11.19-3.799 13.56-7.401 1.08-1.626 1.5-2.873 1.584-4.752.042-.827.056-1.486.028-1.486-.028.015-.743.73-1.598 1.584Z" fill="#B3B3B3"/><path d="M69.509 48.606c-.66.883-2.398 2.438-3.787 3.364-4.15 2.789-9.703 4.401-15.467 4.5l-2.09.027-.013 1.542c-.014 1.388-.21 3.238-.393 3.883-.07.224.07.252 1.599.252 6.478 0 12.676-1.906 16.49-5.074 2.791-2.327 4.236-5.144 4.123-8.032l-.042-1.023-.42.56Z" fill="#B3B3B3"/><path d="M68.387 57.618c-2.132 2.131-4.179 3.449-7.348 4.696-3.408 1.346-7.026 2.005-11.106 2.018l-2.763.015-.575 1.471c-.308.813-.87 2.005-1.248 2.663l-.687 1.192.505.098c1.36.252 4.53.379 6.394.252 6.577-.462 11.962-2.579 15.355-6.013 2.16-2.187 3.17-4.5 3.057-6.98l-.042-.953-1.542 1.541Z" fill="#B3B3B3"/><path d="M69.509 64.445c-.674.91-2.412 2.453-3.857 3.406-3.197 2.144-7.221 3.574-11.85 4.205-2.285.322-6.688.294-8.946-.042l-1.669-.252-.953 1.065c-.519.574-1.529 1.528-2.23 2.102-.7.575-1.22 1.08-1.164 1.136.14.14 2.16.77 3.506 1.107 2.875.715 6.9 1.01 9.985.715 10.447-.995 17.893-6.476 17.64-12.98l-.042-1.023-.42.56Z" fill="#B3B3B3"/></g><defs><clipPath id="awa"><rect width="80" height="80" rx="40" fill="#fff"/></clipPath></defs></svg><svg fill="none" viewBox="0 0 80 80" id="production" xmlns="http://www.w3.org/2000/svg"><g clip-path="url(#axa)"><rect width="80" height="80" rx="40" fill="#E6E6E6"/><path d="M36.471 6.17c-6.161.694-12.244 3.167-17.333 7.044-1.403 1.056-4.523 4.16-5.752 5.688-2.3 2.884-4.27 6.398-5.515 9.77-.804 2.222-.851 2.742-.252 3.246 1.024.898 1.733.316 2.521-2.048 2.852-8.415 9.675-15.553 18.2-19.02 3.656-1.481 6.95-2.174 10.968-2.3 9.06-.3 17.46 3.088 23.825 9.58 2.569 2.632 4.318 5.09 5.878 8.257A31.98 31.98 0 0 1 65.89 59.7c-1.182 1.576-3.892 4.38-5.452 5.642-3.498 2.836-7.564 4.9-11.771 6.019-4.097 1.087-2.805 1.024-22.644 1.119l-18.027.079-.378.44c-.505.584-.473.978.079 1.545l.457.457h17.08c19.005 0 19.32-.016 23.433-1.04 14.197-3.53 24.582-15.6 26-30.223.614-6.225-.599-12.843-3.372-18.453C66.6 15.782 57.666 8.817 47.423 6.69c-3.105-.646-7.848-.882-10.952-.52Z" fill="#B3B3B3"/><path d="M35.61 10.21c-10.27 1.603-18.817 7.814-23.294 16.912-1.3 2.654-1.47 3.205-1.216 3.84.253.567.963.918 1.588.767.59-.15.659-.25 1.385-2.003C17.08 22.464 23.7 16.438 31.37 13.95c3.243-1.035 4.628-1.235 8.716-1.252 3.277 0 3.936.05 5.574.4 10.119 2.138 18.11 9.116 21.268 18.548 1.132 3.355 1.351 4.825 1.351 8.848 0 3.105-.05 3.823-.388 5.342-2.466 11.335-10.777 19.616-22.197 22.07-1.503.317-2.213.367-5.523.367-4.088 0-5.524-.184-8.582-1.152-1.723-.55-2.28-.534-2.72.017-.76.968-.22 1.836 1.487 2.404 3.514 1.151 6.706 1.586 10.896 1.452 3.327-.117 5.22-.417 8.108-1.302 8.868-2.721 16.132-9.416 19.578-18.013C70.476 47.839 71 45.018 71 40.494c0-4.524-.524-7.346-2.06-11.185-2.349-5.86-6.47-10.868-11.876-14.424-3.075-2.02-7.196-3.673-11.082-4.44-2.432-.501-7.956-.618-10.371-.234Z" fill="#B3B3B3"/><path d="M37.18 20.746c-.772 3.435-.946 4.066-1.213 4.318-.489.457-3.341 1.591-3.72 1.465-.188-.063-1.386-.756-2.646-1.56l-2.317-1.465-1.97 2-1.985 1.986 1.481 2.348c.914 1.434 1.497 2.521 1.497 2.774 0 .52-1.056 3.135-1.418 3.53-.268.267-1.245.535-4.601 1.276l-1.23.268v5.609l1.23.268c3.356.74 4.333 1.009 4.601 1.277.362.394 1.418 3.01 1.418 3.53 0 .252-.583 1.339-1.497 2.773l-1.48 2.347 1.985 1.985 1.97 2.001 2.317-1.465c1.26-.804 2.458-1.497 2.647-1.56.378-.126 3.23 1.008 3.719 1.465.267.252.44.883 1.213 4.302l.347 1.544h2.726c1.513 0 2.773-.063 2.82-.126.032-.063.331-1.26.646-2.631.3-1.387.63-2.679.725-2.868.095-.173.441-.441.757-.567.315-.142 1.087-.473 1.717-.741.71-.3 1.277-.457 1.466-.394.173.063 1.37.772 2.631 1.576l2.317 1.481 1.938-1.922c1.056-1.056 1.922-1.986 1.922-2.065 0-.078-.646-1.166-1.434-2.41-.788-1.261-1.465-2.411-1.512-2.57-.063-.251.614-2.126 1.244-3.419.221-.456.552-.567 3.42-1.229 1.324-.299 2.474-.598 2.553-.646.189-.11.189-5.373 0-5.483-.08-.048-1.23-.347-2.553-.646-2.868-.662-3.199-.773-3.42-1.23-.63-1.292-1.307-3.167-1.244-3.419.047-.157.724-1.308 1.512-2.569.788-1.244 1.434-2.332 1.434-2.41 0-.08-.866-1.009-1.922-2.065l-1.938-1.922-2.317 1.481c-1.26.804-2.442 1.513-2.615 1.56-.457.142-3.735-1.26-3.956-1.702-.094-.173-.425-1.465-.725-2.852-.315-1.37-.614-2.568-.646-2.631-.047-.063-1.307-.127-2.82-.127h-2.726l-.347 1.529Zm1.89 8.62c0 .677.41 1.166 1.057 1.292.425.078.583.015.992-.379.316-.33.473-.63.473-.977 0-.472.016-.488.599-.378 1.75.315 3.01.851 5.216 2.254.173.11.157.204-.11.583-.505.693-.52 1.308-.032 1.796.41.41 1.26.41 1.796-.016.41-.33.442-.33.646-.047.962 1.308 1.97 3.687 2.175 5.137.095.599.079.599-.457.599-.71 0-1.324.583-1.324 1.26 0 .678.615 1.261 1.324 1.261.536 0 .552 0 .457.583-.205 1.466-1.213 3.845-2.175 5.153-.204.284-.236.284-.646-.047-1.355-1.056-2.915.583-1.749 1.843.315.347.315.347.016.583-1.15.898-3.498 1.891-5.137 2.19-.583.111-.599.095-.599-.377 0-.331-.142-.647-.457-.962-.52-.52-.788-.551-1.418-.22-.504.252-.646.52-.646 1.197 0 .252-.032.457-.095.457-1.024 0-4.554-1.37-5.562-2.174l-.378-.316.33-.425c1.025-1.308-.472-2.805-1.78-1.78l-.425.33-.3-.378c-.614-.803-1.576-2.868-1.875-4.018-.41-1.592-.41-1.639.173-1.639.568 0 1.403-.74 1.403-1.26s-.835-1.261-1.403-1.261c-.583 0-.583-.047-.173-1.639.3-1.15 1.26-3.215 1.875-4.018l.3-.378.425.33c1.308 1.025 2.805-.472 1.78-1.78l-.33-.425.378-.3c.725-.583 2.962-1.607 4.113-1.89 1.56-.379 1.544-.379 1.544.236Z" fill="#B3B3B3"/><path d="M39.78 32.958c-.646.347-.709.6-.709 2.569v1.907l-.724.598c-.93.788-1.214 1.434-1.135 2.71l.047.993-1.465 1.482c-1.623 1.67-1.797 2.143-1.056 2.867.725.741 1.166.568 2.852-1.055l1.513-1.466.898.047c1.497.095 2.616-.535 3.183-1.78.583-1.26.236-2.884-.788-3.75-.283-.237-.583-.426-.662-.426-.078 0-.141-.882-.141-1.985 0-1.97 0-1.986-.457-2.443-.489-.488-.836-.551-1.355-.268Zm-43.964 1.419c-.803.425-.945 1.323-.315 1.938l.378.394h8.746c4.806 0 8.856-.048 8.998-.095.378-.157.724-.945.614-1.402-.047-.22-.284-.536-.488-.71-.394-.299-.662-.315-9.014-.315-5.925.016-8.698.064-8.919.19Zm8.55 11.017a1.196 1.196 0 0 0 .347 1.954c.535.236 8.077.236 8.613 0 .567-.268.82-.961.567-1.56-.11-.268-.33-.552-.488-.63-.158-.095-2.632-.158-5.972-.158H4.744l-.378.394Zm3.948 6.016c-.441.551-.41 1.055.047 1.591l.378.441H16.8l.41-.378c.504-.472.536-1.087.079-1.654l-.316-.41H8.63l-.315.41Zm-6.21 11.614c-.441.174-.851.757-.851 1.23 0 .188.173.535.394.74l.378.394h12.118c11.314 0 12.149-.016 12.464-.284.536-.44.583-1.15.126-1.701l-.394-.457-11.96-.032c-6.57-.016-12.102.032-12.275.11Z" fill="#B3B3B3"/></g><defs><clipPath id="axa"><rect width="80" height="80" rx="40" fill="#fff"/></clipPath></defs></svg><svg fill="none" viewBox="0 0 46 45" id="rubles" xmlns="http://www.w3.org/2000/svg"><path d="M19.067 6.794a19.247 19.247 0 0 0-10.17 3.774c-1.108.825-3.04 2.757-3.865 3.864-1.997 2.684-3.218 5.699-3.679 9.118-.137.986-.137 3.702 0 4.688.606 4.462 2.514 8.285 5.692 11.365 3.031 2.95 6.686 4.712 10.97 5.294.987.137 3.703.137 4.69 0 3.428-.46 6.427-1.673 9.127-3.678 1.084-.816 3.024-2.748 3.833-3.831a19.16 19.16 0 0 0 2.182-19.286c-2.077-4.72-6.354-8.641-11.221-10.298-2.385-.816-5.174-1.188-7.56-1.01Zm3.468 3.386c6.452.938 11.65 5.618 13.227 11.915.363 1.447.468 2.473.42 4.203-.04 1.568-.13 2.263-.453 3.532-1.439 5.602-5.918 10.047-11.569 11.462-2.401.606-5.198.606-7.6 0-6.29-1.576-10.979-6.774-11.916-13.224-.17-1.123-.17-3.225 0-4.349a15.678 15.678 0 0 1 2.53-6.603c2.539-3.791 6.427-6.249 10.963-6.936 1.019-.161 3.33-.161 4.398 0Z" fill="#B3B3B3"/><path d="M16.318 14.505a1.678 1.678 0 0 0-.97.8c-.154.307-.162.485-.162 4.729v4.405h-.784c-.881 0-1.278.13-1.658.533-.29.316-.388.598-.388 1.156 0 .372.049.534.235.833.356.55.744.711 1.77.711h.825v1.386h-.784c-.881 0-1.278.129-1.658.533-.29.315-.388.598-.388 1.14 0 .582.275 1.075.76 1.358.308.178.429.202 1.205.202h.865v2.656c0 1.059.024 1.26.162 1.535.493.97 1.843 1.148 2.603.348.396-.412.469-.72.469-1.964V32.29h2.183c2.304 0 2.433-.016 2.862-.396.582-.51.63-1.706.08-2.288-.485-.517-.654-.55-2.999-.55H18.42v-1.369l2.328-.032 2.32-.024.769-.267c1.002-.348 1.738-.792 2.474-1.495.994-.938 1.592-1.965 1.908-3.282.218-.938.177-2.587-.098-3.444-.565-1.77-1.754-3.176-3.355-3.968-1.358-.671-1.584-.704-5.093-.728-1.965-.016-3.177.008-3.355.057Zm6.807 3.524c1.552.736 2.329 2.393 1.86 3.953a3.477 3.477 0 0 1-2.038 2.23c-.412.17-.606.186-2.482.21l-2.045.033v-6.733l4.163.048.542.259Z" fill="#B3B3B3"/><path fill-rule="evenodd" clip-rule="evenodd" d="M25.868.042a18.492 18.492 0 0 0-9.772 3.627c-1.064.792-2.92 2.648-3.713 3.712a18.335 18.335 0 0 0-2.65 4.994l4.709-2.416c2.439-3.642 6.175-6.003 10.533-6.663.978-.155 3.2-.155 4.225 0 6.199.9 11.194 5.397 12.708 11.447.35 1.39.45 2.376.404 4.038-.039 1.507-.124 2.175-.435 3.394a15.241 15.241 0 0 1-4.294 7.261l-1.458 4.987a19.042 19.042 0 0 0 2.008-1.306c1.041-.784 2.905-2.64 3.682-3.68a18.408 18.408 0 0 0 2.097-18.53c-1.996-4.536-6.105-8.302-10.781-9.894C30.839.228 28.159-.13 25.868.042Z" fill="#B3B3B3"/></svg><svg fill="none" viewBox="0 0 26 25" id="telegram" xmlns="http://www.w3.org/2000/svg"><path d="M13 0C6.1 0 .5 5.6.5 12.5S6.1 25 13 25s12.5-5.6 12.5-12.5S19.9 0 13 0Zm5.8 8.5c-.188 1.975-1 6.775-1.413 8.988-.175.937-.524 1.25-.85 1.287-.724.063-1.274-.475-1.974-.938-1.1-.724-1.726-1.174-2.788-1.874-1.238-.813-.438-1.263.275-1.988.188-.188 3.387-3.1 3.45-3.362a.25.25 0 0 0-.063-.226c-.074-.062-.175-.037-.262-.024-.113.024-1.863 1.187-5.275 3.487-.5.338-.95.513-1.35.5-.45-.012-1.3-.25-1.938-.463-.787-.25-1.4-.387-1.35-.825.026-.224.338-.45.926-.687 3.65-1.588 6.074-2.637 7.287-3.137 3.475-1.45 4.188-1.7 4.662-1.7.1 0 .338.024.488.15.125.1.163.237.175.337-.012.075.012.3 0 .475Z" fill="#003A69"/></svg><svg fill="none" viewBox="0 0 61 60" id="unique" xmlns="http://www.w3.org/2000/svg"><path fill-rule="evenodd" clip-rule="evenodd" d="M39 19.5C39 30.27 30.27 39 19.5 39S0 30.27 0 19.5 8.73 0 19.5 0 39 8.73 39 19.5ZM19.5 35C28.06 35 35 28.06 35 19.5 35 10.94 28.06 4 19.5 4 10.94 4 4 10.94 4 19.5 4 28.06 10.94 35 19.5 35Z" fill="#B3B3B3"/><path fill-rule="evenodd" clip-rule="evenodd" d="M61 19.5C61 30.27 52.27 39 41.5 39S22 30.27 22 19.5 30.73 0 41.5 0 61 8.73 61 19.5ZM41.5 35C50.06 35 57 28.06 57 19.5 57 10.94 50.06 4 41.5 4 32.94 4 26 10.94 26 19.5 26 28.06 32.94 35 41.5 35Z" fill="#B3B3B3"/><path fill-rule="evenodd" clip-rule="evenodd" d="M50 40.5C50 51.27 41.27 60 30.5 60S11 51.27 11 40.5 19.73 21 30.5 21 50 29.73 50 40.5ZM30.5 56C39.06 56 46 49.06 46 40.5 46 31.94 39.06 25 30.5 25 21.94 25 15 31.94 15 40.5 15 49.06 21.94 56 30.5 56Z" fill="#B3B3B3"/></svg><svg fill="none" viewBox="0 0 26 25" id="vk" xmlns="http://www.w3.org/2000/svg"><path d="M13 0C6.096 0 .5 5.596.5 12.5S6.096 25 13 25s12.5-5.596 12.5-12.5S19.904 0 13 0Zm4.807 14.103s1.106 1.091 1.378 1.598a.1.1 0 0 1 .014.026c.11.184.138.33.082.438-.09.18-.403.269-.51.276h-1.953c-.136 0-.42-.035-.763-.272-.265-.185-.525-.488-.779-.784-.379-.44-.707-.82-1.038-.82a.39.39 0 0 0-.123.02c-.25.08-.57.437-.57 1.388 0 .296-.235.467-.4.467h-.895c-.305 0-1.892-.107-3.298-1.59C7.23 13.034 5.68 9.39 5.668 9.357c-.098-.236.104-.362.324-.362h1.973c.263 0 .349.16.409.302.07.165.328.823.751 1.562.686 1.206 1.107 1.696 1.444 1.696a.39.39 0 0 0 .181-.047c.44-.245.358-1.814.338-2.14 0-.06 0-.701-.226-1.009-.162-.222-.436-.307-.603-.338a.716.716 0 0 1 .26-.22c.301-.151.846-.173 1.386-.173h.3c.587.007.738.045.95.099.43.102.439.38.401 1.329-.012.27-.023.574-.023.934l-.004.25c-.013.483-.029 1.03.312 1.256a.26.26 0 0 0 .149.043c.118 0 .475 0 1.441-1.657.297-.535.556-1.089.775-1.66.02-.033.077-.137.144-.178a.39.39 0 0 1 .162-.037h2.319c.252 0 .425.037.458.135.057.155-.01.628-1.069 2.061l-.473.624c-.96 1.258-.96 1.321.06 2.276Z" fill="#003A69"/></svg><svg fill="none" viewBox="0 0 26 25" id="whatsapp" xmlns="http://www.w3.org/2000/svg"><path d="M21.857 3.638a12.34 12.34 0 0 0-4.036-2.7A12.39 12.39 0 0 0 13.051 0C6.19 0 .6 5.563.6 12.387c0 2.047.505 4.04 1.456 5.823.125.236.162.51.092.767L.5 25l6.213-1.625c.246-.064.506-.031.733.083a12.5 12.5 0 0 0 5.604 1.33c6.86 0 12.45-5.563 12.45-12.388 0-3.312-1.294-6.425-3.643-8.762Zm-8.807 19.05c-1.859 0-3.68-.5-5.276-1.438l-.017-.01a1 1 0 0 0-.766-.109l-3.514.919.924-3.368a1 1 0 0 0-.125-.808l-.007-.011a10.287 10.287 0 0 1-1.583-5.476c0-5.674 4.648-10.3 10.352-10.3 2.764 0 5.364 1.076 7.311 3.026a10.22 10.22 0 0 1 2.248 3.341 10.18 10.18 0 0 1 .78 3.946c.025 5.675-4.623 10.287-10.327 10.287Zm5.679-7.7c-.314-.15-1.847-.9-2.123-1.013-.29-.1-.49-.15-.704.15-.214.313-.804 1.012-.98 1.213-.176.212-.364.237-.678.075-.314-.15-1.32-.488-2.5-1.538-.93-.825-1.546-1.838-1.734-2.15-.176-.313-.025-.475.138-.637.138-.138.314-.363.465-.538.15-.175.214-.313.314-.513.1-.212.05-.387-.025-.537-.075-.15-.704-1.675-.955-2.3-.251-.6-.515-.525-.703-.537H8.64c-.214 0-.54.075-.83.387-.276.313-1.08 1.063-1.08 2.588 0 1.524 1.118 3 1.269 3.2.15.212 2.198 3.337 5.314 4.675.741.324 1.32.512 1.771.65.742.237 1.42.2 1.96.125.603-.088 1.847-.75 2.098-1.476.264-.725.264-1.337.176-1.475-.088-.137-.276-.2-.59-.35Z" fill="#003A69"/></svg></svg>