<?xml version="1.0" encoding="utf-8"?><svg viewBox="0 0 198 130" xmlns="http://www.w3.org/2000/svg" xmlns:xlink="http://www.w3.org/1999/xlink"><style>:root>svg{display:none}:root>svg:target{display:block}</style><svg fill="none" viewBox="0 0 18 8" id="arrow-dropdown" xmlns="http://www.w3.org/2000/svg"><path d="m1.5 1.5 7.5 5 7.5-5" stroke="currentColor" stroke-width="2" stroke-linecap="round" stroke-linejoin="round"/></svg><svg fill="none" viewBox="0 0 16 22" id="arrow-up" xmlns="http://www.w3.org/2000/svg"><path d="M9.031.585a1.444 1.444 0 0 0-.477-.303 1.358 1.358 0 0 0-1.097 0c-.178.069-.34.172-.477.303L1.202 6.363a1.45 1.45 0 0 0 2.051 2.051l3.308-3.322v15.297a1.444 1.444 0 1 0 2.889 0V5.092l3.308 3.322a1.45 1.45 0 0 0 2.05-2.051L9.032.585Z" fill="currentColor"/></svg><svg fill="none" viewBox="0 0 24 24" id="bracket-gt" xmlns="http://www.w3.org/2000/svg"><path d="M8.4 1.2 6.72 3l8.88 9-8.88 9 1.68 1.8L19.2 12 8.4 1.2Z" fill="currentColor"/></svg><svg fill="none" viewBox="0 0 24 24" id="bracket-lt" xmlns="http://www.w3.org/2000/svg"><path d="m15.6 22.8 1.68-1.8-8.88-9 8.88-9-1.68-1.8L4.8 12l10.8 10.8Z" fill="currentColor"/></svg><svg fill="none" viewBox="0 0 30 30" id="cross" xmlns="http://www.w3.org/2000/svg"><path d="M7.93 22.071a1 1 0 0 1 0-1.414L20.658 7.929a1 1 0 1 1 1.414 1.414L9.344 22.071a1 1 0 0 1-1.414 0Z" fill="currentColor"/><path d="M22.07 22.071a1 1 0 0 0 0-1.414L9.342 7.929a1 1 0 1 0-1.414 1.414l12.728 12.728a1 1 0 0 0 1.414 0Z" fill="currentColor"/></svg><svg fill="none" viewBox="0 0 23 18" id="icon-arrow-left" xmlns="http://www.w3.org/2000/svg"><path d="M6.487 1.5 1.5 9m0 0 4.987 7.5M1.5 9h20" stroke="currentColor" stroke-width="2" stroke-linecap="round" stroke-linejoin="round"/></svg><svg fill="none" viewBox="0 0 22 18" id="icon-arrow-right" xmlns="http://www.w3.org/2000/svg"><path d="M16.013 1.5 21 9m0 0-4.987 7.5M21 9H1" stroke="currentColor" stroke-width="2" stroke-linecap="round" stroke-linejoin="round"/></svg><svg fill="none" viewBox="0 0 198 43" id="logo" xmlns="http://www.w3.org/2000/svg"><path d="M26.898 5.141h8.153c3.95 0 5.695 1.959 5.695 4.261 0 1.75-.918 2.995-2.233 3.536 1.229.434 2.683 1.585 2.683 3.703 0 2.688-2.003 4.884-6.092 4.884h-8.206V5.14Zm7.342 6.318c1.323 0 1.856-.68 1.856-1.57 0-1.015-.738-1.515-1.893-1.515h-2.642v3.085h2.679Zm-2.68 6.837h2.455c1.577 0 2.249-.684 2.249-1.86 0-1.028-.635-1.757-2.163-1.757h-2.54v3.617Zm23.127-3.404h-7.464v3.072h8.333l-.537 3.56H42.606V5.142h12.396v3.556h-7.78v2.639h7.465v3.556Zm6.756 3.445-.951 3.188h-4.678L60.991 5.14h6.215l5.383 16.383h-5.015l-.995-3.187h-5.137Zm4.301-3.56c-.77-2.573-1.401-4.863-1.77-6.46h-.065c-.377 1.765-1.004 4.104-1.672 6.46h3.507ZM77.67 5.141v10.07c0 2.348 1.155 3.15 2.61 3.15 1.577 0 2.49-.962 2.49-3.15V5.141h4.823v9.591c0 5.445-3.22 7.1-7.395 7.1-4.326 0-7.338-1.754-7.338-7.075V5.14h4.81Zm15.683 3.556H88.67V5.141h14.13v3.556h-4.642v12.828h-4.805V8.697Zm15.416 12.827V15.85c0-.217-.016-.372-.168-.622L102.997 5.14h5.424c1.045 2.311 2.221 4.97 2.979 6.842.663-1.794 2.044-4.736 3.011-6.842h5.006l-5.678 10.066c-.082.135-.152.283-.152.615v5.703h-4.818Zm15.338-16.383h7.592c3.695 0 6.182 2.057 6.182 5.257 0 3.683-2.827 5.375-6.297 5.375h-2.741v5.752h-4.736V5.14Zm4.74 7.248h1.959c1.356 0 2.318-.566 2.318-1.934 0-1.401-.97-1.946-2.306-1.946h-1.971v3.88Zm10.37-7.248h4.814v12.823h7.722l-.52 3.56h-12.016V5.142Zm18.341 13.196-.951 3.188h-4.678l5.178-16.384h6.215l5.383 16.383h-5.014l-.996-3.187h-5.137Zm4.297-3.56c-.77-2.573-1.401-4.863-1.77-6.46h-.065c-.377 1.765-1.004 4.104-1.672 6.46h3.507Zm11.479 1.782c.275 1.43 1.274 2.028 2.823 2.028 1.454 0 2.122-.508 2.122-1.459 0-1.077-.725-1.482-3.314-2.101-4.834-1.172-5.797-2.933-5.797-5.142 0-2.749 2.02-5.051 6.579-5.051 4.74 0 6.678 2.405 6.907 4.99h-4.637c-.127-.88-.578-1.774-2.278-1.774-1.098 0-1.774.414-1.774 1.303s.598 1.233 3.126 1.851c5.051 1.262 6.051 3.081 6.051 5.408 0 3.077-2.372 5.216-7.182 5.216-4.531 0-6.932-2.114-7.292-5.269h4.666Zm14.422-7.862h-4.683V5.141h14.13v3.556h-4.642v12.828h-4.805V8.697Z" fill="#000"/><path d="M26.898 25.658h170.079" stroke="#1D1D1B" stroke-width=".7" stroke-miterlimit="10"/><path d="M26.898 28.989h3.757c2.06 0 3.171 1.094 3.171 2.647 0 1.278-.77 2.11-1.663 2.355.77.217 2.048.971 2.048 2.663 0 2.155-1.618 3.11-3.494 3.11h-3.819V28.989Zm3.483 4.638c1.864 0 2.568-.693 2.568-1.942 0-1.061-.737-1.926-2.245-1.926h-2.986v3.864h2.663v.004Zm-2.663 5.37h3.031c1.418 0 2.602-.708 2.602-2.294 0-1.368-.877-2.31-3.048-2.31h-2.585v4.605Zm8.866-2.987c.016 1.988 1.015 3.217 2.494 3.217 1.447 0 1.938-.815 2.217-1.446h.786c-.323 1.016-1.139 2.171-3.035 2.171-2.34 0-3.25-2.016-3.25-3.974 0-2.2 1.095-4.097 3.344-4.097 2.372 0 3.126 2.049 3.126 3.495 0 .217 0 .43-.017.63h-5.666v.005Zm4.879-.675c-.017-1.524-.848-2.724-2.356-2.724-1.585 0-2.31 1.11-2.478 2.724h4.834Zm7.959 2.97c0 .676.062 1.217.107 1.463h-.737c-.062-.185-.107-.525-.14-1.184-.262.57-.942 1.368-2.523 1.368-1.786 0-2.557-1.155-2.557-2.31 0-1.693 1.311-2.463 3.618-2.463h1.462v-.786c0-.77-.23-1.803-1.987-1.803-1.552 0-1.786.815-1.954 1.446h-.77c.094-.848.614-2.155 2.74-2.155 1.754 0 2.742.738 2.742 2.434v3.99Zm-.753-2.462H47.16c-1.708 0-2.773.446-2.773 1.77 0 .97.692 1.63 1.77 1.63 2.2 0 2.507-1.462 2.507-3.126v-.274h.004Zm8.96 1.676c0 .753.016 1.954.016 2.249h-.737c-.033-.201-.046-.709-.046-1.34-.323.91-1.11 1.524-2.478 1.524-1.11 0-2.524-.43-2.524-2.786V32.07h.754v4.912c0 1.122.353 2.216 1.877 2.216 1.724 0 2.371-.97 2.371-3.17V32.07h.77v5.449h-.003Zm1.553-5.449h1.433v-2.4h.77v2.4h1.832v.725h-1.831v5.002c0 .86.184 1.356.926 1.356.229 0 .553-.016.799-.094v.676c-.263.107-.631.14-.955.14-.987 0-1.54-.492-1.54-1.725v-5.355h-1.434v-.725Zm5.861 0c1.557 4.404 2.233 6.219 2.495 7.05h.017c.307-.938.926-2.724 2.417-7.05h.799l-2.897 8.144C67.06 42.492 66.506 43 65.117 43c-.278 0-.463-.016-.709-.045v-.77c.23.033.447.045.693.045 1.11 0 1.463-.537 2.032-2.126l-2.942-8.038h.852v.004Zm11.21-3.65h.77v1.495h-.77V28.42Zm0 3.65h.77v7.698h-.77V32.07Zm3.217 5.576c.261 1 .97 1.602 2.183 1.602 1.372 0 1.925-.631 1.925-1.496 0-.877-.368-1.307-2.093-1.725-1.987-.479-2.479-1.077-2.479-2.093 0-1.061.8-2.048 2.54-2.048 1.741 0 2.569 1.06 2.696 2.154h-.77c-.14-.647-.647-1.446-1.954-1.446-1.34 0-1.725.664-1.725 1.278 0 .71.369 1.062 1.893 1.43 2.17.525 2.712 1.233 2.712 2.385 0 1.4-1.14 2.261-2.757 2.261-1.754 0-2.741-.922-2.958-2.31h.786v.008Zm10.839-9.226h.77v1.495h-.77V28.42Zm0 3.65h.77v7.698h-.77V32.07Zm3.294 1.942c0-.676 0-1.324-.016-1.942h.754c.028.246.045 1.245.028 1.462.34-.786.971-1.646 2.557-1.646 1.372 0 2.585.77 2.585 2.896v4.99h-.77v-4.867c0-1.369-.57-2.262-1.91-2.262-1.83 0-2.462 1.524-2.462 3.204v3.925h-.77v-5.76h.004Zm12.605 1.998c.017 1.988 1.016 3.217 2.495 3.217 1.447 0 1.938-.815 2.217-1.446h.786c-.323 1.016-1.139 2.171-3.035 2.171-2.34 0-3.249-2.016-3.249-3.974 0-2.2 1.094-4.097 3.343-4.097 2.372 0 3.126 2.049 3.126 3.495 0 .217 0 .43-.017.63h-5.666v.005Zm4.884-.675c-.017-1.524-.848-2.724-2.356-2.724-1.585 0-2.31 1.11-2.478 2.724h4.834Zm2.708-3.265c1.249 3.527 2.11 5.928 2.401 6.911h.016c.168-.57 1.032-2.864 2.524-6.911h.815l-2.913 7.698h-.922l-2.741-7.698h.82Zm7.435 3.94c.016 1.988 1.016 3.217 2.495 3.217 1.446 0 1.938-.815 2.216-1.446h.787c-.324 1.016-1.139 2.171-3.036 2.171-2.339 0-3.249-2.016-3.249-3.974 0-2.2 1.094-4.097 3.343-4.097 2.372 0 3.126 2.049 3.126 3.495 0 .217 0 .43-.016.63h-5.666v.005Zm4.879-.675c-.016-1.524-.848-2.724-2.356-2.724-1.585 0-2.31 1.11-2.478 2.724h4.834Zm2.681-1.172c0-1.294-.017-1.847-.017-2.093h.754c.017.246.029.737.029 1.725.446-1.156 1.434-1.848 2.679-1.91v.832c-1.602.107-2.679 1.217-2.679 3.048v4.003h-.77v-5.605h.004Zm5.263-2.093c1.557 4.404 2.233 6.219 2.495 7.05h.017c.307-.938.925-2.724 2.417-7.05h.799l-2.897 8.144c-.815 2.278-1.368 2.786-2.757 2.786-.279 0-.463-.016-.709-.045v-.77c.23.033.447.045.693.045 1.11 0 1.462-.537 2.032-2.126l-2.942-8.038h.852v.004Zm11.205-3.65h.77v4.94c.369-.77 1.123-1.479 2.635-1.479 1.819 0 3.158 1.496 3.158 3.864 0 2.433-1.2 4.203-3.355 4.203-1.295 0-2.032-.524-2.434-1.401 0 .492-.016 1-.028 1.217h-.754c.016-.877.016-1.758.016-2.635v-8.71h-.008Zm5.744 7.345c0-1.925-.955-3.154-2.417-3.154-1.926 0-2.602 1.307-2.602 3.326 0 1.815.602 3.294 2.512 3.294 1.552 0 2.507-1.294 2.507-3.466Zm9.05.139c0 2.139-1.184 4.048-3.478 4.048-2.077 0-3.372-1.708-3.372-4.035 0-2.2 1.217-4.036 3.45-4.036 2.048.004 3.4 1.606 3.4 4.023Zm-6.035.017c0 1.831.988 3.31 2.618 3.31 1.663 0 2.602-1.368 2.602-3.31 0-1.815-.926-3.31-2.635-3.31-1.753 0-2.585 1.462-2.585 3.31Zm6.79-3.851h1.433v-2.4h.771v2.4h1.831v.725h-1.831v5.002c0 .86.184 1.356.925 1.356.23 0 .554-.016.799-.094v.676c-.262.107-.631.14-.954.14-.988 0-1.541-.492-1.541-1.725v-5.355h-1.433v-.725Zm4.509 0h1.434v-2.4h.77v2.4h1.832v.725h-1.832v5.002c0 .86.185 1.356.926 1.356.23 0 .553-.016.799-.094v.676c-.262.107-.631.14-.954.14-.988 0-1.541-.492-1.541-1.725v-5.355h-1.434v-.725Zm5.559 7.698V28.42h.77v11.348h-.77Zm3.463-3.758c.017 1.988 1.016 3.217 2.495 3.217 1.446 0 1.938-.815 2.217-1.446h.786c-.324 1.016-1.139 2.171-3.036 2.171-2.339 0-3.248-2.016-3.248-3.974 0-2.2 1.093-4.097 3.343-4.097 2.372 0 3.126 2.049 3.126 3.495 0 .217-.001.43-.017.63h-5.666v.005Zm4.884-.675c-.017-1.524-.848-2.724-2.356-2.724-1.586 0-2.311 1.11-2.479 2.724h4.835ZM19.04 27.842h-2.453v5.15h-4.24V18.329h6.792c.442 0 .869.037 1.27.098v-2.732c0-2.95-2.4-5.428-5.662-6.162V5.871c0-.283-.274-.512-.61-.512h-1.225V3.4c0-.188-.123-.352-.307-.438V1.266c.213.008.422.012.61.012.89 0 1.262-.098 1.418-.18a.2.2 0 0 0 .114-.176V.766s0-.254-.307-.512C14.133 0 11.99 0 11.073 0H4.034C3.075 0 1.367.471.671.672c-.156.045-.222.2-.127.32l.295.368c.07.086.209.123.323.074.234-.098.725-.254 1.717-.414C4.477.766 5.874.766 6.177.766c.241 0 2.032.16 2.753.225v1.901c-.34 0-.61.23-.61.512v1.959H7.093c-.34 0-.61.23-.61.512v3.7c-3.183.774-5.51 3.22-5.51 6.124v2.63h4.523c3.535 0 5.096 1.753 5.096 3.814 0 1.565-.823 2.68-2 3.163 1.099.39 2.402 1.418 2.402 3.314 0 2.405-1.795 4.367-5.453 4.367H.978v7.207C.978 41.742 2.486 43 4.346 43h12.7c1.86 0 3.367-1.258 3.367-2.806V27.735c-.442.07-.901.107-1.372.107Z" fill="#000"/><path d="M18.352 21.345h-1.761v3.474h1.753c1.168 0 2.012-.472 2.07-1.602v-.258c-.062-1.156-.91-1.614-2.062-1.614ZM6.435 22.578c0-.91-.66-1.357-1.692-1.357H2.379v2.758h2.397c1.184.004 1.659-.607 1.659-1.401Zm-4.06 7.525h2.196c1.413 0 2.011-.614 2.011-1.663 0-.922-.569-1.573-1.933-1.573H2.375v3.236Z" fill="#000"/></svg><svg fill="none" viewBox="0 0 93 25" id="logo-reactivno" xmlns="http://www.w3.org/2000/svg"><g clip-path="url(#ha)"><path fill-rule="evenodd" clip-rule="evenodd" d="M3.117-.37A2.945 2.945 0 0 0 .172 2.577v19.352a2.945 2.945 0 0 0 2.945 2.945h86.548a2.945 2.945 0 0 0 2.945-2.945V2.576A2.945 2.945 0 0 0 89.665-.37H3.117Zm.827 1.96a1.53 1.53 0 0 0-1.53 1.53v18.406c0 .845.684 1.53 1.53 1.53h9.352a1.53 1.53 0 0 0 1.3-.723l8.306-13.375a5.612 5.612 0 0 0 .844-2.96V3.12a1.53 1.53 0 0 0-1.53-1.53H3.944Z" fill="#fff"/><path d="M83.93 2.049h.515v2.979h-.515V2.049Zm-1.366-.174h3.248v.42h-3.248v-.42Zm3.737 3.153V1.875h.762l1.5 2.94h-.268l1.495-2.94h.761v3.153h-.487V2.02h.174L88.68 5.028h-.51l-1.556-3.001h.174v3H86.3Z" fill="#000"/><path d="M1.633 5.47h5.213c.752 0 1.345-.17 1.778-.512.444-.342.666-.81.666-1.402 0-.604-.222-1.071-.666-1.401-.433-.342-1.026-.513-1.778-.513H1.308L2.317.377v12.135H.06V-.307h6.99c.9 0 1.687.166 2.359.496.684.32 1.213.77 1.59 1.35.387.57.58 1.242.58 2.017 0 .752-.193 1.419-.58 2-.377.57-.906 1.02-1.59 1.35-.672.32-1.459.479-2.359.479H1.633V5.47Zm2.53 1.043h2.649l5.093 6h-2.7l-5.042-6Zm13.83 6.239c-1.128 0-2.131-.211-3.009-.633-.877-.433-1.566-1.031-2.068-1.794-.501-.764-.752-1.653-.752-2.667 0-1.003.234-1.88.701-2.632a4.864 4.864 0 0 1 1.966-1.778c.843-.433 1.806-.649 2.888-.649 1.083 0 1.832.245 2.618.735.798.479 1.3 1.163 1.734 2.04.303.616.421 1.303.465 2.067.032.563-.434 1.02-.997 1.02h-7.631V6.77h7.814l-1.111.633c-.034-.638-.188-1.185-.462-1.641-.262-.456-.581-.858-1.037-1.097-.444-.251-.829-.322-1.444-.322-.65 0-1.22.131-1.71.393a2.858 2.858 0 0 0-1.127 1.111c-.274.468-.41 1.026-.41 1.675 0 .718.159 1.34.478 1.863.33.525.792.93 1.384 1.214.604.273 1.316.41 2.137.41.74 0 1.498-.114 2.273-.342.775-.239 1.226-.574 1.819-.995l.232 1.61c-.592.457-1.316.815-2.17 1.077a8.65 8.65 0 0 1-2.581.394Z" fill="#fff"/><circle cx="17.755" cy="21.728" r="1.262" fill="#000"/><circle cx="23.146" cy="12.828" r="1.262" fill="#000"/><path d="M26.816 20.367V18.7h8.02v1.668h-8.02Zm5.327-8.847L37.653 23h-2.158L30.49 12.286h.78L26.265 23h-2.158l5.51-11.48h2.526Zm15.126 8.067a3.733 3.733 0 0 1-.842 1.898c-.46.54-1.046.964-1.76 1.27-.715.306-1.51.46-2.388.46-1 0-1.883-.19-2.648-.567a4.442 4.442 0 0 1-1.776-1.607c-.428-.684-.642-1.475-.642-2.373 0-.898.214-1.688.642-2.372a4.334 4.334 0 0 1 1.776-1.592c.765-.388 1.648-.582 2.648-.582.877 0 1.673.153 2.388.46a4.611 4.611 0 0 1 1.76 1.285c.459.541.74 1.174.842 1.898h-2.005a2.402 2.402 0 0 0-1.026-1.53c-.54-.368-1.194-.551-1.96-.551-.611 0-1.147.122-1.606.367-.46.235-.817.577-1.072 1.026-.245.438-.367.969-.367 1.591 0 .613.122 1.143.367 1.592.255.45.612.796 1.072 1.041.459.235.995.352 1.607.352.775 0 1.433-.189 1.974-.566.541-.378.878-.878 1.01-1.5h2.006Zm-.172-3.72v-.903l1.852-.474.826-2.419h1.164v2.266h4.025v1.53H50.94v3.75c0 .725.153 1.235.459 1.531.316.286.826.428 1.53.428.45 0 .847-.045 1.194-.137.347-.102.679-.245.995-.429v1.638c-.265.133-.643.26-1.132.383-.48.122-.975.183-1.485.183-.847 0-1.53-.137-2.051-.413-.52-.286-.903-.673-1.148-1.163-.235-.5-.352-1.072-.352-1.715v-4.056h-1.852Zm8.857-1.592.995.184.995-.184V23h-1.99v-8.725Zm.995-1.086c-.377 0-.689-.102-.933-.306a1.048 1.048 0 0 1-.368-.827c0-.337.123-.607.367-.811.245-.214.557-.322.934-.322.388 0 .7.108.934.322.245.204.367.474.367.811 0 .337-.122.612-.367.827-.235.204-.546.306-.934.306Zm7.325 8.923h-.765l3.551-7.775h2.128L64.963 23H62.73l-4.225-8.663h2.189l3.581 7.775Zm5.065-7.775h1.99l.52 3.122V23h-1.99v-5.832l-.52-2.831Zm5.954-.215c.816 0 1.51.164 2.081.49a3.166 3.166 0 0 1 1.302 1.408c.306.602.459 1.332.459 2.19V23h-1.99v-4.47c0-.908-.214-1.591-.643-2.05-.418-.47-1.036-.705-1.852-.705-.561 0-1.056.128-1.485.383a2.54 2.54 0 0 0-.98 1.041c-.224.449-.336.974-.336 1.576l-.704-.382c.092-.898.326-1.663.704-2.296a3.967 3.967 0 0 1 1.454-1.454 3.861 3.861 0 0 1 1.99-.52Zm10.013 9.092c-1.052 0-1.975-.188-2.77-.566-.787-.388-1.404-.924-1.853-1.607-.439-.684-.658-1.475-.658-2.373 0-.908.22-1.699.658-2.372.45-.684 1.066-1.214 1.852-1.592.796-.388 1.72-.582 2.77-.582 1.052 0 1.97.194 2.756.582.796.378 1.413.908 1.852 1.592.449.673.673 1.464.673 2.372 0 .898-.224 1.69-.673 2.373-.44.683-1.056 1.22-1.852 1.607-.786.378-1.704.566-2.755.566Zm0-1.56c.673 0 1.25-.123 1.73-.368a2.7 2.7 0 0 0 1.132-1.026c.265-.449.398-.98.398-1.592 0-.612-.133-1.137-.398-1.576a2.666 2.666 0 0 0-1.133-1.041c-.48-.245-1.056-.367-1.73-.367-.663 0-1.24.122-1.729.367-.49.245-.867.592-1.133 1.04-.265.44-.398.965-.398 1.577 0 .613.133 1.143.398 1.592.266.439.643.78 1.133 1.026.49.245 1.066.367 1.73.367Z" fill="#000"/></g><defs><clipPath id="ha"><rect x=".152" width="92.347" height="25" rx="2.944" fill="#fff"/></clipPath></defs></svg><svg fill="none" viewBox="0 0 151 130" id="play" xmlns="http://www.w3.org/2000/svg"><g filter="url(#ja)"><path d="M145.982 57.088c6.024 2.494 6.024 13.33 0 15.824L9.07 129.585C4.841 131.336.5 127.328.5 121.673V8.327C.5 2.672 4.841-1.336 9.07.415l136.912 56.673Z" fill="currentColor"/></g><defs><filter id="ja" x="-9.5" y="-10" width="170" height="150" filterUnits="userSpaceOnUse" color-interpolation-filters="sRGB"><feFlood flood-opacity="0" result="BackgroundImageFix"/><feGaussianBlur in="BackgroundImageFix" stdDeviation="5"/><feComposite in2="SourceAlpha" operator="in" result="effect1_backgroundBlur_106_799"/><feBlend in="SourceGraphic" in2="effect1_backgroundBlur_106_799" result="shape"/></filter></defs></svg><svg fill="none" viewBox="0 0 26 25" id="telegram" xmlns="http://www.w3.org/2000/svg"><path d="M13 0C6.1 0 .5 5.6.5 12.5S6.1 25 13 25s12.5-5.6 12.5-12.5S19.9 0 13 0Zm5.8 8.5c-.188 1.975-1 6.775-1.413 8.988-.175.937-.524 1.25-.85 1.287-.724.063-1.274-.475-1.974-.938-1.1-.724-1.726-1.174-2.788-1.874-1.238-.813-.438-1.263.275-1.988.188-.188 3.387-3.1 3.45-3.362a.25.25 0 0 0-.063-.226c-.074-.062-.175-.037-.262-.024-.113.024-1.863 1.187-5.275 3.487-.5.338-.95.513-1.35.5-.45-.012-1.3-.25-1.938-.463-.787-.25-1.4-.387-1.35-.825.026-.224.338-.45.926-.687 3.65-1.588 6.074-2.637 7.287-3.137 3.475-1.45 4.188-1.7 4.662-1.7.1 0 .338.024.488.15.125.1.163.237.175.337-.012.075.012.3 0 .475Z" fill="#003A69"/></svg><svg fill="none" viewBox="0 0 26 25" id="vk" xmlns="http://www.w3.org/2000/svg"><path d="M13 0C6.096 0 .5 5.596.5 12.5S6.096 25 13 25s12.5-5.596 12.5-12.5S19.904 0 13 0Zm4.807 14.103s1.106 1.091 1.378 1.598a.1.1 0 0 1 .014.026c.11.184.138.33.082.438-.09.18-.403.269-.51.276h-1.953c-.136 0-.42-.035-.763-.272-.265-.185-.525-.488-.779-.784-.379-.44-.707-.82-1.038-.82a.39.39 0 0 0-.123.02c-.25.08-.57.437-.57 1.388 0 .296-.235.467-.4.467h-.895c-.305 0-1.892-.107-3.298-1.59C7.23 13.034 5.68 9.39 5.668 9.357c-.098-.236.104-.362.324-.362h1.973c.263 0 .349.16.409.302.07.165.328.823.751 1.562.686 1.206 1.107 1.696 1.444 1.696a.39.39 0 0 0 .181-.047c.44-.245.358-1.814.338-2.14 0-.06 0-.701-.226-1.009-.162-.222-.436-.307-.603-.338a.716.716 0 0 1 .26-.22c.301-.151.846-.173 1.386-.173h.3c.587.007.738.045.95.099.43.102.439.38.401 1.329-.012.27-.023.574-.023.934l-.004.25c-.013.483-.029 1.03.312 1.256a.26.26 0 0 0 .149.043c.118 0 .475 0 1.441-1.657.297-.535.556-1.089.775-1.66.02-.033.077-.137.144-.178a.39.39 0 0 1 .162-.037h2.319c.252 0 .425.037.458.135.057.155-.01.628-1.069 2.061l-.473.624c-.96 1.258-.96 1.321.06 2.276Z" fill="#003A69"/></svg><svg fill="none" viewBox="0 0 26 25" id="whatsapp" xmlns="http://www.w3.org/2000/svg"><path d="M21.857 3.638a12.34 12.34 0 0 0-4.036-2.7A12.39 12.39 0 0 0 13.051 0C6.19 0 .6 5.563.6 12.387c0 2.047.505 4.04 1.456 5.823.125.236.162.51.092.767L.5 25l6.213-1.625c.246-.064.506-.031.733.083a12.5 12.5 0 0 0 5.604 1.33c6.86 0 12.45-5.563 12.45-12.388 0-3.312-1.294-6.425-3.643-8.762Zm-8.807 19.05c-1.859 0-3.68-.5-5.276-1.438l-.017-.01a1 1 0 0 0-.766-.109l-3.514.919.924-3.368a1 1 0 0 0-.125-.808l-.007-.011a10.287 10.287 0 0 1-1.583-5.476c0-5.674 4.648-10.3 10.352-10.3 2.764 0 5.364 1.076 7.311 3.026a10.22 10.22 0 0 1 2.248 3.341 10.18 10.18 0 0 1 .78 3.946c.025 5.675-4.623 10.287-10.327 10.287Zm5.679-7.7c-.314-.15-1.847-.9-2.123-1.013-.29-.1-.49-.15-.704.15-.214.313-.804 1.012-.98 1.213-.176.212-.364.237-.678.075-.314-.15-1.32-.488-2.5-1.538-.93-.825-1.546-1.838-1.734-2.15-.176-.313-.025-.475.138-.637.138-.138.314-.363.465-.538.15-.175.214-.313.314-.513.1-.212.05-.387-.025-.537-.075-.15-.704-1.675-.955-2.3-.251-.6-.515-.525-.703-.537H8.64c-.214 0-.54.075-.83.387-.276.313-1.08 1.063-1.08 2.588 0 1.524 1.118 3 1.269 3.2.15.212 2.198 3.337 5.314 4.675.741.324 1.32.512 1.771.65.742.237 1.42.2 1.96.125.603-.088 1.847-.75 2.098-1.476.264-.725.264-1.337.176-1.475-.088-.137-.276-.2-.59-.35Z" fill="#003A69"/></svg></svg>